  0
SECTION
  2
HEADER
  9
$ANGBASE
  50
0.0
  9
$ANGDIR
  70
1
  9
$MEASUREMENT
  70
1
  0
ENDSEC
  0
SECTION
  2
TABLES
  0
TABLE
  2
LTYPE
  70
4
  0
LTYPE
  5
40F
  2
CONTINUOUS
  70
0
  3
Solid line
  72
65
  73
0
  40
0.0
  0
LTYPE
  5
410
  2
DASHDOT
 70
0
  3
Dash Dot ____ _ ____ _
 72
65
 73
4
 40
2.0
 49
1.25
 49
-0.25
 49
0.25
 49
-0.25
  0
LTYPE
  5
411
  2
DASHED
 70
0
  3
Dashed __ __ __ __ __
 72
65
 73
2
 40
0.75
 49
0.5
 49
-0.25
  0
LTYPE
  5
43B
  2
DOTTED
 70
0
  3
Dotted .  .  .  .
 72
65
 73
2
 40
0.2
 49
0.0
 49
-0.2
  0
ENDTAB
  0
TABLE
  2
STYLE
  70
4
  0
STYLE
  2
KICAD
  70
0
  40
0
  41
1
  42
1
  50
0
  71
0
  3
isocp.shx
  0
STYLE
  2
KICADB
  70
0
  40
0
  41
1
  42
1
  50
0
  71
0
  3
isocp.shx
  0
STYLE
  2
KICADI
  70
0
  40
0
  41
1
  42
1
  50
15
  71
0
  3
isocp.shx
  0
STYLE
  2
KICADBI
  70
0
  40
0
  41
1
  42
1
  50
15
  71
0
  3
isocp.shx
  0
ENDTAB
  0
TABLE
  2
LAYER
  70
1
  0
LAYER
  2
BLACK
  70
0
  62
7
  6
CONTINUOUS
  0
ENDTAB
  0
ENDSEC
  0
SECTION
  2
ENTITIES
0
LINE
8
BLACK
6
CONTINUOUS
10
148.096
20
-84.1945
11
149.457
21
-84.2654
0
LINE
8
BLACK
6
CONTINUOUS
10
149.457
20
-84.2654
11
150.817
21
-84.3734
0
LINE
8
BLACK
6
CONTINUOUS
10
150.817
20
-84.3734
11
152.173
21
-84.5183
0
LINE
8
BLACK
6
CONTINUOUS
10
152.173
20
-84.5183
11
153.524
21
-84.7001
0
LINE
8
BLACK
6
CONTINUOUS
10
153.524
20
-84.7001
11
154.87
21
-84.9186
0
LINE
8
BLACK
6
CONTINUOUS
10
154.87
20
-84.9186
11
156.21
21
-85.1737
0
LINE
8
BLACK
6
CONTINUOUS
10
156.21
20
-85.1737
11
157.542
21
-85.4651
0
LINE
8
BLACK
6
CONTINUOUS
10
157.542
20
-85.4651
11
158.866
21
-85.7927
0
LINE
8
BLACK
6
CONTINUOUS
10
158.866
20
-85.7927
11
160.18
21
-86.1561
0
LINE
8
BLACK
6
CONTINUOUS
10
160.18
20
-86.1561
11
161.484
21
-86.5552
0
LINE
8
BLACK
6
CONTINUOUS
10
161.484
20
-86.5552
11
162.777
21
-86.9897
0
LINE
8
BLACK
6
CONTINUOUS
10
162.777
20
-86.9897
11
164.057
21
-87.4592
0
LINE
8
BLACK
6
CONTINUOUS
10
164.057
20
-87.4592
11
165.324
21
-87.9633
0
LINE
8
BLACK
6
CONTINUOUS
10
165.324
20
-87.9633
11
166.577
21
-88.5017
0
LINE
8
BLACK
6
CONTINUOUS
10
166.577
20
-88.5017
11
166.577
21
-88.5018
0
LINE
8
BLACK
6
CONTINUOUS
10
166.577
20
-88.5018
11
192.476
21
-100.052
0
LINE
8
BLACK
6
CONTINUOUS
10
192.476
20
-100.052
11
192.476
21
-100.052
0
LINE
8
BLACK
6
CONTINUOUS
10
192.476
20
-100.052
11
192.953
21
-100.265
0
LINE
8
BLACK
6
CONTINUOUS
10
192.953
20
-100.265
11
193.922
21
-100.657
0
LINE
8
BLACK
6
CONTINUOUS
10
193.922
20
-100.657
11
194.904
21
-101.015
0
LINE
8
BLACK
6
CONTINUOUS
10
194.904
20
-101.015
11
195.898
21
-101.339
0
LINE
8
BLACK
6
CONTINUOUS
10
195.898
20
-101.339
11
196.903
21
-101.627
0
LINE
8
BLACK
6
CONTINUOUS
10
196.903
20
-101.627
11
197.917
21
-101.881
0
LINE
8
BLACK
6
CONTINUOUS
10
197.917
20
-101.881
11
198.94
21
-102.098
0
LINE
8
BLACK
6
CONTINUOUS
10
198.94
20
-102.098
11
199.969
21
-102.28
0
LINE
8
BLACK
6
CONTINUOUS
10
199.969
20
-102.28
11
201.004
21
-102.426
0
LINE
8
BLACK
6
CONTINUOUS
10
201.004
20
-102.426
11
202.044
21
-102.535
0
LINE
8
BLACK
6
CONTINUOUS
10
202.044
20
-102.535
11
203.087
21
-102.608
0
LINE
8
BLACK
6
CONTINUOUS
10
203.087
20
-102.608
11
204.132
21
-102.645
0
LINE
8
BLACK
6
CONTINUOUS
10
204.132
20
-102.645
11
204.654
21
-102.645
0
LINE
8
BLACK
6
CONTINUOUS
10
204.654
20
-102.645
11
209.366
21
-102.645
0
LINE
8
BLACK
6
CONTINUOUS
10
209.366
20
-102.645
11
209.366
21
-102.645
0
LINE
8
BLACK
6
CONTINUOUS
10
209.366
20
-102.645
11
209.888
21
-102.645
0
LINE
8
BLACK
6
CONTINUOUS
10
209.888
20
-102.645
11
210.933
21
-102.608
0
LINE
8
BLACK
6
CONTINUOUS
10
210.933
20
-102.608
11
211.976
21
-102.535
0
LINE
8
BLACK
6
CONTINUOUS
10
211.976
20
-102.535
11
213.016
21
-102.426
0
LINE
8
BLACK
6
CONTINUOUS
10
213.016
20
-102.426
11
214.051
21
-102.28
0
LINE
8
BLACK
6
CONTINUOUS
10
214.051
20
-102.28
11
215.08
21
-102.098
0
LINE
8
BLACK
6
CONTINUOUS
10
215.08
20
-102.098
11
216.103
21
-101.881
0
LINE
8
BLACK
6
CONTINUOUS
10
216.103
20
-101.881
11
217.117
21
-101.627
0
LINE
8
BLACK
6
CONTINUOUS
10
217.117
20
-101.627
11
218.122
21
-101.339
0
LINE
8
BLACK
6
CONTINUOUS
10
218.122
20
-101.339
11
219.116
21
-101.015
0
LINE
8
BLACK
6
CONTINUOUS
10
219.116
20
-101.015
11
220.098
21
-100.657
0
LINE
8
BLACK
6
CONTINUOUS
10
220.098
20
-100.657
11
221.067
21
-100.265
0
LINE
8
BLACK
6
CONTINUOUS
10
221.067
20
-100.265
11
221.544
21
-100.052
0
LINE
8
BLACK
6
CONTINUOUS
10
221.544
20
-100.052
11
247.443
21
-88.5018
0
LINE
8
BLACK
6
CONTINUOUS
10
247.443
20
-88.5018
11
247.443
21
-88.5018
0
LINE
8
BLACK
6
CONTINUOUS
10
247.443
20
-88.5018
11
248.696
21
-87.9633
0
LINE
8
BLACK
6
CONTINUOUS
10
248.696
20
-87.9633
11
249.963
21
-87.4592
0
LINE
8
BLACK
6
CONTINUOUS
10
249.963
20
-87.4592
11
251.243
21
-86.9897
0
LINE
8
BLACK
6
CONTINUOUS
10
251.243
20
-86.9897
11
252.536
21
-86.5553
0
LINE
8
BLACK
6
CONTINUOUS
10
252.536
20
-86.5553
11
253.84
21
-86.1561
0
LINE
8
BLACK
6
CONTINUOUS
10
253.84
20
-86.1561
11
255.154
21
-85.7927
0
LINE
8
BLACK
6
CONTINUOUS
10
255.154
20
-85.7927
11
256.478
21
-85.4651
0
LINE
8
BLACK
6
CONTINUOUS
10
256.478
20
-85.4651
11
257.81
21
-85.1737
0
LINE
8
BLACK
6
CONTINUOUS
10
257.81
20
-85.1737
11
259.15
21
-84.9186
0
LINE
8
BLACK
6
CONTINUOUS
10
259.15
20
-84.9186
11
260.496
21
-84.7001
0
LINE
8
BLACK
6
CONTINUOUS
10
260.496
20
-84.7001
11
261.847
21
-84.5183
0
LINE
8
BLACK
6
CONTINUOUS
10
261.847
20
-84.5183
11
263.203
21
-84.3734
0
LINE
8
BLACK
6
CONTINUOUS
10
263.203
20
-84.3734
11
264.563
21
-84.2654
0
LINE
8
BLACK
6
CONTINUOUS
10
264.563
20
-84.2654
11
265.924
21
-84.1945
0
LINE
8
BLACK
6
CONTINUOUS
10
265.924
20
-84.1945
11
267.288
21
-84.1606
0
LINE
8
BLACK
6
CONTINUOUS
10
267.288
20
-84.1606
11
268.651
21
-84.1639
0
LINE
8
BLACK
6
CONTINUOUS
10
268.651
20
-84.1639
11
270.014
21
-84.2043
0
LINE
8
BLACK
6
CONTINUOUS
10
270.014
20
-84.2043
11
271.376
21
-84.2818
0
LINE
8
BLACK
6
CONTINUOUS
10
271.376
20
-84.2818
11
271.376
21
-84.2818
0
LINE
8
BLACK
6
CONTINUOUS
10
271.376
20
-84.2818
11
331.255
21
-88.507
0
LINE
8
BLACK
6
CONTINUOUS
10
331.255
20
-88.507
11
331.255
21
-88.507
0
LINE
8
BLACK
6
CONTINUOUS
10
331.255
20
-88.507
11
331.675
21
-88.5541
0
LINE
8
BLACK
6
CONTINUOUS
10
331.675
20
-88.5541
11
332.089
21
-88.6359
0
LINE
8
BLACK
6
CONTINUOUS
10
332.089
20
-88.6359
11
332.496
21
-88.7517
0
LINE
8
BLACK
6
CONTINUOUS
10
332.496
20
-88.7517
11
332.891
21
-88.9007
0
LINE
8
BLACK
6
CONTINUOUS
10
332.891
20
-88.9007
11
333.273
21
-89.0819
0
LINE
8
BLACK
6
CONTINUOUS
10
333.273
20
-89.0819
11
333.638
21
-89.2941
0
LINE
8
BLACK
6
CONTINUOUS
10
333.638
20
-89.2941
11
333.985
21
-89.5358
0
LINE
8
BLACK
6
CONTINUOUS
10
333.985
20
-89.5358
11
334.31
21
-89.8054
0
LINE
8
BLACK
6
CONTINUOUS
10
334.31
20
-89.8054
11
334.612
21
-90.1009
0
LINE
8
BLACK
6
CONTINUOUS
10
334.612
20
-90.1009
11
334.888
21
-90.4204
0
LINE
8
BLACK
6
CONTINUOUS
10
334.888
20
-90.4204
11
335.137
21
-90.7618
0
LINE
8
BLACK
6
CONTINUOUS
10
335.137
20
-90.7618
11
335.357
21
-91.1225
0
LINE
8
BLACK
6
CONTINUOUS
10
335.357
20
-91.1225
11
335.546
21
-91.5002
0
LINE
8
BLACK
6
CONTINUOUS
10
335.546
20
-91.5002
11
335.704
21
-91.8923
0
LINE
8
BLACK
6
CONTINUOUS
10
335.704
20
-91.8923
11
335.828
21
-92.2961
0
LINE
8
BLACK
6
CONTINUOUS
10
335.828
20
-92.2961
11
335.919
21
-92.7087
0
LINE
8
BLACK
6
CONTINUOUS
10
335.919
20
-92.7087
11
335.919
21
-92.7087
0
LINE
8
BLACK
6
CONTINUOUS
10
335.919
20
-92.7087
11
346.512
21
-152.786
0
LINE
8
BLACK
6
CONTINUOUS
10
346.512
20
-152.786
11
346.512
21
-152.786
0
LINE
8
BLACK
6
CONTINUOUS
10
346.512
20
-152.786
11
346.568
21
-153.204
0
LINE
8
BLACK
6
CONTINUOUS
10
346.568
20
-153.204
11
346.589
21
-153.625
0
LINE
8
BLACK
6
CONTINUOUS
10
346.589
20
-153.625
11
346.576
21
-154.046
0
LINE
8
BLACK
6
CONTINUOUS
10
346.576
20
-154.046
11
346.527
21
-154.465
0
LINE
8
BLACK
6
CONTINUOUS
10
346.527
20
-154.465
11
346.445
21
-154.878
0
LINE
8
BLACK
6
CONTINUOUS
10
346.445
20
-154.878
11
346.328
21
-155.283
0
LINE
8
BLACK
6
CONTINUOUS
10
346.328
20
-155.283
11
346.178
21
-155.677
0
LINE
8
BLACK
6
CONTINUOUS
10
346.178
20
-155.677
11
345.997
21
-156.057
0
LINE
8
BLACK
6
CONTINUOUS
10
345.997
20
-156.057
11
345.784
21
-156.422
0
LINE
8
BLACK
6
CONTINUOUS
10
345.784
20
-156.422
11
345.543
21
-156.767
0
LINE
8
BLACK
6
CONTINUOUS
10
345.543
20
-156.767
11
345.273
21
-157.091
0
LINE
8
BLACK
6
CONTINUOUS
10
345.273
20
-157.091
11
344.978
21
-157.392
0
LINE
8
BLACK
6
CONTINUOUS
10
344.978
20
-157.392
11
344.659
21
-157.667
0
LINE
8
BLACK
6
CONTINUOUS
10
344.659
20
-157.667
11
344.318
21
-157.915
0
LINE
8
BLACK
6
CONTINUOUS
10
344.318
20
-157.915
11
343.958
21
-158.134
0
LINE
8
BLACK
6
CONTINUOUS
10
343.958
20
-158.134
11
343.581
21
-158.323
0
LINE
8
BLACK
6
CONTINUOUS
10
343.581
20
-158.323
11
343.19
21
-158.48
0
LINE
8
BLACK
6
CONTINUOUS
10
343.19
20
-158.48
11
342.787
21
-158.604
0
LINE
8
BLACK
6
CONTINUOUS
10
342.787
20
-158.604
11
342.375
21
-158.694
0
LINE
8
BLACK
6
CONTINUOUS
10
342.375
20
-158.694
11
342.375
21
-158.694
0
LINE
8
BLACK
6
CONTINUOUS
10
342.375
20
-158.694
11
342.375
21
-158.694
0
LINE
8
BLACK
6
CONTINUOUS
10
342.375
20
-158.694
11
342.375
21
-158.694
0
LINE
8
BLACK
6
CONTINUOUS
10
342.375
20
-158.694
11
299.597
21
-166.237
0
LINE
8
BLACK
6
CONTINUOUS
10
299.597
20
-166.237
11
299.597
21
-166.237
0
LINE
8
BLACK
6
CONTINUOUS
10
299.597
20
-166.237
11
299.386
21
-166.274
0
LINE
8
BLACK
6
CONTINUOUS
10
299.386
20
-166.274
11
298.973
21
-166.385
0
LINE
8
BLACK
6
CONTINUOUS
10
298.973
20
-166.385
11
298.571
21
-166.531
0
LINE
8
BLACK
6
CONTINUOUS
10
298.571
20
-166.531
11
298.183
21
-166.712
0
LINE
8
BLACK
6
CONTINUOUS
10
298.183
20
-166.712
11
297.812
21
-166.926
0
LINE
8
BLACK
6
CONTINUOUS
10
297.812
20
-166.926
11
297.462
21
-167.171
0
LINE
8
BLACK
6
CONTINUOUS
10
297.462
20
-167.171
11
297.134
21
-167.446
0
LINE
8
BLACK
6
CONTINUOUS
10
297.134
20
-167.446
11
296.831
21
-167.749
0
LINE
8
BLACK
6
CONTINUOUS
10
296.831
20
-167.749
11
296.556
21
-168.077
0
LINE
8
BLACK
6
CONTINUOUS
10
296.556
20
-168.077
11
296.311
21
-168.427
0
LINE
8
BLACK
6
CONTINUOUS
10
296.311
20
-168.427
11
296.097
21
-168.798
0
LINE
8
BLACK
6
CONTINUOUS
10
296.097
20
-168.798
11
295.916
21
-169.186
0
LINE
8
BLACK
6
CONTINUOUS
10
295.916
20
-169.186
11
295.77
21
-169.588
0
LINE
8
BLACK
6
CONTINUOUS
10
295.77
20
-169.588
11
295.659
21
-170.001
0
LINE
8
BLACK
6
CONTINUOUS
10
295.659
20
-170.001
11
295.585
21
-170.422
0
LINE
8
BLACK
6
CONTINUOUS
10
295.585
20
-170.422
11
295.548
21
-170.849
0
LINE
8
BLACK
6
CONTINUOUS
10
295.548
20
-170.849
11
295.548
21
-171.062
0
LINE
8
BLACK
6
CONTINUOUS
10
295.548
20
-171.062
11
295.548
21
-182.015
0
LINE
8
BLACK
6
CONTINUOUS
10
295.548
20
-182.015
11
295.53
21
-182.434
0
LINE
8
BLACK
6
CONTINUOUS
10
295.53
20
-182.434
11
295.479
21
-182.849
0
LINE
8
BLACK
6
CONTINUOUS
10
295.479
20
-182.849
11
295.393
21
-183.259
0
LINE
8
BLACK
6
CONTINUOUS
10
295.393
20
-183.259
11
295.275
21
-183.661
0
LINE
8
BLACK
6
CONTINUOUS
10
295.275
20
-183.661
11
295.123
21
-184.051
0
LINE
8
BLACK
6
CONTINUOUS
10
295.123
20
-184.051
11
294.941
21
-184.428
0
LINE
8
BLACK
6
CONTINUOUS
10
294.941
20
-184.428
11
294.728
21
-184.789
0
LINE
8
BLACK
6
CONTINUOUS
10
294.728
20
-184.789
11
294.486
21
-185.13
0
LINE
8
BLACK
6
CONTINUOUS
10
294.486
20
-185.13
11
294.216
21
-185.451
0
LINE
8
BLACK
6
CONTINUOUS
10
294.216
20
-185.451
11
293.922
21
-185.749
0
LINE
8
BLACK
6
CONTINUOUS
10
293.922
20
-185.749
11
293.604
21
-186.021
0
LINE
8
BLACK
6
CONTINUOUS
10
293.604
20
-186.021
11
293.265
21
-186.267
0
LINE
8
BLACK
6
CONTINUOUS
10
293.265
20
-186.267
11
292.906
21
-186.483
0
LINE
8
BLACK
6
CONTINUOUS
10
292.906
20
-186.483
11
292.531
21
-186.67
0
LINE
8
BLACK
6
CONTINUOUS
10
292.531
20
-186.67
11
292.143
21
-186.825
0
LINE
8
BLACK
6
CONTINUOUS
10
292.143
20
-186.825
11
291.742
21
-186.948
0
LINE
8
BLACK
6
CONTINUOUS
10
291.742
20
-186.948
11
291.333
21
-187.038
0
LINE
8
BLACK
6
CONTINUOUS
10
291.333
20
-187.038
11
291.333
21
-187.038
0
LINE
8
BLACK
6
CONTINUOUS
10
291.333
20
-187.038
11
240.456
21
-196.009
0
LINE
8
BLACK
6
CONTINUOUS
10
240.456
20
-196.009
11
240.456
21
-196.009
0
LINE
8
BLACK
6
CONTINUOUS
10
240.456
20
-196.009
11
239.223
21
-196.211
0
LINE
8
BLACK
6
CONTINUOUS
10
239.223
20
-196.211
11
237.985
21
-196.381
0
LINE
8
BLACK
6
CONTINUOUS
10
237.985
20
-196.381
11
236.744
21
-196.521
0
LINE
8
BLACK
6
CONTINUOUS
10
236.744
20
-196.521
11
235.5
21
-196.63
0
LINE
8
BLACK
6
CONTINUOUS
10
235.5
20
-196.63
11
234.253
21
-196.708
0
LINE
8
BLACK
6
CONTINUOUS
10
234.253
20
-196.708
11
233.005
21
-196.755
0
LINE
8
BLACK
6
CONTINUOUS
10
233.005
20
-196.755
11
231.756
21
-196.77
0
LINE
8
BLACK
6
CONTINUOUS
10
231.756
20
-196.77
11
231.756
21
-196.77
0
LINE
8
BLACK
6
CONTINUOUS
10
231.756
20
-196.77
11
182.264
21
-196.77
0
LINE
8
BLACK
6
CONTINUOUS
10
182.264
20
-196.77
11
181.015
21
-196.755
0
LINE
8
BLACK
6
CONTINUOUS
10
181.015
20
-196.755
11
179.767
21
-196.708
0
LINE
8
BLACK
6
CONTINUOUS
10
179.767
20
-196.708
11
178.52
21
-196.63
0
LINE
8
BLACK
6
CONTINUOUS
10
178.52
20
-196.63
11
177.276
21
-196.521
0
LINE
8
BLACK
6
CONTINUOUS
10
177.276
20
-196.521
11
176.035
21
-196.381
0
LINE
8
BLACK
6
CONTINUOUS
10
176.035
20
-196.381
11
174.797
21
-196.211
0
LINE
8
BLACK
6
CONTINUOUS
10
174.797
20
-196.211
11
173.564
21
-196.009
0
LINE
8
BLACK
6
CONTINUOUS
10
173.564
20
-196.009
11
173.564
21
-196.009
0
LINE
8
BLACK
6
CONTINUOUS
10
173.564
20
-196.009
11
122.687
21
-187.038
0
LINE
8
BLACK
6
CONTINUOUS
10
122.687
20
-187.038
11
122.687
21
-187.038
0
LINE
8
BLACK
6
CONTINUOUS
10
122.687
20
-187.038
11
122.278
21
-186.948
0
LINE
8
BLACK
6
CONTINUOUS
10
122.278
20
-186.948
11
121.877
21
-186.825
0
LINE
8
BLACK
6
CONTINUOUS
10
121.877
20
-186.825
11
121.489
21
-186.67
0
LINE
8
BLACK
6
CONTINUOUS
10
121.489
20
-186.67
11
121.114
21
-186.484
0
LINE
8
BLACK
6
CONTINUOUS
10
121.114
20
-186.484
11
120.755
21
-186.267
0
LINE
8
BLACK
6
CONTINUOUS
10
120.755
20
-186.267
11
120.416
21
-186.021
0
LINE
8
BLACK
6
CONTINUOUS
10
120.416
20
-186.021
11
120.098
21
-185.749
0
LINE
8
BLACK
6
CONTINUOUS
10
120.098
20
-185.749
11
119.804
21
-185.451
0
LINE
8
BLACK
6
CONTINUOUS
10
119.804
20
-185.451
11
119.534
21
-185.13
0
LINE
8
BLACK
6
CONTINUOUS
10
119.534
20
-185.13
11
119.292
21
-184.789
0
LINE
8
BLACK
6
CONTINUOUS
10
119.292
20
-184.789
11
119.079
21
-184.428
0
LINE
8
BLACK
6
CONTINUOUS
10
119.079
20
-184.428
11
118.897
21
-184.051
0
LINE
8
BLACK
6
CONTINUOUS
10
118.897
20
-184.051
11
118.745
21
-183.661
0
LINE
8
BLACK
6
CONTINUOUS
10
118.745
20
-183.661
11
118.627
21
-183.259
0
LINE
8
BLACK
6
CONTINUOUS
10
118.627
20
-183.259
11
118.541
21
-182.849
0
LINE
8
BLACK
6
CONTINUOUS
10
118.541
20
-182.849
11
118.49
21
-182.434
0
LINE
8
BLACK
6
CONTINUOUS
10
118.49
20
-182.434
11
118.473
21
-182.015
0
LINE
8
BLACK
6
CONTINUOUS
10
118.473
20
-182.015
11
118.472
21
-182.015
0
LINE
8
BLACK
6
CONTINUOUS
10
118.472
20
-182.015
11
118.472
21
-171.062
0
LINE
8
BLACK
6
CONTINUOUS
10
118.472
20
-171.062
11
118.473
21
-171.062
0
LINE
8
BLACK
6
CONTINUOUS
10
118.473
20
-171.062
11
118.473
21
-170.849
0
LINE
8
BLACK
6
CONTINUOUS
10
118.473
20
-170.849
11
118.435
21
-170.422
0
LINE
8
BLACK
6
CONTINUOUS
10
118.435
20
-170.422
11
118.361
21
-170.001
0
LINE
8
BLACK
6
CONTINUOUS
10
118.361
20
-170.001
11
118.25
21
-169.588
0
LINE
8
BLACK
6
CONTINUOUS
10
118.25
20
-169.588
11
118.104
21
-169.186
0
LINE
8
BLACK
6
CONTINUOUS
10
118.104
20
-169.186
11
117.923
21
-168.798
0
LINE
8
BLACK
6
CONTINUOUS
10
117.923
20
-168.798
11
117.709
21
-168.427
0
LINE
8
BLACK
6
CONTINUOUS
10
117.709
20
-168.427
11
117.464
21
-168.077
0
LINE
8
BLACK
6
CONTINUOUS
10
117.464
20
-168.077
11
117.189
21
-167.749
0
LINE
8
BLACK
6
CONTINUOUS
10
117.189
20
-167.749
11
116.886
21
-167.446
0
LINE
8
BLACK
6
CONTINUOUS
10
116.886
20
-167.446
11
116.558
21
-167.171
0
LINE
8
BLACK
6
CONTINUOUS
10
116.558
20
-167.171
11
116.208
21
-166.926
0
LINE
8
BLACK
6
CONTINUOUS
10
116.208
20
-166.926
11
115.837
21
-166.712
0
LINE
8
BLACK
6
CONTINUOUS
10
115.837
20
-166.712
11
115.449
21
-166.531
0
LINE
8
BLACK
6
CONTINUOUS
10
115.449
20
-166.531
11
115.047
21
-166.385
0
LINE
8
BLACK
6
CONTINUOUS
10
115.047
20
-166.385
11
114.634
21
-166.274
0
LINE
8
BLACK
6
CONTINUOUS
10
114.634
20
-166.274
11
114.423
21
-166.237
0
LINE
8
BLACK
6
CONTINUOUS
10
114.423
20
-166.237
11
71.645
21
-158.694
0
LINE
8
BLACK
6
CONTINUOUS
10
71.645
20
-158.694
11
71.645
21
-158.694
0
LINE
8
BLACK
6
CONTINUOUS
10
71.645
20
-158.694
11
71.2333
21
-158.604
0
LINE
8
BLACK
6
CONTINUOUS
10
71.2333
20
-158.604
11
70.8304
21
-158.48
0
LINE
8
BLACK
6
CONTINUOUS
10
70.8304
20
-158.48
11
70.4392
21
-158.323
0
LINE
8
BLACK
6
CONTINUOUS
10
70.4392
20
-158.323
11
70.0622
21
-158.134
0
LINE
8
BLACK
6
CONTINUOUS
10
70.0622
20
-158.134
11
69.7021
21
-157.915
0
LINE
8
BLACK
6
CONTINUOUS
10
69.7021
20
-157.915
11
69.3613
21
-157.667
0
LINE
8
BLACK
6
CONTINUOUS
10
69.3613
20
-157.667
11
69.0421
21
-157.392
0
LINE
8
BLACK
6
CONTINUOUS
10
69.0421
20
-157.392
11
68.7468
21
-157.091
0
LINE
8
BLACK
6
CONTINUOUS
10
68.7468
20
-157.091
11
68.4774
21
-156.767
0
LINE
8
BLACK
6
CONTINUOUS
10
68.4774
20
-156.767
11
68.2356
21
-156.422
0
LINE
8
BLACK
6
CONTINUOUS
10
68.2356
20
-156.422
11
68.0232
21
-156.057
0
LINE
8
BLACK
6
CONTINUOUS
10
68.0232
20
-156.057
11
67.8415
21
-155.677
0
LINE
8
BLACK
6
CONTINUOUS
10
67.8415
20
-155.677
11
67.6919
21
-155.283
0
LINE
8
BLACK
6
CONTINUOUS
10
67.6919
20
-155.283
11
67.5754
21
-154.878
0
LINE
8
BLACK
6
CONTINUOUS
10
67.5754
20
-154.878
11
67.4926
21
-154.465
0
LINE
8
BLACK
6
CONTINUOUS
10
67.4926
20
-154.465
11
67.4443
21
-154.046
0
LINE
8
BLACK
6
CONTINUOUS
10
67.4443
20
-154.046
11
67.4308
21
-153.625
0
LINE
8
BLACK
6
CONTINUOUS
10
67.4308
20
-153.625
11
67.4521
21
-153.204
0
LINE
8
BLACK
6
CONTINUOUS
10
67.4521
20
-153.204
11
67.5081
21
-152.786
0
LINE
8
BLACK
6
CONTINUOUS
10
67.5081
20
-152.786
11
67.5081
21
-152.786
0
LINE
8
BLACK
6
CONTINUOUS
10
67.5081
20
-152.786
11
67.5081
21
-152.786
0
LINE
8
BLACK
6
CONTINUOUS
10
67.5081
20
-152.786
11
78.1013
21
-92.7087
0
LINE
8
BLACK
6
CONTINUOUS
10
78.1013
20
-92.7087
11
78.1013
21
-92.7087
0
LINE
8
BLACK
6
CONTINUOUS
10
78.1013
20
-92.7087
11
78.1919
21
-92.2961
0
LINE
8
BLACK
6
CONTINUOUS
10
78.1919
20
-92.2961
11
78.3162
21
-91.8923
0
LINE
8
BLACK
6
CONTINUOUS
10
78.3162
20
-91.8923
11
78.4736
21
-91.5002
0
LINE
8
BLACK
6
CONTINUOUS
10
78.4736
20
-91.5002
11
78.6629
21
-91.1225
0
LINE
8
BLACK
6
CONTINUOUS
10
78.6629
20
-91.1225
11
78.8828
21
-90.7618
0
LINE
8
BLACK
6
CONTINUOUS
10
78.8828
20
-90.7618
11
79.1318
21
-90.4205
0
LINE
8
BLACK
6
CONTINUOUS
10
79.1318
20
-90.4205
11
79.4082
21
-90.1009
0
LINE
8
BLACK
6
CONTINUOUS
10
79.4082
20
-90.1009
11
79.7101
21
-89.8054
0
LINE
8
BLACK
6
CONTINUOUS
10
79.7101
20
-89.8054
11
80.0354
21
-89.5358
0
LINE
8
BLACK
6
CONTINUOUS
10
80.0354
20
-89.5358
11
80.3819
21
-89.2941
0
LINE
8
BLACK
6
CONTINUOUS
10
80.3819
20
-89.2941
11
80.7472
21
-89.0819
0
LINE
8
BLACK
6
CONTINUOUS
10
80.7472
20
-89.0819
11
81.1289
21
-88.9007
0
LINE
8
BLACK
6
CONTINUOUS
10
81.1289
20
-88.9007
11
81.5242
21
-88.7517
0
LINE
8
BLACK
6
CONTINUOUS
10
81.5242
20
-88.7517
11
81.9305
21
-88.6359
0
LINE
8
BLACK
6
CONTINUOUS
10
81.9305
20
-88.6359
11
82.345
21
-88.5541
0
LINE
8
BLACK
6
CONTINUOUS
10
82.345
20
-88.5541
11
82.7649
21
-88.507
0
LINE
8
BLACK
6
CONTINUOUS
10
82.7649
20
-88.507
11
82.7649
21
-88.507
0
LINE
8
BLACK
6
CONTINUOUS
10
82.7649
20
-88.507
11
142.644
21
-84.2818
0
LINE
8
BLACK
6
CONTINUOUS
10
142.644
20
-84.2818
11
144.006
21
-84.2043
0
LINE
8
BLACK
6
CONTINUOUS
10
144.006
20
-84.2043
11
145.369
21
-84.1639
0
LINE
8
BLACK
6
CONTINUOUS
10
145.369
20
-84.1639
11
146.732
21
-84.1606
0
LINE
8
BLACK
6
CONTINUOUS
10
146.732
20
-84.1606
11
148.096
21
-84.1945
0
LINE
8
BLACK
6
CONTINUOUS
10
144.693
20
-84.3748
11
143.336
21
-84.4335
0
LINE
8
BLACK
6
CONTINUOUS
10
143.336
20
-84.4335
11
142.658
21
-84.4813
0
LINE
8
BLACK
6
CONTINUOUS
10
142.658
20
-84.4813
11
142.658
21
-84.4813
0
LINE
8
BLACK
6
CONTINUOUS
10
142.658
20
-84.4813
11
142.658
21
-84.4813
0
LINE
8
BLACK
6
CONTINUOUS
10
142.658
20
-84.4813
11
82.7789
21
-88.7065
0
LINE
8
BLACK
6
CONTINUOUS
10
82.7789
20
-88.7065
11
82.7789
21
-88.7065
0
LINE
8
BLACK
6
CONTINUOUS
10
82.7789
20
-88.7065
11
82.5763
21
-88.7208
0
LINE
8
BLACK
6
CONTINUOUS
10
82.5763
20
-88.7208
11
82.1748
21
-88.7828
0
LINE
8
BLACK
6
CONTINUOUS
10
82.1748
20
-88.7828
11
81.7798
21
-88.8779
0
LINE
8
BLACK
6
CONTINUOUS
10
81.7798
20
-88.8779
11
81.3941
21
-89.0053
0
LINE
8
BLACK
6
CONTINUOUS
10
81.3941
20
-89.0053
11
81.0202
21
-89.1642
0
LINE
8
BLACK
6
CONTINUOUS
10
81.0202
20
-89.1642
11
80.6607
21
-89.3536
0
LINE
8
BLACK
6
CONTINUOUS
10
80.6607
20
-89.3536
11
80.3182
21
-89.572
0
LINE
8
BLACK
6
CONTINUOUS
10
80.3182
20
-89.572
11
79.9949
21
-89.818
0
LINE
8
BLACK
6
CONTINUOUS
10
79.9949
20
-89.818
11
79.693
21
-90.0899
0
LINE
8
BLACK
6
CONTINUOUS
10
79.693
20
-90.0899
11
79.4148
21
-90.3859
0
LINE
8
BLACK
6
CONTINUOUS
10
79.4148
20
-90.3859
11
79.1619
21
-90.7039
0
LINE
8
BLACK
6
CONTINUOUS
10
79.1619
20
-90.7039
11
78.9363
21
-91.0418
0
LINE
8
BLACK
6
CONTINUOUS
10
78.9363
20
-91.0418
11
78.7394
21
-91.3971
0
LINE
8
BLACK
6
CONTINUOUS
10
78.7394
20
-91.3971
11
78.5726
21
-91.7676
0
LINE
8
BLACK
6
CONTINUOUS
10
78.5726
20
-91.7676
11
78.437
21
-92.1505
0
LINE
8
BLACK
6
CONTINUOUS
10
78.437
20
-92.1505
11
78.3336
21
-92.5434
0
LINE
8
BLACK
6
CONTINUOUS
10
78.3336
20
-92.5434
11
78.2983
21
-92.7435
0
LINE
8
BLACK
6
CONTINUOUS
10
78.2983
20
-92.7435
11
78.2983
21
-92.7435
0
LINE
8
BLACK
6
CONTINUOUS
10
78.2983
20
-92.7435
11
67.7051
21
-152.821
0
LINE
8
BLACK
6
CONTINUOUS
10
67.7051
20
-152.821
11
67.705
21
-152.821
0
LINE
8
BLACK
6
CONTINUOUS
10
67.705
20
-152.821
11
67.6679
21
-153.031
0
LINE
8
BLACK
6
CONTINUOUS
10
67.6679
20
-153.031
11
67.6306
21
-153.457
0
LINE
8
BLACK
6
CONTINUOUS
10
67.6306
20
-153.457
11
67.6306
21
-153.885
0
LINE
8
BLACK
6
CONTINUOUS
10
67.6306
20
-153.885
11
67.6679
21
-154.312
0
LINE
8
BLACK
6
CONTINUOUS
10
67.6679
20
-154.312
11
67.7422
21
-154.733
0
LINE
8
BLACK
6
CONTINUOUS
10
67.7422
20
-154.733
11
67.8529
21
-155.146
0
LINE
8
BLACK
6
CONTINUOUS
10
67.8529
20
-155.146
11
67.9993
21
-155.548
0
LINE
8
BLACK
6
CONTINUOUS
10
67.9993
20
-155.548
11
68.1801
21
-155.936
0
LINE
8
BLACK
6
CONTINUOUS
10
68.1801
20
-155.936
11
68.394
21
-156.307
0
LINE
8
BLACK
6
CONTINUOUS
10
68.394
20
-156.307
11
68.6395
21
-156.657
0
LINE
8
BLACK
6
CONTINUOUS
10
68.6395
20
-156.657
11
68.9145
21
-156.985
0
LINE
8
BLACK
6
CONTINUOUS
10
68.9145
20
-156.985
11
69.2171
21
-157.288
0
LINE
8
BLACK
6
CONTINUOUS
10
69.2171
20
-157.288
11
69.5448
21
-157.563
0
LINE
8
BLACK
6
CONTINUOUS
10
69.5448
20
-157.563
11
69.8953
21
-157.808
0
LINE
8
BLACK
6
CONTINUOUS
10
69.8953
20
-157.808
11
70.2659
21
-158.022
0
LINE
8
BLACK
6
CONTINUOUS
10
70.2659
20
-158.022
11
70.6537
21
-158.203
0
LINE
8
BLACK
6
CONTINUOUS
10
70.6537
20
-158.203
11
71.0558
21
-158.349
0
LINE
8
BLACK
6
CONTINUOUS
10
71.0558
20
-158.349
11
71.4691
21
-158.46
0
LINE
8
BLACK
6
CONTINUOUS
10
71.4691
20
-158.46
11
71.6797
21
-158.497
0
LINE
8
BLACK
6
CONTINUOUS
10
71.6797
20
-158.497
11
71.6797
21
-158.497
0
LINE
8
BLACK
6
CONTINUOUS
10
71.6797
20
-158.497
11
71.6797
21
-158.497
0
LINE
8
BLACK
6
CONTINUOUS
10
71.6797
20
-158.497
11
114.458
21
-166.04
0
LINE
8
BLACK
6
CONTINUOUS
10
114.458
20
-166.04
11
114.867
21
-166.13
0
LINE
8
BLACK
6
CONTINUOUS
10
114.867
20
-166.13
11
115.268
21
-166.252
0
LINE
8
BLACK
6
CONTINUOUS
10
115.268
20
-166.252
11
115.656
21
-166.408
0
LINE
8
BLACK
6
CONTINUOUS
10
115.656
20
-166.408
11
116.031
21
-166.594
0
LINE
8
BLACK
6
CONTINUOUS
10
116.031
20
-166.594
11
116.39
21
-166.811
0
LINE
8
BLACK
6
CONTINUOUS
10
116.39
20
-166.811
11
116.729
21
-167.057
0
LINE
8
BLACK
6
CONTINUOUS
10
116.729
20
-167.057
11
117.047
21
-167.329
0
LINE
8
BLACK
6
CONTINUOUS
10
117.047
20
-167.329
11
117.341
21
-167.627
0
LINE
8
BLACK
6
CONTINUOUS
10
117.341
20
-167.627
11
117.611
21
-167.947
0
LINE
8
BLACK
6
CONTINUOUS
10
117.611
20
-167.947
11
117.853
21
-168.289
0
LINE
8
BLACK
6
CONTINUOUS
10
117.853
20
-168.289
11
118.066
21
-168.65
0
LINE
8
BLACK
6
CONTINUOUS
10
118.066
20
-168.65
11
118.248
21
-169.026
0
LINE
8
BLACK
6
CONTINUOUS
10
118.248
20
-169.026
11
118.4
21
-169.417
0
LINE
8
BLACK
6
CONTINUOUS
10
118.4
20
-169.417
11
118.518
21
-169.819
0
LINE
8
BLACK
6
CONTINUOUS
10
118.518
20
-169.819
11
118.604
21
-170.228
0
LINE
8
BLACK
6
CONTINUOUS
10
118.604
20
-170.228
11
118.655
21
-170.644
0
LINE
8
BLACK
6
CONTINUOUS
10
118.655
20
-170.644
11
118.673
21
-171.062
0
LINE
8
BLACK
6
CONTINUOUS
10
118.673
20
-171.062
11
118.672
21
-171.062
0
LINE
8
BLACK
6
CONTINUOUS
10
118.672
20
-171.062
11
118.672
21
-182.015
0
LINE
8
BLACK
6
CONTINUOUS
10
118.672
20
-182.015
11
118.672
21
-182.015
0
LINE
8
BLACK
6
CONTINUOUS
10
118.672
20
-182.015
11
118.673
21
-182.015
0
LINE
8
BLACK
6
CONTINUOUS
10
118.673
20
-182.015
11
118.673
21
-182.229
0
LINE
8
BLACK
6
CONTINUOUS
10
118.673
20
-182.229
11
118.71
21
-182.656
0
LINE
8
BLACK
6
CONTINUOUS
10
118.71
20
-182.656
11
118.784
21
-183.077
0
LINE
8
BLACK
6
CONTINUOUS
10
118.784
20
-183.077
11
118.895
21
-183.49
0
LINE
8
BLACK
6
CONTINUOUS
10
118.895
20
-183.49
11
119.041
21
-183.892
0
LINE
8
BLACK
6
CONTINUOUS
10
119.041
20
-183.892
11
119.222
21
-184.28
0
LINE
8
BLACK
6
CONTINUOUS
10
119.222
20
-184.28
11
119.436
21
-184.651
0
LINE
8
BLACK
6
CONTINUOUS
10
119.436
20
-184.651
11
119.681
21
-185.001
0
LINE
8
BLACK
6
CONTINUOUS
10
119.681
20
-185.001
11
119.956
21
-185.329
0
LINE
8
BLACK
6
CONTINUOUS
10
119.956
20
-185.329
11
120.259
21
-185.631
0
LINE
8
BLACK
6
CONTINUOUS
10
120.259
20
-185.631
11
120.587
21
-185.906
0
LINE
8
BLACK
6
CONTINUOUS
10
120.587
20
-185.906
11
120.937
21
-186.152
0
LINE
8
BLACK
6
CONTINUOUS
10
120.937
20
-186.152
11
121.308
21
-186.366
0
LINE
8
BLACK
6
CONTINUOUS
10
121.308
20
-186.366
11
121.696
21
-186.547
0
LINE
8
BLACK
6
CONTINUOUS
10
121.696
20
-186.547
11
122.098
21
-186.693
0
LINE
8
BLACK
6
CONTINUOUS
10
122.098
20
-186.693
11
122.511
21
-186.804
0
LINE
8
BLACK
6
CONTINUOUS
10
122.511
20
-186.804
11
122.722
21
-186.841
0
LINE
8
BLACK
6
CONTINUOUS
10
122.722
20
-186.841
11
122.722
21
-186.841
0
LINE
8
BLACK
6
CONTINUOUS
10
122.722
20
-186.841
11
173.599
21
-195.812
0
LINE
8
BLACK
6
CONTINUOUS
10
173.599
20
-195.812
11
173.599
21
-195.812
0
LINE
8
BLACK
6
CONTINUOUS
10
173.599
20
-195.812
11
174.212
21
-195.92
0
LINE
8
BLACK
6
CONTINUOUS
10
174.212
20
-195.92
11
175.442
21
-196.105
0
LINE
8
BLACK
6
CONTINUOUS
10
175.442
20
-196.105
11
176.677
21
-196.26
0
LINE
8
BLACK
6
CONTINUOUS
10
176.677
20
-196.26
11
177.915
21
-196.384
0
LINE
8
BLACK
6
CONTINUOUS
10
177.915
20
-196.384
11
179.156
21
-196.477
0
LINE
8
BLACK
6
CONTINUOUS
10
179.156
20
-196.477
11
180.398
21
-196.539
0
LINE
8
BLACK
6
CONTINUOUS
10
180.398
20
-196.539
11
181.642
21
-196.57
0
LINE
8
BLACK
6
CONTINUOUS
10
181.642
20
-196.57
11
182.264
21
-196.57
0
LINE
8
BLACK
6
CONTINUOUS
10
182.264
20
-196.57
11
231.756
21
-196.57
0
LINE
8
BLACK
6
CONTINUOUS
10
231.756
20
-196.57
11
231.756
21
-196.57
0
LINE
8
BLACK
6
CONTINUOUS
10
231.756
20
-196.57
11
232.378
21
-196.57
0
LINE
8
BLACK
6
CONTINUOUS
10
232.378
20
-196.57
11
233.622
21
-196.539
0
LINE
8
BLACK
6
CONTINUOUS
10
233.622
20
-196.539
11
234.864
21
-196.477
0
LINE
8
BLACK
6
CONTINUOUS
10
234.864
20
-196.477
11
236.105
21
-196.384
0
LINE
8
BLACK
6
CONTINUOUS
10
236.105
20
-196.384
11
237.343
21
-196.26
0
LINE
8
BLACK
6
CONTINUOUS
10
237.343
20
-196.26
11
238.578
21
-196.105
0
LINE
8
BLACK
6
CONTINUOUS
10
238.578
20
-196.105
11
239.808
21
-195.92
0
LINE
8
BLACK
6
CONTINUOUS
10
239.808
20
-195.92
11
240.421
21
-195.812
0
LINE
8
BLACK
6
CONTINUOUS
10
240.421
20
-195.812
11
240.421
21
-195.812
0
LINE
8
BLACK
6
CONTINUOUS
10
240.421
20
-195.812
11
291.298
21
-186.841
0
LINE
8
BLACK
6
CONTINUOUS
10
291.298
20
-186.841
11
291.298
21
-186.841
0
LINE
8
BLACK
6
CONTINUOUS
10
291.298
20
-186.841
11
291.298
21
-186.841
0
LINE
8
BLACK
6
CONTINUOUS
10
291.298
20
-186.841
11
291.298
21
-186.841
0
LINE
8
BLACK
6
CONTINUOUS
10
291.298
20
-186.841
11
291.509
21
-186.804
0
LINE
8
BLACK
6
CONTINUOUS
10
291.509
20
-186.804
11
291.922
21
-186.693
0
LINE
8
BLACK
6
CONTINUOUS
10
291.922
20
-186.693
11
292.324
21
-186.547
0
LINE
8
BLACK
6
CONTINUOUS
10
292.324
20
-186.547
11
292.712
21
-186.366
0
LINE
8
BLACK
6
CONTINUOUS
10
292.712
20
-186.366
11
293.083
21
-186.152
0
LINE
8
BLACK
6
CONTINUOUS
10
293.083
20
-186.152
11
293.433
21
-185.906
0
LINE
8
BLACK
6
CONTINUOUS
10
293.433
20
-185.906
11
293.761
21
-185.631
0
LINE
8
BLACK
6
CONTINUOUS
10
293.761
20
-185.631
11
294.064
21
-185.329
0
LINE
8
BLACK
6
CONTINUOUS
10
294.064
20
-185.329
11
294.339
21
-185.001
0
LINE
8
BLACK
6
CONTINUOUS
10
294.339
20
-185.001
11
294.584
21
-184.651
0
LINE
8
BLACK
6
CONTINUOUS
10
294.584
20
-184.651
11
294.798
21
-184.28
0
LINE
8
BLACK
6
CONTINUOUS
10
294.798
20
-184.28
11
294.979
21
-183.892
0
LINE
8
BLACK
6
CONTINUOUS
10
294.979
20
-183.892
11
295.125
21
-183.49
0
LINE
8
BLACK
6
CONTINUOUS
10
295.125
20
-183.49
11
295.236
21
-183.077
0
LINE
8
BLACK
6
CONTINUOUS
10
295.236
20
-183.077
11
295.31
21
-182.656
0
LINE
8
BLACK
6
CONTINUOUS
10
295.31
20
-182.656
11
295.348
21
-182.229
0
LINE
8
BLACK
6
CONTINUOUS
10
295.348
20
-182.229
11
295.347
21
-182.015
0
LINE
8
BLACK
6
CONTINUOUS
10
295.347
20
-182.015
11
295.347
21
-182.015
0
LINE
8
BLACK
6
CONTINUOUS
10
295.347
20
-182.015
11
295.347
21
-171.062
0
LINE
8
BLACK
6
CONTINUOUS
10
295.347
20
-171.062
11
295.365
21
-170.644
0
LINE
8
BLACK
6
CONTINUOUS
10
295.365
20
-170.644
11
295.416
21
-170.228
0
LINE
8
BLACK
6
CONTINUOUS
10
295.416
20
-170.228
11
295.502
21
-169.819
0
LINE
8
BLACK
6
CONTINUOUS
10
295.502
20
-169.819
11
295.62
21
-169.417
0
LINE
8
BLACK
6
CONTINUOUS
10
295.62
20
-169.417
11
295.772
21
-169.026
0
LINE
8
BLACK
6
CONTINUOUS
10
295.772
20
-169.026
11
295.954
21
-168.65
0
LINE
8
BLACK
6
CONTINUOUS
10
295.954
20
-168.65
11
296.167
21
-168.289
0
LINE
8
BLACK
6
CONTINUOUS
10
296.167
20
-168.289
11
296.409
21
-167.947
0
LINE
8
BLACK
6
CONTINUOUS
10
296.409
20
-167.947
11
296.679
21
-167.627
0
LINE
8
BLACK
6
CONTINUOUS
10
296.679
20
-167.627
11
296.973
21
-167.329
0
LINE
8
BLACK
6
CONTINUOUS
10
296.973
20
-167.329
11
297.291
21
-167.057
0
LINE
8
BLACK
6
CONTINUOUS
10
297.291
20
-167.057
11
297.63
21
-166.811
0
LINE
8
BLACK
6
CONTINUOUS
10
297.63
20
-166.811
11
297.989
21
-166.594
0
LINE
8
BLACK
6
CONTINUOUS
10
297.989
20
-166.594
11
298.364
21
-166.408
0
LINE
8
BLACK
6
CONTINUOUS
10
298.364
20
-166.408
11
298.752
21
-166.252
0
LINE
8
BLACK
6
CONTINUOUS
10
298.752
20
-166.252
11
299.153
21
-166.13
0
LINE
8
BLACK
6
CONTINUOUS
10
299.153
20
-166.13
11
299.562
21
-166.04
0
LINE
8
BLACK
6
CONTINUOUS
10
299.562
20
-166.04
11
299.562
21
-166.04
0
LINE
8
BLACK
6
CONTINUOUS
10
299.562
20
-166.04
11
342.34
21
-158.497
0
LINE
8
BLACK
6
CONTINUOUS
10
342.34
20
-158.497
11
342.34
21
-158.497
0
LINE
8
BLACK
6
CONTINUOUS
10
342.34
20
-158.497
11
342.34
21
-158.497
0
LINE
8
BLACK
6
CONTINUOUS
10
342.34
20
-158.497
11
342.34
21
-158.497
0
LINE
8
BLACK
6
CONTINUOUS
10
342.34
20
-158.497
11
342.551
21
-158.46
0
LINE
8
BLACK
6
CONTINUOUS
10
342.551
20
-158.46
11
342.964
21
-158.349
0
LINE
8
BLACK
6
CONTINUOUS
10
342.964
20
-158.349
11
343.366
21
-158.203
0
LINE
8
BLACK
6
CONTINUOUS
10
343.366
20
-158.203
11
343.754
21
-158.022
0
LINE
8
BLACK
6
CONTINUOUS
10
343.754
20
-158.022
11
344.125
21
-157.808
0
LINE
8
BLACK
6
CONTINUOUS
10
344.125
20
-157.808
11
344.475
21
-157.563
0
LINE
8
BLACK
6
CONTINUOUS
10
344.475
20
-157.563
11
344.803
21
-157.288
0
LINE
8
BLACK
6
CONTINUOUS
10
344.803
20
-157.288
11
345.105
21
-156.985
0
LINE
8
BLACK
6
CONTINUOUS
10
345.105
20
-156.985
11
345.38
21
-156.657
0
LINE
8
BLACK
6
CONTINUOUS
10
345.38
20
-156.657
11
345.626
21
-156.307
0
LINE
8
BLACK
6
CONTINUOUS
10
345.626
20
-156.307
11
345.84
21
-155.936
0
LINE
8
BLACK
6
CONTINUOUS
10
345.84
20
-155.936
11
346.021
21
-155.548
0
LINE
8
BLACK
6
CONTINUOUS
10
346.021
20
-155.548
11
346.167
21
-155.146
0
LINE
8
BLACK
6
CONTINUOUS
10
346.167
20
-155.146
11
346.278
21
-154.733
0
LINE
8
BLACK
6
CONTINUOUS
10
346.278
20
-154.733
11
346.352
21
-154.312
0
LINE
8
BLACK
6
CONTINUOUS
10
346.352
20
-154.312
11
346.389
21
-153.885
0
LINE
8
BLACK
6
CONTINUOUS
10
346.389
20
-153.885
11
346.389
21
-153.457
0
LINE
8
BLACK
6
CONTINUOUS
10
346.389
20
-153.457
11
346.352
21
-153.031
0
LINE
8
BLACK
6
CONTINUOUS
10
346.352
20
-153.031
11
346.315
21
-152.821
0
LINE
8
BLACK
6
CONTINUOUS
10
346.315
20
-152.821
11
346.315
21
-152.821
0
LINE
8
BLACK
6
CONTINUOUS
10
346.315
20
-152.821
11
335.722
21
-92.7435
0
LINE
8
BLACK
6
CONTINUOUS
10
335.722
20
-92.7435
11
335.722
21
-92.7434
0
LINE
8
BLACK
6
CONTINUOUS
10
335.722
20
-92.7434
11
335.686
21
-92.5434
0
LINE
8
BLACK
6
CONTINUOUS
10
335.686
20
-92.5434
11
335.583
21
-92.1505
0
LINE
8
BLACK
6
CONTINUOUS
10
335.583
20
-92.1505
11
335.447
21
-91.7676
0
LINE
8
BLACK
6
CONTINUOUS
10
335.447
20
-91.7676
11
335.281
21
-91.3971
0
LINE
8
BLACK
6
CONTINUOUS
10
335.281
20
-91.3971
11
335.084
21
-91.0418
0
LINE
8
BLACK
6
CONTINUOUS
10
335.084
20
-91.0418
11
334.858
21
-90.7039
0
LINE
8
BLACK
6
CONTINUOUS
10
334.858
20
-90.7039
11
334.605
21
-90.3859
0
LINE
8
BLACK
6
CONTINUOUS
10
334.605
20
-90.3859
11
334.327
21
-90.0899
0
LINE
8
BLACK
6
CONTINUOUS
10
334.327
20
-90.0899
11
334.025
21
-89.818
0
LINE
8
BLACK
6
CONTINUOUS
10
334.025
20
-89.818
11
333.702
21
-89.572
0
LINE
8
BLACK
6
CONTINUOUS
10
333.702
20
-89.572
11
333.359
21
-89.3536
0
LINE
8
BLACK
6
CONTINUOUS
10
333.359
20
-89.3536
11
333
21
-89.1642
0
LINE
8
BLACK
6
CONTINUOUS
10
333
20
-89.1642
11
332.626
21
-89.0053
0
LINE
8
BLACK
6
CONTINUOUS
10
332.626
20
-89.0053
11
332.24
21
-88.8779
0
LINE
8
BLACK
6
CONTINUOUS
10
332.24
20
-88.8779
11
331.845
21
-88.7828
0
LINE
8
BLACK
6
CONTINUOUS
10
331.845
20
-88.7828
11
331.444
21
-88.7208
0
LINE
8
BLACK
6
CONTINUOUS
10
331.444
20
-88.7208
11
331.241
21
-88.7065
0
LINE
8
BLACK
6
CONTINUOUS
10
331.241
20
-88.7065
11
331.241
21
-88.7065
0
LINE
8
BLACK
6
CONTINUOUS
10
331.241
20
-88.7065
11
331.241
21
-88.7065
0
LINE
8
BLACK
6
CONTINUOUS
10
331.241
20
-88.7065
11
331.241
21
-88.7065
0
LINE
8
BLACK
6
CONTINUOUS
10
331.241
20
-88.7065
11
271.362
21
-84.4813
0
LINE
8
BLACK
6
CONTINUOUS
10
271.362
20
-84.4813
11
271.362
21
-84.4813
0
LINE
8
BLACK
6
CONTINUOUS
10
271.362
20
-84.4813
11
270.684
21
-84.4335
0
LINE
8
BLACK
6
CONTINUOUS
10
270.684
20
-84.4335
11
269.327
21
-84.3748
0
LINE
8
BLACK
6
CONTINUOUS
10
269.327
20
-84.3748
11
267.969
21
-84.353
0
LINE
8
BLACK
6
CONTINUOUS
10
267.969
20
-84.353
11
266.611
21
-84.3683
0
LINE
8
BLACK
6
CONTINUOUS
10
266.611
20
-84.3683
11
265.253
21
-84.4205
0
LINE
8
BLACK
6
CONTINUOUS
10
265.253
20
-84.4205
11
263.898
21
-84.5096
0
LINE
8
BLACK
6
CONTINUOUS
10
263.898
20
-84.5096
11
262.545
21
-84.6355
0
LINE
8
BLACK
6
CONTINUOUS
10
262.545
20
-84.6355
11
261.197
21
-84.7983
0
LINE
8
BLACK
6
CONTINUOUS
10
261.197
20
-84.7983
11
259.853
21
-84.9977
0
LINE
8
BLACK
6
CONTINUOUS
10
259.853
20
-84.9977
11
258.516
21
-85.2335
0
LINE
8
BLACK
6
CONTINUOUS
10
258.516
20
-85.2335
11
257.185
21
-85.5057
0
LINE
8
BLACK
6
CONTINUOUS
10
257.185
20
-85.5057
11
255.862
21
-85.814
0
LINE
8
BLACK
6
CONTINUOUS
10
255.862
20
-85.814
11
254.548
21
-86.1582
0
LINE
8
BLACK
6
CONTINUOUS
10
254.548
20
-86.1582
11
253.244
21
-86.5381
0
LINE
8
BLACK
6
CONTINUOUS
10
253.244
20
-86.5381
11
251.95
21
-86.9533
0
LINE
8
BLACK
6
CONTINUOUS
10
251.95
20
-86.9533
11
250.669
21
-87.4035
0
LINE
8
BLACK
6
CONTINUOUS
10
250.669
20
-87.4035
11
249.4
21
-87.8885
0
LINE
8
BLACK
6
CONTINUOUS
10
249.4
20
-87.8885
11
248.145
21
-88.4078
0
LINE
8
BLACK
6
CONTINUOUS
10
248.145
20
-88.4078
11
247.524
21
-88.6844
0
LINE
8
BLACK
6
CONTINUOUS
10
247.524
20
-88.6844
11
247.524
21
-88.6844
0
LINE
8
BLACK
6
CONTINUOUS
10
247.524
20
-88.6844
11
221.626
21
-100.235
0
LINE
8
BLACK
6
CONTINUOUS
10
221.626
20
-100.235
11
221.626
21
-100.235
0
LINE
8
BLACK
6
CONTINUOUS
10
221.626
20
-100.235
11
220.732
21
-100.616
0
LINE
8
BLACK
6
CONTINUOUS
10
220.732
20
-100.616
11
219.827
21
-100.968
0
LINE
8
BLACK
6
CONTINUOUS
10
219.827
20
-100.968
11
218.911
21
-101.291
0
LINE
8
BLACK
6
CONTINUOUS
10
218.911
20
-101.291
11
217.985
21
-101.584
0
LINE
8
BLACK
6
CONTINUOUS
10
217.985
20
-101.584
11
217.05
21
-101.847
0
LINE
8
BLACK
6
CONTINUOUS
10
217.05
20
-101.847
11
216.107
21
-102.08
0
LINE
8
BLACK
6
CONTINUOUS
10
216.107
20
-102.08
11
215.157
21
-102.282
0
LINE
8
BLACK
6
CONTINUOUS
10
215.157
20
-102.282
11
214.201
21
-102.454
0
LINE
8
BLACK
6
CONTINUOUS
10
214.201
20
-102.454
11
213.24
21
-102.594
0
LINE
8
BLACK
6
CONTINUOUS
10
213.24
20
-102.594
11
212.275
21
-102.704
0
LINE
8
BLACK
6
CONTINUOUS
10
212.275
20
-102.704
11
211.307
21
-102.782
0
LINE
8
BLACK
6
CONTINUOUS
10
211.307
20
-102.782
11
210.337
21
-102.829
0
LINE
8
BLACK
6
CONTINUOUS
10
210.337
20
-102.829
11
209.366
21
-102.845
0
LINE
8
BLACK
6
CONTINUOUS
10
209.366
20
-102.845
11
209.366
21
-102.845
0
LINE
8
BLACK
6
CONTINUOUS
10
209.366
20
-102.845
11
204.654
21
-102.845
0
LINE
8
BLACK
6
CONTINUOUS
10
204.654
20
-102.845
11
203.683
21
-102.829
0
LINE
8
BLACK
6
CONTINUOUS
10
203.683
20
-102.829
11
202.713
21
-102.782
0
LINE
8
BLACK
6
CONTINUOUS
10
202.713
20
-102.782
11
201.745
21
-102.704
0
LINE
8
BLACK
6
CONTINUOUS
10
201.745
20
-102.704
11
200.78
21
-102.594
0
LINE
8
BLACK
6
CONTINUOUS
10
200.78
20
-102.594
11
199.819
21
-102.454
0
LINE
8
BLACK
6
CONTINUOUS
10
199.819
20
-102.454
11
198.863
21
-102.282
0
LINE
8
BLACK
6
CONTINUOUS
10
198.863
20
-102.282
11
197.913
21
-102.08
0
LINE
8
BLACK
6
CONTINUOUS
10
197.913
20
-102.08
11
196.97
21
-101.847
0
LINE
8
BLACK
6
CONTINUOUS
10
196.97
20
-101.847
11
196.035
21
-101.584
0
LINE
8
BLACK
6
CONTINUOUS
10
196.035
20
-101.584
11
195.109
21
-101.291
0
LINE
8
BLACK
6
CONTINUOUS
10
195.109
20
-101.291
11
194.193
21
-100.968
0
LINE
8
BLACK
6
CONTINUOUS
10
194.193
20
-100.968
11
193.288
21
-100.616
0
LINE
8
BLACK
6
CONTINUOUS
10
193.288
20
-100.616
11
192.394
21
-100.235
0
LINE
8
BLACK
6
CONTINUOUS
10
192.394
20
-100.235
11
192.394
21
-100.235
0
LINE
8
BLACK
6
CONTINUOUS
10
192.394
20
-100.235
11
166.496
21
-88.6844
0
LINE
8
BLACK
6
CONTINUOUS
10
166.496
20
-88.6844
11
166.496
21
-88.6844
0
LINE
8
BLACK
6
CONTINUOUS
10
166.496
20
-88.6844
11
165.875
21
-88.4078
0
LINE
8
BLACK
6
CONTINUOUS
10
165.875
20
-88.4078
11
164.62
21
-87.8885
0
LINE
8
BLACK
6
CONTINUOUS
10
164.62
20
-87.8885
11
163.351
21
-87.4035
0
LINE
8
BLACK
6
CONTINUOUS
10
163.351
20
-87.4035
11
162.07
21
-86.9533
0
LINE
8
BLACK
6
CONTINUOUS
10
162.07
20
-86.9533
11
160.776
21
-86.5381
0
LINE
8
BLACK
6
CONTINUOUS
10
160.776
20
-86.5381
11
159.472
21
-86.1582
0
LINE
8
BLACK
6
CONTINUOUS
10
159.472
20
-86.1582
11
158.158
21
-85.814
0
LINE
8
BLACK
6
CONTINUOUS
10
158.158
20
-85.814
11
156.835
21
-85.5057
0
LINE
8
BLACK
6
CONTINUOUS
10
156.835
20
-85.5057
11
155.504
21
-85.2335
0
LINE
8
BLACK
6
CONTINUOUS
10
155.504
20
-85.2335
11
154.167
21
-84.9976
0
LINE
8
BLACK
6
CONTINUOUS
10
154.167
20
-84.9976
11
152.823
21
-84.7983
0
LINE
8
BLACK
6
CONTINUOUS
10
152.823
20
-84.7983
11
151.475
21
-84.6355
0
LINE
8
BLACK
6
CONTINUOUS
10
151.475
20
-84.6355
11
150.122
21
-84.5096
0
LINE
8
BLACK
6
CONTINUOUS
10
150.122
20
-84.5096
11
148.767
21
-84.4204
0
LINE
8
BLACK
6
CONTINUOUS
10
148.767
20
-84.4204
11
147.409
21
-84.3682
0
LINE
8
BLACK
6
CONTINUOUS
10
147.409
20
-84.3682
11
146.051
21
-84.353
0
LINE
8
BLACK
6
CONTINUOUS
10
146.051
20
-84.353
11
144.693
21
-84.3748
  0
ENDSEC
  0
EOF
