999
dxfrw 0.6.3
  0
SECTION
  2
HEADER
  9
$ACADVER
  1
AC1021
  9
$DWGCODEPAGE
  3
ANSI_1252
  9
$INSBASE
 10
0
 20
0
 30
0
  9
$EXTMIN
 10
-134.7168761962054
 20
-50
 30
0
  9
$EXTMAX
 10
134.7168761962054
 20
68.80990591641518
 30
0
  9
$LIMMIN
 10
0
 20
0
  9
$LIMMAX
 10
420
 20
297
  9
$ORTHOMODE
 70
    0
  9
$REGENMODE
 70
    1
  9
$FILLMODE
 70
    1
  9
$QTEXTMODE
 70
    0
  9
$MIRRTEXT
 70
    0
  9
$LTSCALE
 40
1
  9
$ATTMODE
 70
    0
  9
$TEXTSIZE
 40
2.5
  9
$TRACEWID
 40
15.68
  9
$TEXTSTYLE
  7
STANDARD
  9
$CLAYER
  8
0
  9
$CELTYPE
  6
BYLAYER
  9
$CECOLOR
 62
  256
  9
$CELTSCALE
 40
1
  9
$DISPSILH
 70
    0
  9
$DIMSCALE
 40
2.5
  9
$DIMASZ
 40
2.5
  9
$DIMEXO
 40
0.625
  9
$DIMDLI
 40
3.75
  9
$DIMRND
 40
0
  9
$DIMDLE
 40
0
  9
$DIMEXE
 40
1.25
  9
$DIMTP
 40
0
  9
$DIMTM
 40
0
  9
$DIMTXT
 40
2.5
  9
$DIMCEN
 40
2.5
  9
$DIMTSZ
 40
0
  9
$DIMTOL
 70
    0
  9
$DIMLIM
 70
    0
  9
$DIMTIH
 70
    0
  9
$DIMTOH
 70
    0
  9
$DIMSE1
 70
    0
  9
$DIMSE2
 70
    0
  9
$DIMTAD
 70
    1
  9
$DIMZIN
 70
    8
  9
$DIMBLK
  1

  9
$DIMASO
 70
    1
  9
$DIMSHO
 70
    1
  9
$DIMPOST
  1

  9
$DIMAPOST
  1

  9
$DIMALT
 70
    0
  9
$DIMALTD
 70
    3
  9
$DIMALTF
 40
0.03937
  9
$DIMLFAC
 40
1
  9
$DIMTOFL
 70
    1
  9
$DIMTVP
 40
0
  9
$DIMTIX
 70
    0
  9
$DIMSOXD
 70
    0
  9
$DIMSAH
 70
    0
  9
$DIMBLK1
  1

  9
$DIMBLK2
  1

  9
$DIMSTYLE
  2
Standard
  9
$DIMCLRD
 70
    0
  9
$DIMCLRE
 70
    0
  9
$DIMCLRT
 70
    0
  9
$DIMTFAC
 40
1
  9
$DIMGAP
 40
0.625
  9
$DIMJUST
 70
    0
  9
$DIMSD1
 70
    0
  9
$DIMSD2
 70
    0
  9
$DIMTOLJ
 70
    0
  9
$DIMTZIN
 70
    8
  9
$DIMALTZ
 70
    0
  9
$DIMALTTZ
 70
    0
  9
$DIMUPT
 70
    0
  9
$DIMDEC
 70
    2
  9
$DIMTDEC
 70
    2
  9
$DIMALTU
 70
    2
  9
$DIMALTTD
 70
    3
  9
$DIMTXSTY
  7
STANDARD
  9
$DIMAUNIT
 70
    0
  9
$DIMADEC
 70
    0
  9
$DIMALTRND
 40
0
  9
$DIMAZIN
 70
    0
  9
$DIMDSEP
 70
   44
  9
$DIMATFIT
 70
    3
  9
$DIMFRAC
 70
    0
  9
$DIMLDRBLK
  1
STANDARD
  9
$DIMLUNIT
 70
    2
  9
$DIMLWD
 70
   -2
  9
$DIMLWE
 70
   -2
  9
$DIMTMOVE
 70
    0
  9
$DIMFXL
 40
1
  9
$DIMFXLON
 70
    0
  9
$DIMJOGANG
 40
0.7854
  9
$DIMTFILL
 70
    0
  9
$DIMTFILLCLR
 70
    0
  9
$DIMARCSYM
 70
    0
  9
$DIMLTYPE
  6

  9
$DIMLTEX1
  6

  9
$DIMLTEX2
  6

  9
$LUNITS
 70
    2
  9
$LUPREC
 70
    4
  9
$SKETCHINC
 40
1
  9
$FILLETRAD
 40
0
  9
$AUNITS
 70
    0
  9
$AUPREC
 70
    2
  9
$MENU
  1
.
  9
$ELEVATION
 40
0
  9
$PELEVATION
 40
0
  9
$THICKNESS
 40
0
  9
$LIMCHECK
 70
    0
  9
$CHAMFERA
 40
0
  9
$CHAMFERB
 40
0
  9
$CHAMFERC
 40
0
  9
$CHAMFERD
 40
0
  9
$SKPOLY
 70
    0
  9
$USRTIMER
 70
    1
  9
$ANGBASE
 50
0
  9
$ANGDIR
 70
    0
  9
$PDMODE
 70
   34
  9
$PDSIZE
 40
0
  9
$PLINEWID
 40
0
  9
$SPLFRAME
 70
    0
  9
$SPLINETYPE
 70
    2
  9
$SPLINESEGS
 70
    8
  9
$HANDSEED
  5
20000
  9
$SURFTAB1
 70
    6
  9
$SURFTAB2
 70
    6
  9
$SURFTYPE
 70
    6
  9
$SURFU
 70
    6
  9
$SURFV
 70
    6
  9
$UCSBASE
  2

  9
$UCSNAME
  2

  9
$UCSORG
 10
0
 20
0
 30
0
  9
$UCSXDIR
 10
1
 20
0
 30
0
  9
$UCSYDIR
 10
0
 20
1
 30
0
  9
$UCSORTHOREF
  2

  9
$UCSORTHOVIEW
 70
    0
  9
$UCSORGTOP
 10
0
 20
0
 30
0
  9
$UCSORGBOTTOM
 10
0
 20
0
 30
0
  9
$UCSORGLEFT
 10
0
 20
0
 30
0
  9
$UCSORGRIGHT
 10
0
 20
0
 30
0
  9
$UCSORGFRONT
 10
0
 20
0
 30
0
  9
$UCSORGBACK
 10
0
 20
0
 30
0
  9
$PUCSBASE
  2

  9
$PUCSNAME
  2

  9
$PUCSORG
 10
0
 20
0
 30
0
  9
$PUCSXDIR
 10
1
 20
0
 30
0
  9
$PUCSYDIR
 10
0
 20
1
 30
0
  9
$PUCSORTHOREF
  2

  9
$PUCSORTHOVIEW
 70
    0
  9
$PUCSORGTOP
 10
0
 20
0
 30
0
  9
$PUCSORGBOTTOM
 10
0
 20
0
 30
0
  9
$PUCSORGLEFT
 10
0
 20
0
 30
0
  9
$PUCSORGRIGHT
 10
0
 20
0
 30
0
  9
$PUCSORGFRONT
 10
0
 20
0
 30
0
  9
$PUCSORGBACK
 10
0
 20
0
 30
0
  9
$USERI1
 70
    0
  9
$USERI2
 70
    0
  9
$USERI3
 70
    0
  9
$USERI4
 70
    0
  9
$USERI5
 70
    0
  9
$USERR1
 40
0
  9
$USERR2
 40
0
  9
$USERR3
 40
0
  9
$USERR4
 40
0
  9
$USERR5
 40
0
  9
$WORLDVIEW
 70
    1
  9
$SHADEDGE
 70
    3
  9
$SHADEDIF
 70
   70
  9
$TILEMODE
 70
    1
  9
$MAXACTVP
 70
   64
  9
$PINSBASE
 10
0
 20
0
 30
0
  9
$PLIMCHECK
 70
    0
  9
$PEXTMIN
 10
0
 20
0
 30
0
  9
$PEXTMAX
 10
0
 20
0
 30
0
  9
$GRIDMODE
 70
    1
  9
$SNAPSTYLE
 70
    0
  9
$PLIMMIN
 10
0
 20
0
  9
$PLIMMAX
 10
210
 20
297
  9
$UNITMODE
 70
    0
  9
$VISRETAIN
 70
    1
  9
$PLINEGEN
 70
    0
  9
$PSLTSCALE
 70
    1
  9
$TREEDEPTH
 70
 3020
  9
$CMLSTYLE
  2
Standard
  9
$CMLJUST
 70
    0
  9
$CMLSCALE
 40
20
  9
$PROXYGRAPHICS
 70
    1
  9
$MEASUREMENT
 70
    1
  9
$CELWEIGHT
370
   -1
  9
$ENDCAPS
280
    0
  9
$JOINSTYLE
280
    0
  9
$LWDISPLAY
290
    0
  9
$INSUNITS
 70
    4
  9
$HYPERLINKBASE
  1

  9
$STYLESHEET
  1

  9
$XEDIT
290
    1
  9
$CEPSNTYPE
380
    0
  9
$PSTYLEMODE
290
    1
  9
$EXTNAMES
290
    1
  9
$PSVPSCALE
 40
1
  9
$OLESTARTUP
290
    0
  9
$SORTENTS
280
  127
  9
$INDEXCTL
280
    0
  9
$HIDETEXT
280
    1
  9
$XCLIPFRAME
290
    0
  9
$HALOGAP
280
    0
  9
$OBSCOLOR
 70
  257
  9
$OBSLTYPE
280
    0
  9
$INTERSECTIONDISPLAY
280
    0
  9
$INTERSECTIONCOLOR
 70
  257
  9
$DIMASSOC
280
    1
  9
$PROJECTNAME
  1

  9
$CAMERADISPLAY
290
    0
  9
$LENSLENGTH
 40
50
  9
$CAMERAHEIGHT
 40
0
  9
$STEPSPERSEC
 40
2
  9
$STEPSIZE
 40
50
  9
$3DDWFPREC
 40
2
  9
$PSOLWIDTH
 40
5
  9
$PSOLHEIGHT
 40
80
  9
$LOFTANG1
 40
1.570796326794897
  9
$LOFTANG2
 40
1.570796326794897
  9
$LOFTMAG1
 40
0
  9
$LOFTMAG2
 40
0
  9
$LOFTPARAM
 70
    7
  9
$LOFTNORMALS
280
    1
  9
$LATITUDE
 40
1
  9
$LONGITUDE
 40
1
  9
$NORTHDIRECTION
 40
0
  9
$TIMEZONE
 70
-8000
  9
$LIGHTGLYPHDISPLAY
280
    1
  9
$TILEMODELIGHTSYNCH
280
    1
  9
$SOLIDHIST
280
    1
  9
$SHOWHIST
280
    1
  9
$DWFFRAME
280
    2
  9
$DGNFRAME
280
    0
  9
$REALWORLDSCALE
290
    1
  9
$INTERFERECOLOR
 62
    1
  9
$CSHADOW
280
    0
  9
$SHADOWPLANELOCATION
 40
0
  0
ENDSEC
  0
SECTION
  2
CLASSES
  0
ENDSEC
  0
SECTION
  2
TABLES
  0
TABLE
  2
VPORT
  5
8
330
0
100
AcDbSymbolTable
 70
    1
  0
VPORT
  5
31
330
2
100
AcDbSymbolTableRecord
100
AcDbViewportTableRecord
  2
*ACTIVE
 70
    0
 10
0
 20
0
 11
1
 21
1
 12
68.34143128785958
 22
43.90702914247417
 13
0
 23
0
 14
10
 24
10
 15
10
 25
10
 16
0
 26
0
 36
1
 17
0
 27
0
 37
0
 40
156.5299631689058
 41
1.745215311004785
 42
50
 43
0
 44
0
 50
0
 51
0
 71
    0
 72
  100
 73
    1
 74
    3
 75
    0
 76
    1
 77
    0
 78
    0
281
    0
 65
    1
110
0
120
0
130
0
111
1
121
0
131
0
112
0
122
1
132
0
 79
    0
146
0
348
10020
 60
    7
 61
    5
292
1
282
    1
141
0
142
0
 63
  250
421
3358443
  0
ENDTAB
  0
TABLE
  2
LTYPE
  5
5
330
0
100
AcDbSymbolTable
 70
    4
  0
LTYPE
  5
14
330
5
100
AcDbSymbolTableRecord
100
AcDbLinetypeTableRecord
  2
ByBlock
 70
    0
  3

 72
   65
 73
    0
 40
0
  0
LTYPE
  5
15
330
5
100
AcDbSymbolTableRecord
100
AcDbLinetypeTableRecord
  2
ByLayer
 70
    0
  3

 72
   65
 73
    0
 40
0
  0
LTYPE
  5
16
330
5
100
AcDbSymbolTableRecord
100
AcDbLinetypeTableRecord
  2
Continuous
 70
    0
  3
Solid line
 72
   65
 73
    0
 40
0
  0
LTYPE
  5
32
330
5
100
AcDbSymbolTableRecord
100
AcDbLinetypeTableRecord
  2
DOT
 70
    0
  3
Dot . . . . . . . . . . . . . . . . . . . . . .
 72
   65
 73
    2
 40
6.35
 49
0
 74
    0
 49
-6.35
 74
    0
  0
LTYPE
  5
33
330
5
100
AcDbSymbolTableRecord
100
AcDbLinetypeTableRecord
  2
DOTTINY
 70
    0
  3
Dot (.15x) .....................................
 72
   65
 73
    2
 40
0.9525
 49
0
 74
    0
 49
-0.9525
 74
    0
  0
LTYPE
  5
34
330
5
100
AcDbSymbolTableRecord
100
AcDbLinetypeTableRecord
  2
DOT2
 70
    0
  3
Dot (.5x) .....................................
 72
   65
 73
    2
 40
3.175
 49
0
 74
    0
 49
-3.175
 74
    0
  0
LTYPE
  5
35
330
5
100
AcDbSymbolTableRecord
100
AcDbLinetypeTableRecord
  2
DOTX2
 70
    0
  3
Dot (2x) .  .  .  .  .  .  .  .  .  .  .  .  .
 72
   65
 73
    2
 40
12.7
 49
0
 74
    0
 49
-12.7
 74
    0
  0
LTYPE
  5
36
330
5
100
AcDbSymbolTableRecord
100
AcDbLinetypeTableRecord
  2
DASHED
 70
    0
  3
Dashed _ _ _ _ _ _ _ _ _ _ _ _ _ _ _ _ _
 72
   65
 73
    2
 40
19.05
 49
12.7
 74
    0
 49
-6.35
 74
    0
  0
LTYPE
  5
37
330
5
100
AcDbSymbolTableRecord
100
AcDbLinetypeTableRecord
  2
DASHEDTINY
 70
    0
  3
Dashed (.15x) _ _ _ _ _ _ _ _ _ _ _ _ _ _ _ _ _
 72
   65
 73
    2
 40
2.8575
 49
1.905
 74
    0
 49
-0.9525
 74
    0
  0
LTYPE
  5
38
330
5
100
AcDbSymbolTableRecord
100
AcDbLinetypeTableRecord
  2
DASHED2
 70
    0
  3
Dashed (.5x) _ _ _ _ _ _ _ _ _ _ _ _ _ _ _ _ _
 72
   65
 73
    2
 40
9.524999999999999
 49
6.35
 74
    0
 49
-3.175
 74
    0
  0
LTYPE
  5
39
330
5
100
AcDbSymbolTableRecord
100
AcDbLinetypeTableRecord
  2
DASHEDX2
 70
    0
  3
Dashed (2x) ____  ____  ____  ____  ____  ___
 72
   65
 73
    2
 40
38.09999999999999
 49
25.4
 74
    0
 49
-12.7
 74
    0
  0
LTYPE
  5
3A
330
5
100
AcDbSymbolTableRecord
100
AcDbLinetypeTableRecord
  2
DASHDOT
 70
    0
  3
Dash dot __ . __ . __ . __ . __ . __ . __ . __
 72
   65
 73
    4
 40
25.4
 49
12.7
 74
    0
 49
-6.35
 74
    0
 49
0
 74
    0
 49
-6.35
 74
    0
  0
LTYPE
  5
3B
330
5
100
AcDbSymbolTableRecord
100
AcDbLinetypeTableRecord
  2
DASHDOTTINY
 70
    0
  3
Dash dot (.15x) _._._._._._._._._._._._._._._.
 72
   65
 73
    4
 40
3.81
 49
1.905
 74
    0
 49
-0.9525
 74
    0
 49
0
 74
    0
 49
-0.9525
 74
    0
  0
LTYPE
  5
3C
330
5
100
AcDbSymbolTableRecord
100
AcDbLinetypeTableRecord
  2
DASHDOT2
 70
    0
  3
Dash dot (.5x) _._._._._._._._._._._._._._._.
 72
   65
 73
    4
 40
12.7
 49
6.35
 74
    0
 49
-3.175
 74
    0
 49
0
 74
    0
 49
-3.175
 74
    0
  0
LTYPE
  5
3D
330
5
100
AcDbSymbolTableRecord
100
AcDbLinetypeTableRecord
  2
DASHDOTX2
 70
    0
  3
Dash dot (2x) ____  .  ____  .  ____  .  ___
 72
   65
 73
    4
 40
50.8
 49
25.4
 74
    0
 49
-12.7
 74
    0
 49
0
 74
    0
 49
-12.7
 74
    0
  0
LTYPE
  5
3E
330
5
100
AcDbSymbolTableRecord
100
AcDbLinetypeTableRecord
  2
DIVIDE
 70
    0
  3
Divide ____ . . ____ . . ____ . . ____ . . ____
 72
   65
 73
    6
 40
31.75
 49
12.7
 74
    0
 49
-6.35
 74
    0
 49
0
 74
    0
 49
-6.35
 74
    0
 49
0
 74
    0
 49
-6.35
 74
    0
  0
LTYPE
  5
3F
330
5
100
AcDbSymbolTableRecord
100
AcDbLinetypeTableRecord
  2
DIVIDETINY
 70
    0
  3
Divide (.15x) __..__..__..__..__..__..__..__.._
 72
   65
 73
    6
 40
4.7625
 49
1.905
 74
    0
 49
-0.9525
 74
    0
 49
0
 74
    0
 49
-0.9525
 74
    0
 49
0
 74
    0
 49
-0.9525
 74
    0
  0
LTYPE
  5
40
330
5
100
AcDbSymbolTableRecord
100
AcDbLinetypeTableRecord
  2
DIVIDE2
 70
    0
  3
Divide (.5x) __..__..__..__..__..__..__..__.._
 72
   65
 73
    6
 40
15.875
 49
6.35
 74
    0
 49
-3.175
 74
    0
 49
0
 74
    0
 49
-3.175
 74
    0
 49
0
 74
    0
 49
-3.175
 74
    0
  0
LTYPE
  5
41
330
5
100
AcDbSymbolTableRecord
100
AcDbLinetypeTableRecord
  2
DIVIDEX2
 70
    0
  3
Divide (2x) ________  .  .  ________  .  .  _
 72
   65
 73
    6
 40
63.5
 49
25.4
 74
    0
 49
-12.7
 74
    0
 49
0
 74
    0
 49
-12.7
 74
    0
 49
0
 74
    0
 49
-12.7
 74
    0
  0
LTYPE
  5
42
330
5
100
AcDbSymbolTableRecord
100
AcDbLinetypeTableRecord
  2
BORDER
 70
    0
  3
Border __ __ . __ __ . __ __ . __ __ . __ __ .
 72
   65
 73
    6
 40
44.45
 49
12.7
 74
    0
 49
-6.35
 74
    0
 49
12.7
 74
    0
 49
-6.35
 74
    0
 49
0
 74
    0
 49
-6.35
 74
    0
  0
LTYPE
  5
43
330
5
100
AcDbSymbolTableRecord
100
AcDbLinetypeTableRecord
  2
BORDERTINY
 70
    0
  3
Border (.15x) __.__.__.__.__.__.__.__.__.__.__.
 72
   65
 73
    6
 40
6.6675
 49
1.905
 74
    0
 49
-0.9525
 74
    0
 49
1.905
 74
    0
 49
-0.9525
 74
    0
 49
0
 74
    0
 49
-0.9525
 74
    0
  0
LTYPE
  5
44
330
5
100
AcDbSymbolTableRecord
100
AcDbLinetypeTableRecord
  2
BORDER2
 70
    0
  3
Border (.5x) __.__.__.__.__.__.__.__.__.__.__.
 72
   65
 73
    6
 40
22.225
 49
6.35
 74
    0
 49
-3.175
 74
    0
 49
6.35
 74
    0
 49
-3.175
 74
    0
 49
0
 74
    0
 49
-3.175
 74
    0
  0
LTYPE
  5
45
330
5
100
AcDbSymbolTableRecord
100
AcDbLinetypeTableRecord
  2
BORDERX2
 70
    0
  3
Border (2x) ____  ____  .  ____  ____  .  ___
 72
   65
 73
    6
 40
88.89999999999999
 49
25.4
 74
    0
 49
-12.7
 74
    0
 49
25.4
 74
    0
 49
-12.7
 74
    0
 49
0
 74
    0
 49
-12.7
 74
    0
  0
LTYPE
  5
46
330
5
100
AcDbSymbolTableRecord
100
AcDbLinetypeTableRecord
  2
CENTER
 70
    0
  3
Center ____ _ ____ _ ____ _ ____ _ ____ _ ____
 72
   65
 73
    4
 40
50.8
 49
31.75
 74
    0
 49
-6.35
 74
    0
 49
6.35
 74
    0
 49
-6.35
 74
    0
  0
LTYPE
  5
47
330
5
100
AcDbSymbolTableRecord
100
AcDbLinetypeTableRecord
  2
CENTERTINY
 70
    0
  3
Center (.15x) ___ _ ___ _ ___ _ ___ _ ___ _ ___
 72
   65
 73
    4
 40
7.619999999999999
 49
4.7625
 74
    0
 49
-0.9525
 74
    0
 49
0.9525
 74
    0
 49
-0.9525
 74
    0
  0
LTYPE
  5
48
330
5
100
AcDbSymbolTableRecord
100
AcDbLinetypeTableRecord
  2
CENTER2
 70
    0
  3
Center (.5x) ___ _ ___ _ ___ _ ___ _ ___ _ ___
 72
   65
 73
    4
 40
28.575
 49
19.05
 74
    0
 49
-3.175
 74
    0
 49
3.175
 74
    0
 49
-3.175
 74
    0
  0
LTYPE
  5
49
330
5
100
AcDbSymbolTableRecord
100
AcDbLinetypeTableRecord
  2
CENTERX2
 70
    0
  3
Center (2x) ________  __  ________  __  _____
 72
   65
 73
    4
 40
101.6
 49
63.5
 74
    0
 49
-12.7
 74
    0
 49
12.7
 74
    0
 49
-12.7
 74
    0
  0
ENDTAB
  0
TABLE
  2
LAYER
  5
2
330
0
100
AcDbSymbolTable
 70
    1
  0
LAYER
  5
10
330
2
100
AcDbSymbolTableRecord
100
AcDbLayerTableRecord
  2
0
 70
    0
 62
    7
  6
CONTINUOUS
370
    0
390
F
  0
ENDTAB
  0
TABLE
  2
STYLE
  5
3
330
0
100
AcDbSymbolTable
 70
    3
  0
STYLE
  5
4A
330
2
100
AcDbSymbolTableRecord
100
AcDbTextStyleTableRecord
  2
Standard
 70
    0
 40
0
 41
1
 50
0
 71
    0
 42
1
  3
txt
  4

  0
ENDTAB
  0
TABLE
  2
VIEW
  5
6
330
0
100
AcDbSymbolTable
 70
    0
  0
ENDTAB
  0
TABLE
  2
UCS
  5
7
330
0
100
AcDbSymbolTable
 70
    0
  0
ENDTAB
  0
TABLE
  2
APPID
  5
9
330
0
100
AcDbSymbolTable
 70
    1
  0
APPID
  5
12
330
9
100
AcDbSymbolTableRecord
100
AcDbRegAppTableRecord
  2
ACAD
 70
    0
  0
APPID
  5
4B
330
9
100
AcDbSymbolTableRecord
100
AcDbRegAppTableRecord
  2
LibreCad
 70
    0
  0
ENDTAB
  0
TABLE
  2
DIMSTYLE
  5
A
330
0
100
AcDbSymbolTable
 70
    1
100
AcDbDimStyleTable
 71
    1
  0
DIMSTYLE
105
4C
330
A
100
AcDbSymbolTableRecord
100
AcDbDimStyleTableRecord
  2
Standard
 70
    0
 40
2.5
 41
2.5
 42
0.625
 43
0.38
 44
1.25
 45
0
 46
0
 47
0
 48
0
 49
1
140
2.5
141
0.09
142
0
143
25.4
144
1
145
0
146
1
147
0.625
148
0
 71
    0
 72
    0
 73
    0
 74
    1
 75
    0
 76
    0
 77
    0
 78
    8
 79
    0
170
    0
171
    2
172
    0
173
    0
174
    0
175
    0
176
    0
177
    0
178
    0
179
    0
271
    2
272
    4
273
    2
274
    2
275
    0
276
    0
277
    2
278
   44
279
    0
280
    0
281
    0
282
    0
283
    1
284
    0
285
    0
286
    0
288
    0
289
    3
340
STANDARD
341

371
   -2
372
   -2
  0
ENDTAB
  0
TABLE
  2
BLOCK_RECORD
  5
1
330
0
100
AcDbSymbolTable
 70
    2
  0
BLOCK_RECORD
  5
1F
330
1
100
AcDbSymbolTableRecord
100
AcDbBlockTableRecord
  2
*Model_Space
 70
    0
280
    1
281
    0
  0
BLOCK_RECORD
  5
1E
330
1
100
AcDbSymbolTableRecord
100
AcDbBlockTableRecord
  2
*Paper_Space
 70
    0
280
    1
281
    0
  0
ENDTAB
  0
ENDSEC
  0
SECTION
  2
BLOCKS
  0
BLOCK
  5
20
330
1F
100
AcDbEntity
  8
0
100
AcDbBlockBegin
  2
*Model_Space
 70
    0
 10
0
 20
0
 30
0
  3
*Model_Space
  1

  0
ENDBLK
  5
21
330
1F
100
AcDbEntity
  8
0
100
AcDbBlockEnd
  0
BLOCK
  5
1C
330
1B
100
AcDbEntity
  8
0
100
AcDbBlockBegin
  2
*Paper_Space
 70
    0
 10
0
 20
0
 30
0
  3
*Paper_Space
  1

  0
ENDBLK
  5
1D
330
1F
100
AcDbEntity
  8
0
100
AcDbBlockEnd
  0
ENDSEC
  0
SECTION
  2
ENTITIES
  0
LINE
  5
4D
100
AcDbEntity
  8
0
  6
ByLayer
 62
  256
370
   -1
100
AcDbLine
 10
-73.17499999999998
 20
-11.71249999999999
 11
-60.17499999999998
 21
-11.71249999999999
  0
LINE
  5
4E
100
AcDbEntity
  8
0
  6
ByLayer
 62
  256
370
   -1
100
AcDbLine
 10
-73.17499999999998
 20
-25.71249999999999
 11
-60.17499999999998
 21
-25.71249999999999
  0
LINE
  5
4F
100
AcDbEntity
  8
0
  6
ByLayer
 62
  256
370
   -1
100
AcDbLine
 10
-73.67499999999998
 20
-12.21249999999999
 11
-73.67499999999998
 21
-25.21249999999999
  0
LINE
  5
50
100
AcDbEntity
  8
0
  6
ByLayer
 62
  256
370
   -1
100
AcDbLine
 10
-59.67499999999998
 20
-12.21249999999999
 11
-59.67499999999998
 21
-25.21249999999999
  0
ARC
  5
51
100
AcDbEntity
  8
0
  6
ByLayer
 62
  256
370
   -1
100
AcDbCircle
 10
-73.17499999999998
 20
-12.21249999999999
 40
0.5
100
AcDbArc
 50
90
 51
180
  0
ARC
  5
52
100
AcDbEntity
  8
0
  6
ByLayer
 62
  256
370
   -1
100
AcDbCircle
 10
-60.17499999999998
 20
-12.21249999999999
 40
0.5
100
AcDbArc
 50
0
 51
90
  0
ARC
  5
53
100
AcDbEntity
  8
0
  6
ByLayer
 62
  256
370
   -1
100
AcDbCircle
 10
-73.17499999999998
 20
-25.21249999999999
 40
0.5
100
AcDbArc
 50
180
 51
270
  0
ARC
  5
54
100
AcDbEntity
  8
0
  6
ByLayer
 62
  256
370
   -1
100
AcDbCircle
 10
-60.17499999999998
 20
-25.21249999999999
 40
0.5
100
AcDbArc
 50
270
 51
0
  0
LINE
  5
55
100
AcDbEntity
  8
0
  6
ByLayer
 62
  256
370
   -1
100
AcDbLine
 10
60.17500000000003
 20
-11.71249999999999
 11
73.17500000000003
 21
-11.71249999999999
  0
LINE
  5
56
100
AcDbEntity
  8
0
  6
ByLayer
 62
  256
370
   -1
100
AcDbLine
 10
60.17500000000003
 20
-25.71249999999999
 11
73.17500000000003
 21
-25.71249999999999
  0
LINE
  5
57
100
AcDbEntity
  8
0
  6
ByLayer
 62
  256
370
   -1
100
AcDbLine
 10
59.67500000000003
 20
-12.21249999999999
 11
59.67500000000003
 21
-25.21249999999999
  0
LINE
  5
58
100
AcDbEntity
  8
0
  6
ByLayer
 62
  256
370
   -1
100
AcDbLine
 10
73.67500000000003
 20
-12.21249999999999
 11
73.67500000000003
 21
-25.21249999999999
  0
ARC
  5
59
100
AcDbEntity
  8
0
  6
ByLayer
 62
  256
370
   -1
100
AcDbCircle
 10
60.17500000000003
 20
-12.21249999999999
 40
0.5
100
AcDbArc
 50
90
 51
180
  0
ARC
  5
5A
100
AcDbEntity
  8
0
  6
ByLayer
 62
  256
370
   -1
100
AcDbCircle
 10
73.17500000000003
 20
-12.21249999999999
 40
0.5
100
AcDbArc
 50
0
 51
90
  0
ARC
  5
5B
100
AcDbEntity
  8
0
  6
ByLayer
 62
  256
370
   -1
100
AcDbCircle
 10
60.17500000000003
 20
-25.21249999999999
 40
0.5
100
AcDbArc
 50
180
 51
270
  0
ARC
  5
5C
100
AcDbEntity
  8
0
  6
ByLayer
 62
  256
370
   -1
100
AcDbCircle
 10
73.17500000000003
 20
-25.21249999999999
 40
0.5
100
AcDbArc
 50
270
 51
0
  0
LINE
  5
5D
100
AcDbEntity
  8
0
  6
ByLayer
 62
  256
370
   -1
100
AcDbLine
 10
-6.499999999999986
 20
-26
 11
6.500000000000014
 21
-26
  0
LINE
  5
5E
100
AcDbEntity
  8
0
  6
ByLayer
 62
  256
370
   -1
100
AcDbLine
 10
-6.499999999999986
 20
-40
 11
6.500000000000014
 21
-40
  0
LINE
  5
5F
100
AcDbEntity
  8
0
  6
ByLayer
 62
  256
370
   -1
100
AcDbLine
 10
-6.999999999999986
 20
-26.5
 11
-6.999999999999986
 21
-39.5
  0
LINE
  5
60
100
AcDbEntity
  8
0
  6
ByLayer
 62
  256
370
   -1
100
AcDbLine
 10
7.000000000000014
 20
-26.5
 11
7.000000000000014
 21
-39.5
  0
ARC
  5
61
100
AcDbEntity
  8
0
  6
ByLayer
 62
  256
370
   -1
100
AcDbCircle
 10
-6.499999999999986
 20
-26.5
 40
0.5
100
AcDbArc
 50
90
 51
180
  0
ARC
  5
62
100
AcDbEntity
  8
0
  6
ByLayer
 62
  256
370
   -1
100
AcDbCircle
 10
6.500000000000014
 20
-26.5
 40
0.5
100
AcDbArc
 50
0
 51
90
  0
ARC
  5
63
100
AcDbEntity
  8
0
  6
ByLayer
 62
  256
370
   -1
100
AcDbCircle
 10
-6.499999999999986
 20
-39.5
 40
0.5
100
AcDbArc
 50
180
 51
270
  0
ARC
  5
64
100
AcDbEntity
  8
0
  6
ByLayer
 62
  256
370
   -1
100
AcDbCircle
 10
6.500000000000014
 20
-39.5
 40
0.5
100
AcDbArc
 50
270
 51
0
  0
LINE
  5
65
100
AcDbEntity
  8
0
  6
ByLayer
 62
  256
370
   -1
100
AcDbLine
 10
-14.93799999999999
 20
-27
 11
-8.937999999999988
 21
-27
  0
LINE
  5
66
100
AcDbEntity
  8
0
  6
ByLayer
 62
  256
370
   -1
100
AcDbLine
 10
-14.93799999999999
 20
-42
 11
-8.937999999999988
 21
-42
  0
LINE
  5
67
100
AcDbEntity
  8
0
  6
ByLayer
 62
  256
370
   -1
100
AcDbLine
 10
-15.43799999999999
 20
-27.5
 11
-15.43799999999999
 21
-41.5
  0
LINE
  5
68
100
AcDbEntity
  8
0
  6
ByLayer
 62
  256
370
   -1
100
AcDbLine
 10
-8.437999999999988
 20
-27.5
 11
-8.437999999999988
 21
-41.5
  0
ARC
  5
69
100
AcDbEntity
  8
0
  6
ByLayer
 62
  256
370
   -1
100
AcDbCircle
 10
-14.93799999999999
 20
-27.5
 40
0.5
100
AcDbArc
 50
90
 51
180
  0
ARC
  5
6A
100
AcDbEntity
  8
0
  6
ByLayer
 62
  256
370
   -1
100
AcDbCircle
 10
-8.937999999999988
 20
-27.5
 40
0.5
100
AcDbArc
 50
0
 51
90
  0
ARC
  5
6B
100
AcDbEntity
  8
0
  6
ByLayer
 62
  256
370
   -1
100
AcDbCircle
 10
-14.93799999999999
 20
-41.5
 40
0.5
100
AcDbArc
 50
180
 51
270
  0
ARC
  5
6C
100
AcDbEntity
  8
0
  6
ByLayer
 62
  256
370
   -1
100
AcDbCircle
 10
-8.937999999999988
 20
-41.5
 40
0.5
100
AcDbArc
 50
270
 51
0
  0
LINE
  5
6D
100
AcDbEntity
  8
0
  6
ByLayer
 62
  256
370
   -1
100
AcDbLine
 10
8.938000000000031
 20
-27
 11
14.93800000000003
 21
-27
  0
LINE
  5
6E
100
AcDbEntity
  8
0
  6
ByLayer
 62
  256
370
   -1
100
AcDbLine
 10
8.938000000000031
 20
-42
 11
14.93800000000003
 21
-42
  0
LINE
  5
6F
100
AcDbEntity
  8
0
  6
ByLayer
 62
  256
370
   -1
100
AcDbLine
 10
8.438000000000031
 20
-27.5
 11
8.438000000000031
 21
-41.5
  0
LINE
  5
70
100
AcDbEntity
  8
0
  6
ByLayer
 62
  256
370
   -1
100
AcDbLine
 10
15.43800000000003
 20
-27.5
 11
15.43800000000003
 21
-41.5
  0
ARC
  5
71
100
AcDbEntity
  8
0
  6
ByLayer
 62
  256
370
   -1
100
AcDbCircle
 10
8.938000000000031
 20
-27.5
 40
0.5
100
AcDbArc
 50
90
 51
180
  0
ARC
  5
72
100
AcDbEntity
  8
0
  6
ByLayer
 62
  256
370
   -1
100
AcDbCircle
 10
14.93800000000003
 20
-27.5
 40
0.5
100
AcDbArc
 50
0
 51
90
  0
ARC
  5
73
100
AcDbEntity
  8
0
  6
ByLayer
 62
  256
370
   -1
100
AcDbCircle
 10
8.938000000000031
 20
-41.5
 40
0.5
100
AcDbArc
 50
180
 51
270
  0
ARC
  5
74
100
AcDbEntity
  8
0
  6
ByLayer
 62
  256
370
   -1
100
AcDbCircle
 10
14.93800000000003
 20
-41.5
 40
0.5
100
AcDbArc
 50
270
 51
0
  0
LINE
  5
75
100
AcDbEntity
  8
0
  6
ByLayer
 62
  256
370
   -1
100
AcDbLine
 10
-55.62236129999999
 20
52.4225824
 11
-42.81986049999999
 21
50.1651561
  0
LINE
  5
76
100
AcDbEntity
  8
0
  6
ByLayer
 62
  256
370
   -1
100
AcDbLine
 10
-58.05343569999999
 20
38.6352739
 11
-45.25093489999999
 21
36.37784760000001
  0
LINE
  5
77
100
AcDbEntity
  8
0
  6
ByLayer
 62
  256
370
   -1
100
AcDbLine
 10
-56.20158919999999
 20
52.0170026
 11
-58.45901549999999
 21
39.21450180000001
  0
LINE
  5
78
100
AcDbEntity
  8
0
  6
ByLayer
 62
  256
370
   -1
100
AcDbLine
 10
-42.41428069999999
 20
49.5859282
 11
-44.67170699999998
 21
36.78342740000001
  0
ARC
  5
79
100
AcDbEntity
  8
0
  6
ByLayer
 62
  256
370
   -1
100
AcDbCircle
 10
-55.70918529999999
 20
51.9301785
 40
0.5
100
AcDbArc
 50
80
 51
170
  0
ARC
  5
7A
100
AcDbEntity
  8
0
  6
ByLayer
 62
  256
370
   -1
100
AcDbCircle
 10
-42.90668459999999
 20
49.67275220000001
 40
0.5
100
AcDbArc
 50
350
 51
80
  0
ARC
  5
7B
100
AcDbEntity
  8
0
  6
ByLayer
 62
  256
370
   -1
100
AcDbCircle
 10
-57.96661159999999
 20
39.1276778
 40
0.5
100
AcDbArc
 50
170
 51
260
  0
ARC
  5
7C
100
AcDbEntity
  8
0
  6
ByLayer
 62
  256
370
   -1
100
AcDbCircle
 10
-45.16411089999998
 20
36.87025150000001
 40
0.5
100
AcDbArc
 50
260
 51
350
  0
LINE
  5
7D
100
AcDbEntity
  8
0
  6
ByLayer
 62
  256
370
   -1
100
AcDbLine
 10
-75.20994849999998
 20
51.0404333
 11
-62.40744769999998
 21
48.783007
  0
LINE
  5
7E
100
AcDbEntity
  8
0
  6
ByLayer
 62
  256
370
   -1
100
AcDbLine
 10
-77.64102289999998
 20
37.25312480000001
 11
-64.83852209999998
 21
34.9956985
  0
LINE
  5
7F
100
AcDbEntity
  8
0
  6
ByLayer
 62
  256
370
   -1
100
AcDbLine
 10
-75.78917639999997
 20
50.63485350000001
 11
-78.04660269999998
 21
37.8323527
  0
LINE
  5
80
100
AcDbEntity
  8
0
  6
ByLayer
 62
  256
370
   -1
100
AcDbLine
 10
-62.00186789999998
 20
48.20377910000001
 11
-64.25929419999997
 21
35.4012783
  0
ARC
  5
81
100
AcDbEntity
  8
0
  6
ByLayer
 62
  256
370
   -1
100
AcDbCircle
 10
-75.29677249999997
 20
50.5480294
 40
0.5
100
AcDbArc
 50
80
 51
170
  0
ARC
  5
82
100
AcDbEntity
  8
0
  6
ByLayer
 62
  256
370
   -1
100
AcDbCircle
 10
-62.49427179999998
 20
48.2906031
 40
0.5
100
AcDbArc
 50
350
 51
80
  0
ARC
  5
83
100
AcDbEntity
  8
0
  6
ByLayer
 62
  256
370
   -1
100
AcDbCircle
 10
-77.55419879999998
 20
37.74552870000001
 40
0.5
100
AcDbArc
 50
170
 51
260
  0
ARC
  5
84
100
AcDbEntity
  8
0
  6
ByLayer
 62
  256
370
   -1
100
AcDbCircle
 10
-64.75169809999998
 20
35.4881024
 40
0.5
100
AcDbArc
 50
260
 51
350
  0
LINE
  5
85
100
AcDbEntity
  8
0
  6
ByLayer
 62
  256
370
   -1
100
AcDbLine
 10
-37.68877309999999
 20
44.4244377
 11
-24.88627229999999
 21
42.16701140000001
  0
LINE
  5
86
100
AcDbEntity
  8
0
  6
ByLayer
 62
  256
370
   -1
100
AcDbLine
 10
-40.11984749999999
 20
30.6371292
 11
-27.31734669999999
 21
28.3797029
  0
LINE
  5
87
100
AcDbEntity
  8
0
  6
ByLayer
 62
  256
370
   -1
100
AcDbLine
 10
-38.26800099999998
 20
44.0188579
 11
-40.52542729999999
 21
31.2163571
  0
LINE
  5
88
100
AcDbEntity
  8
0
  6
ByLayer
 62
  256
370
   -1
100
AcDbLine
 10
-24.48069249999999
 20
41.5877835
 11
-26.7381188
 21
28.7852827
  0
ARC
  5
89
100
AcDbEntity
  8
0
  6
ByLayer
 62
  256
370
   -1
100
AcDbCircle
 10
-37.77559709999998
 20
43.9320338
 40
0.5
100
AcDbArc
 50
80
 51
170
  0
ARC
  5
8A
100
AcDbEntity
  8
0
  6
ByLayer
 62
  256
370
   -1
100
AcDbCircle
 10
-24.97309639999999
 20
41.67460750000001
 40
0.5
100
AcDbArc
 50
350
 51
80
  0
ARC
  5
8B
100
AcDbEntity
  8
0
  6
ByLayer
 62
  256
370
   -1
100
AcDbCircle
 10
-40.03302339999999
 20
31.1295331
 40
0.5
100
AcDbArc
 50
170
 51
260
  0
ARC
  5
8C
100
AcDbEntity
  8
0
  6
ByLayer
 62
  256
370
   -1
100
AcDbCircle
 10
-27.23052269999999
 20
28.8721068
 40
0.5
100
AcDbArc
 50
260
 51
350
  0
LINE
  5
8D
100
AcDbEntity
  8
0
  6
ByLayer
 62
  256
370
   -1
100
AcDbLine
 10
-94.79753559999999
 20
49.6582841
 11
-81.99503479999998
 21
47.4008578
  0
LINE
  5
8E
100
AcDbEntity
  8
0
  6
ByLayer
 62
  256
370
   -1
100
AcDbLine
 10
-97.22860999999999
 20
35.87097559999999
 11
-84.42610919999998
 21
33.6135493
  0
LINE
  5
8F
100
AcDbEntity
  8
0
  6
ByLayer
 62
  256
370
   -1
100
AcDbLine
 10
-95.37676349999998
 20
49.2527043
 11
-97.63418979999999
 21
36.4502035
  0
LINE
  5
90
100
AcDbEntity
  8
0
  6
ByLayer
 62
  256
370
   -1
100
AcDbLine
 10
-81.58945499999999
 20
46.8216299
 11
-83.84688129999998
 21
34.0191291
  0
ARC
  5
91
100
AcDbEntity
  8
0
  6
ByLayer
 62
  256
370
   -1
100
AcDbCircle
 10
-94.88435959999998
 20
49.1658802
 40
0.5
100
AcDbArc
 50
80
 51
170
  0
ARC
  5
92
100
AcDbEntity
  8
0
  6
ByLayer
 62
  256
370
   -1
100
AcDbCircle
 10
-82.08185889999999
 20
46.9084539
 40
0.5
100
AcDbArc
 50
350
 51
80
  0
ARC
  5
93
100
AcDbEntity
  8
0
  6
ByLayer
 62
  256
370
   -1
100
AcDbCircle
 10
-97.14178589999999
 20
36.36337950000001
 40
0.5
100
AcDbArc
 50
170
 51
260
  0
ARC
  5
94
100
AcDbEntity
  8
0
  6
ByLayer
 62
  256
370
   -1
100
AcDbCircle
 10
-84.33928519999998
 20
34.1059532
 40
0.5
100
AcDbArc
 50
260
 51
350
  0
LINE
  5
95
100
AcDbEntity
  8
0
  6
ByLayer
 62
  256
370
   -1
100
AcDbLine
 10
-19.75518479999999
 20
36.426293
 11
-6.952683999999991
 21
34.16886670000001
  0
LINE
  5
96
100
AcDbEntity
  8
0
  6
ByLayer
 62
  256
370
   -1
100
AcDbLine
 10
-22.18625919999999
 20
22.63898450000001
 11
-9.383758399999991
 21
20.3815582
  0
LINE
  5
97
100
AcDbEntity
  8
0
  6
ByLayer
 62
  256
370
   -1
100
AcDbLine
 10
-20.33441269999999
 20
36.0207132
 11
-22.59183899999999
 21
23.21821240000001
  0
LINE
  5
98
100
AcDbEntity
  8
0
  6
ByLayer
 62
  256
370
   -1
100
AcDbLine
 10
-6.547104199999993
 20
33.5896388
 11
-8.804530499999984
 21
20.78713800000001
  0
ARC
  5
99
100
AcDbEntity
  8
0
  6
ByLayer
 62
  256
370
   -1
100
AcDbCircle
 10
-19.84200879999999
 20
35.9338891
 40
0.5
100
AcDbArc
 50
80
 51
170
  0
ARC
  5
9A
100
AcDbEntity
  8
0
  6
ByLayer
 62
  256
370
   -1
100
AcDbCircle
 10
-7.039508099999992
 20
33.67646280000001
 40
0.5
100
AcDbArc
 50
350
 51
80
  0
ARC
  5
9B
100
AcDbEntity
  8
0
  6
ByLayer
 62
  256
370
   -1
100
AcDbCircle
 10
-22.09943509999999
 20
23.13138840000001
 40
0.5
100
AcDbArc
 50
170
 51
260
  0
ARC
  5
9C
100
AcDbEntity
  8
0
  6
ByLayer
 62
  256
370
   -1
100
AcDbCircle
 10
-9.296934399999984
 20
20.8739621
 40
0.5
100
AcDbArc
 50
260
 51
350
  0
LINE
  5
9D
100
AcDbEntity
  8
0
  6
ByLayer
 62
  256
370
   -1
100
AcDbLine
 10
-114.3851227
 20
48.276135
 11
-101.5826219
 21
46.0187087
  0
LINE
  5
9E
100
AcDbEntity
  8
0
  6
ByLayer
 62
  256
370
   -1
100
AcDbLine
 10
-116.8161971
 20
34.4888265
 11
-104.0136963
 21
32.23140020000001
  0
LINE
  5
9F
100
AcDbEntity
  8
0
  6
ByLayer
 62
  256
370
   -1
100
AcDbLine
 10
-114.9643506
 20
47.8705552
 11
-117.2217769
 21
35.06805440000001
  0
LINE
  5
A0
100
AcDbEntity
  8
0
  6
ByLayer
 62
  256
370
   -1
100
AcDbLine
 10
-101.1770421
 20
45.4394808
 11
-103.4344684
 21
32.63698000000001
  0
ARC
  5
A1
100
AcDbEntity
  8
0
  6
ByLayer
 62
  256
370
   -1
100
AcDbCircle
 10
-114.4719467
 20
47.7837311
 40
0.5
100
AcDbArc
 50
80
 51
170
  0
ARC
  5
A2
100
AcDbEntity
  8
0
  6
ByLayer
 62
  256
370
   -1
100
AcDbCircle
 10
-101.669446
 20
45.52630480000001
 40
0.5
100
AcDbArc
 50
350
 51
80
  0
ARC
  5
A3
100
AcDbEntity
  8
0
  6
ByLayer
 62
  256
370
   -1
100
AcDbCircle
 10
-116.729373
 20
34.9812304
 40
0.5
100
AcDbArc
 50
170
 51
260
  0
ARC
  5
A4
100
AcDbEntity
  8
0
  6
ByLayer
 62
  256
370
   -1
100
AcDbCircle
 10
-103.9268723
 20
32.72380410000001
 40
0.5
100
AcDbArc
 50
260
 51
350
  0
LINE
  5
A5
100
AcDbEntity
  8
0
  6
ByLayer
 62
  256
370
   -1
100
AcDbLine
 10
-58.93035909999999
 20
33.66199469999999
 11
-46.12785829999999
 21
31.4045684
  0
LINE
  5
A6
100
AcDbEntity
  8
0
  6
ByLayer
 62
  256
370
   -1
100
AcDbLine
 10
-61.36143349999998
 20
19.8746862
 11
-48.55893269999999
 21
17.6172599
  0
LINE
  5
A7
100
AcDbEntity
  8
0
  6
ByLayer
 62
  256
370
   -1
100
AcDbLine
 10
-59.50958699999998
 20
33.2564149
 11
-61.76701329999998
 21
20.45391410000001
  0
LINE
  5
A8
100
AcDbEntity
  8
0
  6
ByLayer
 62
  256
370
   -1
100
AcDbLine
 10
-45.72227849999999
 20
30.8253405
 11
-47.97970479999999
 21
18.02283970000001
  0
ARC
  5
A9
100
AcDbEntity
  8
0
  6
ByLayer
 62
  256
370
   -1
100
AcDbCircle
 10
-59.01718309999998
 20
33.16959079999999
 40
0.5
100
AcDbArc
 50
80
 51
170
  0
ARC
  5
AA
100
AcDbEntity
  8
0
  6
ByLayer
 62
  256
370
   -1
100
AcDbCircle
 10
-46.21468239999999
 20
30.9121645
 40
0.5
100
AcDbArc
 50
350
 51
80
  0
ARC
  5
AB
100
AcDbEntity
  8
0
  6
ByLayer
 62
  256
370
   -1
100
AcDbCircle
 10
-61.27460939999999
 20
20.36709010000001
 40
0.5
100
AcDbArc
 50
170
 51
260
  0
ARC
  5
AC
100
AcDbEntity
  8
0
  6
ByLayer
 62
  256
370
   -1
100
AcDbCircle
 10
-48.47210869999999
 20
18.1096638
 40
0.5
100
AcDbArc
 50
260
 51
350
  0
LINE
  5
AD
100
AcDbEntity
  8
0
  6
ByLayer
 62
  256
370
   -1
100
AcDbLine
 10
-78.51794619999998
 20
32.2798456
 11
-65.71544539999998
 21
30.02241930000001
  0
LINE
  5
AE
100
AcDbEntity
  8
0
  6
ByLayer
 62
  256
370
   -1
100
AcDbLine
 10
-80.94902059999998
 20
18.4925371
 11
-68.14651979999998
 21
16.2351108
  0
LINE
  5
AF
100
AcDbEntity
  8
0
  6
ByLayer
 62
  256
370
   -1
100
AcDbLine
 10
-79.09717409999999
 20
31.8742658
 11
-81.35460039999998
 21
19.07176500000001
  0
LINE
  5
B0
100
AcDbEntity
  8
0
  6
ByLayer
 62
  256
370
   -1
100
AcDbLine
 10
-65.30986559999998
 20
29.4431914
 11
-67.56729189999999
 21
16.64069060000001
  0
ARC
  5
B1
100
AcDbEntity
  8
0
  6
ByLayer
 62
  256
370
   -1
100
AcDbCircle
 10
-78.60477019999999
 20
31.7874417
 40
0.5
100
AcDbArc
 50
80
 51
170
  0
ARC
  5
B2
100
AcDbEntity
  8
0
  6
ByLayer
 62
  256
370
   -1
100
AcDbCircle
 10
-65.80226949999998
 20
29.53001540000001
 40
0.5
100
AcDbArc
 50
350
 51
80
  0
ARC
  5
B3
100
AcDbEntity
  8
0
  6
ByLayer
 62
  256
370
   -1
100
AcDbCircle
 10
-80.86219649999998
 20
18.98494100000001
 40
0.5
100
AcDbArc
 50
170
 51
260
  0
ARC
  5
B4
100
AcDbEntity
  8
0
  6
ByLayer
 62
  256
370
   -1
100
AcDbCircle
 10
-68.05969579999999
 20
16.7275147
 40
0.5
100
AcDbArc
 50
260
 51
350
  0
LINE
  5
B5
100
AcDbEntity
  8
0
  6
ByLayer
 62
  256
370
   -1
100
AcDbLine
 10
-40.99677079999999
 20
25.66385000000001
 11
-28.19426999999999
 21
23.4064237
  0
LINE
  5
B6
100
AcDbEntity
  8
0
  6
ByLayer
 62
  256
370
   -1
100
AcDbLine
 10
-43.42784519999999
 20
11.8765415
 11
-30.62534439999999
 21
9.619115200000003
  0
LINE
  5
B7
100
AcDbEntity
  8
0
  6
ByLayer
 62
  256
370
   -1
100
AcDbLine
 10
-41.57599869999999
 20
25.25827020000001
 11
-43.83342499999999
 21
12.4557694
  0
LINE
  5
B8
100
AcDbEntity
  8
0
  6
ByLayer
 62
  256
370
   -1
100
AcDbLine
 10
-27.78869019999999
 20
22.82719580000001
 11
-30.04611649999998
 21
10.024695
  0
ARC
  5
B9
100
AcDbEntity
  8
0
  6
ByLayer
 62
  256
370
   -1
100
AcDbCircle
 10
-41.08359479999999
 20
25.17144610000001
 40
0.5
100
AcDbArc
 50
80
 51
170
  0
ARC
  5
BA
100
AcDbEntity
  8
0
  6
ByLayer
 62
  256
370
   -1
100
AcDbCircle
 10
-28.28109409999999
 20
22.91401980000001
 40
0.5
100
AcDbArc
 50
350
 51
80
  0
ARC
  5
BB
100
AcDbEntity
  8
0
  6
ByLayer
 62
  256
370
   -1
100
AcDbCircle
 10
-43.34102109999999
 20
12.3689454
 40
0.5
100
AcDbArc
 50
170
 51
260
  0
ARC
  5
BC
100
AcDbEntity
  8
0
  6
ByLayer
 62
  256
370
   -1
100
AcDbCircle
 10
-30.53852039999998
 20
10.1115191
 40
0.5
100
AcDbArc
 50
260
 51
350
  0
LINE
  5
BD
100
AcDbEntity
  8
0
  6
ByLayer
 62
  256
370
   -1
100
AcDbLine
 10
-98.10553339999998
 20
30.8976964
 11
-85.30303259999998
 21
28.6402701
  0
LINE
  5
BE
100
AcDbEntity
  8
0
  6
ByLayer
 62
  256
370
   -1
100
AcDbLine
 10
-100.5366078
 20
17.11038790000001
 11
-87.73410699999998
 21
14.8529616
  0
LINE
  5
BF
100
AcDbEntity
  8
0
  6
ByLayer
 62
  256
370
   -1
100
AcDbLine
 10
-98.68476129999999
 20
30.4921166
 11
-100.9421876
 21
17.68961580000001
  0
LINE
  5
C0
100
AcDbEntity
  8
0
  6
ByLayer
 62
  256
370
   -1
100
AcDbLine
 10
-84.89745279999998
 20
28.0610422
 11
-87.15487909999999
 21
15.25854140000001
  0
ARC
  5
C1
100
AcDbEntity
  8
0
  6
ByLayer
 62
  256
370
   -1
100
AcDbCircle
 10
-98.19235739999999
 20
30.4052925
 40
0.5
100
AcDbArc
 50
80
 51
170
  0
ARC
  5
C2
100
AcDbEntity
  8
0
  6
ByLayer
 62
  256
370
   -1
100
AcDbCircle
 10
-85.38985669999998
 20
28.1478662
 40
0.5
100
AcDbArc
 50
350
 51
80
  0
ARC
  5
C3
100
AcDbEntity
  8
0
  6
ByLayer
 62
  256
370
   -1
100
AcDbCircle
 10
-100.4497837
 20
17.60279180000001
 40
0.5
100
AcDbArc
 50
170
 51
260
  0
ARC
  5
C4
100
AcDbEntity
  8
0
  6
ByLayer
 62
  256
370
   -1
100
AcDbCircle
 10
-87.64728299999999
 20
15.3453655
 40
0.5
100
AcDbArc
 50
260
 51
350
  0
LINE
  5
C5
100
AcDbEntity
  8
0
  6
ByLayer
 62
  256
370
   -1
100
AcDbLine
 10
-23.06318259999999
 20
17.66570530000001
 11
-10.26068179999999
 21
15.408279
  0
LINE
  5
C6
100
AcDbEntity
  8
0
  6
ByLayer
 62
  256
370
   -1
100
AcDbLine
 10
-25.49425699999999
 20
3.878396800000004
 11
-12.69175619999999
 21
1.620970499999999
  0
LINE
  5
C7
100
AcDbEntity
  8
0
  6
ByLayer
 62
  256
370
   -1
100
AcDbLine
 10
-23.64241049999998
 20
17.2601255
 11
-25.89983679999999
 21
4.457624700000004
  0
LINE
  5
C8
100
AcDbEntity
  8
0
  6
ByLayer
 62
  256
370
   -1
100
AcDbLine
 10
-9.855101999999988
 20
14.8290511
 11
-12.11252829999999
 21
2.026550299999997
  0
ARC
  5
C9
100
AcDbEntity
  8
0
  6
ByLayer
 62
  256
370
   -1
100
AcDbCircle
 10
-23.15000659999998
 20
17.1733014
 40
0.5
100
AcDbArc
 50
80
 51
170
  0
ARC
  5
CA
100
AcDbEntity
  8
0
  6
ByLayer
 62
  256
370
   -1
100
AcDbCircle
 10
-10.34750589999999
 20
14.9158751
 40
0.5
100
AcDbArc
 50
350
 51
80
  0
ARC
  5
CB
100
AcDbEntity
  8
0
  6
ByLayer
 62
  256
370
   -1
100
AcDbCircle
 10
-25.40743289999999
 20
4.370800700000004
 40
0.5
100
AcDbArc
 50
170
 51
260
  0
ARC
  5
CC
100
AcDbEntity
  8
0
  6
ByLayer
 62
  256
370
   -1
100
AcDbCircle
 10
-12.60493219999999
 20
2.113374399999998
 40
0.5
100
AcDbArc
 50
260
 51
350
  0
LINE
  5
CD
100
AcDbEntity
  8
0
  6
ByLayer
 62
  256
370
   -1
100
AcDbLine
 10
-117.6931205
 20
29.51554729999999
 11
-104.8906197
 21
27.258121
  0
LINE
  5
CE
100
AcDbEntity
  8
0
  6
ByLayer
 62
  256
370
   -1
100
AcDbLine
 10
-120.1241949
 20
15.7282388
 11
-107.3216941
 21
13.4708125
  0
LINE
  5
CF
100
AcDbEntity
  8
0
  6
ByLayer
 62
  256
370
   -1
100
AcDbLine
 10
-118.2723484
 20
29.1099675
 11
-120.5297747
 21
16.30746670000001
  0
LINE
  5
D0
100
AcDbEntity
  8
0
  6
ByLayer
 62
  256
370
   -1
100
AcDbLine
 10
-104.4850399
 20
26.6788931
 11
-106.7424662
 21
13.87639230000001
  0
ARC
  5
D1
100
AcDbEntity
  8
0
  6
ByLayer
 62
  256
370
   -1
100
AcDbCircle
 10
-117.7799445
 20
29.0231434
 40
0.5
100
AcDbArc
 50
80
 51
170
  0
ARC
  5
D2
100
AcDbEntity
  8
0
  6
ByLayer
 62
  256
370
   -1
100
AcDbCircle
 10
-104.9774438
 20
26.7657171
 40
0.5
100
AcDbArc
 50
350
 51
80
  0
ARC
  5
D3
100
AcDbEntity
  8
0
  6
ByLayer
 62
  256
370
   -1
100
AcDbCircle
 10
-120.0373708
 20
16.22064270000001
 40
0.5
100
AcDbArc
 50
170
 51
260
  0
ARC
  5
D4
100
AcDbEntity
  8
0
  6
ByLayer
 62
  256
370
   -1
100
AcDbCircle
 10
-107.2348701
 20
13.9632164
 40
0.5
100
AcDbArc
 50
260
 51
350
  0
LINE
  5
D5
100
AcDbEntity
  8
0
  6
ByLayer
 62
  256
370
   -1
100
AcDbLine
 10
-62.23835689999998
 20
14.90140700000001
 11
-49.4358561
 21
12.6439807
  0
LINE
  5
D6
100
AcDbEntity
  8
0
  6
ByLayer
 62
  256
370
   -1
100
AcDbLine
 10
-64.66943129999999
 20
1.114098499999997
 11
-51.8669305
 21
-1.143327799999994
  0
LINE
  5
D7
100
AcDbEntity
  8
0
  6
ByLayer
 62
  256
370
   -1
100
AcDbLine
 10
-62.81758479999998
 20
14.4958272
 11
-65.07501109999998
 21
1.693326400000004
  0
LINE
  5
D8
100
AcDbEntity
  8
0
  6
ByLayer
 62
  256
370
   -1
100
AcDbLine
 10
-49.03027629999998
 20
12.0647528
 11
-51.28770259999999
 21
-0.7377479999999963
  0
ARC
  5
D9
100
AcDbEntity
  8
0
  6
ByLayer
 62
  256
370
   -1
100
AcDbCircle
 10
-62.32518089999998
 20
14.4090031
 40
0.5
100
AcDbArc
 50
80
 51
170
  0
ARC
  5
DA
100
AcDbEntity
  8
0
  6
ByLayer
 62
  256
370
   -1
100
AcDbCircle
 10
-49.52268019999998
 20
12.1515768
 40
0.5
100
AcDbArc
 50
350
 51
80
  0
ARC
  5
DB
100
AcDbEntity
  8
0
  6
ByLayer
 62
  256
370
   -1
100
AcDbCircle
 10
-64.58260719999998
 20
1.606502399999997
 40
0.5
100
AcDbArc
 50
170
 51
260
  0
ARC
  5
DC
100
AcDbEntity
  8
0
  6
ByLayer
 62
  256
370
   -1
100
AcDbCircle
 10
-51.78010649999999
 20
-0.6509238999999951
 40
0.5
100
AcDbArc
 50
260
 51
350
  0
LINE
  5
DD
100
AcDbEntity
  8
0
  6
ByLayer
 62
  256
370
   -1
100
AcDbLine
 10
-81.82594399999998
 20
13.5192579
 11
-69.02344319999997
 21
11.2618316
  0
LINE
  5
DE
100
AcDbEntity
  8
0
  6
ByLayer
 62
  256
370
   -1
100
AcDbLine
 10
-84.25701839999998
 20
-0.2680505999999951
 11
-71.45451759999997
 21
-2.525476900000001
  0
LINE
  5
DF
100
AcDbEntity
  8
0
  6
ByLayer
 62
  256
370
   -1
100
AcDbLine
 10
-82.40517189999998
 20
13.1136781
 11
-84.66259819999999
 21
0.3111772999999971
  0
LINE
  5
E0
100
AcDbEntity
  8
0
  6
ByLayer
 62
  256
370
   -1
100
AcDbLine
 10
-68.61786339999998
 20
10.6826037
 11
-70.87528969999998
 21
-2.119897100000003
  0
ARC
  5
E1
100
AcDbEntity
  8
0
  6
ByLayer
 62
  256
370
   -1
100
AcDbCircle
 10
-81.91276799999997
 20
13.026854
 40
0.5
100
AcDbArc
 50
80
 51
170
  0
ARC
  5
E2
100
AcDbEntity
  8
0
  6
ByLayer
 62
  256
370
   -1
100
AcDbCircle
 10
-69.11026729999998
 20
10.7694277
 40
0.5
100
AcDbArc
 50
350
 51
80
  0
ARC
  5
E3
100
AcDbEntity
  8
0
  6
ByLayer
 62
  256
370
   -1
100
AcDbCircle
 10
-84.17019429999999
 20
0.2243533000000042
 40
0.5
100
AcDbArc
 50
170
 51
260
  0
ARC
  5
E4
100
AcDbEntity
  8
0
  6
ByLayer
 62
  256
370
   -1
100
AcDbCircle
 10
-71.36769359999998
 20
-2.033073000000002
 40
0.5
100
AcDbArc
 50
260
 51
350
  0
LINE
  5
E5
100
AcDbEntity
  8
0
  6
ByLayer
 62
  256
370
   -1
100
AcDbLine
 10
-44.30476859999999
 20
6.903262300000002
 11
-31.50226779999998
 21
4.645836000000003
  0
LINE
  5
E6
100
AcDbEntity
  8
0
  6
ByLayer
 62
  256
370
   -1
100
AcDbLine
 10
-46.73584299999999
 20
-6.8840462
 11
-33.93334219999998
 21
-9.141472499999992
  0
LINE
  5
E7
100
AcDbEntity
  8
0
  6
ByLayer
 62
  256
370
   -1
100
AcDbLine
 10
-44.88399649999999
 20
6.497682500000003
 11
-47.14142279999999
 21
-6.304818299999994
  0
LINE
  5
E8
100
AcDbEntity
  8
0
  6
ByLayer
 62
  256
370
   -1
100
AcDbLine
 10
-31.09668799999999
 20
4.066608100000003
 11
-33.35411429999999
 21
-8.735892699999994
  0
ARC
  5
E9
100
AcDbEntity
  8
0
  6
ByLayer
 62
  256
370
   -1
100
AcDbCircle
 10
-44.3915926
 20
6.410858400000002
 40
0.5
100
AcDbArc
 50
80
 51
170
  0
ARC
  5
EA
100
AcDbEntity
  8
0
  6
ByLayer
 62
  256
370
   -1
100
AcDbCircle
 10
-31.58909189999999
 20
4.153432100000003
 40
0.5
100
AcDbArc
 50
350
 51
80
  0
ARC
  5
EB
100
AcDbEntity
  8
0
  6
ByLayer
 62
  256
370
   -1
100
AcDbCircle
 10
-46.64901889999999
 20
-6.391642300000001
 40
0.5
100
AcDbArc
 50
170
 51
260
  0
ARC
  5
EC
100
AcDbEntity
  8
0
  6
ByLayer
 62
  256
370
   -1
100
AcDbCircle
 10
-33.84651819999999
 20
-8.649068599999993
 40
0.5
100
AcDbArc
 50
260
 51
350
  0
LINE
  5
ED
100
AcDbEntity
  8
0
  6
ByLayer
 62
  256
370
   -1
100
AcDbLine
 10
-101.4135312
 20
12.13710870000001
 11
-88.61103039999998
 21
9.8796824
  0
LINE
  5
EE
100
AcDbEntity
  8
0
  6
ByLayer
 62
  256
370
   -1
100
AcDbLine
 10
-103.8446056
 20
-1.650199799999996
 11
-91.04210479999998
 21
-3.907626100000002
  0
LINE
  5
EF
100
AcDbEntity
  8
0
  6
ByLayer
 62
  256
370
   -1
100
AcDbLine
 10
-101.9927591
 20
11.7315289
 11
-104.2501854
 21
-1.070971900000004
  0
LINE
  5
F0
100
AcDbEntity
  8
0
  6
ByLayer
 62
  256
370
   -1
100
AcDbLine
 10
-88.20545059999998
 20
9.300454500000001
 11
-90.46287689999998
 21
-3.502046300000003
  0
ARC
  5
F1
100
AcDbEntity
  8
0
  6
ByLayer
 62
  256
370
   -1
100
AcDbCircle
 10
-101.5003552
 20
11.6447048
 40
0.5
100
AcDbArc
 50
80
 51
170
  0
ARC
  5
F2
100
AcDbEntity
  8
0
  6
ByLayer
 62
  256
370
   -1
100
AcDbCircle
 10
-88.69785449999998
 20
9.387278500000001
 40
0.5
100
AcDbArc
 50
350
 51
80
  0
ARC
  5
F3
100
AcDbEntity
  8
0
  6
ByLayer
 62
  256
370
   -1
100
AcDbCircle
 10
-103.7577815
 20
-1.157795899999996
 40
0.5
100
AcDbArc
 50
170
 51
260
  0
ARC
  5
F4
100
AcDbEntity
  8
0
  6
ByLayer
 62
  256
370
   -1
100
AcDbCircle
 10
-90.95528079999998
 20
-3.415222200000002
 40
0.5
100
AcDbArc
 50
260
 51
350
  0
LINE
  5
F5
100
AcDbEntity
  8
0
  6
ByLayer
 62
  256
370
   -1
100
AcDbLine
 10
-26.37118039999999
 20
-1.094882400000003
 11
-13.56867959999998
 21
-3.352308699999995
  0
LINE
  5
F6
100
AcDbEntity
  8
0
  6
ByLayer
 62
  256
370
   -1
100
AcDbLine
 10
-28.80225479999999
 20
-14.8821909
 11
-15.99975399999998
 21
-17.1396172
  0
LINE
  5
F7
100
AcDbEntity
  8
0
  6
ByLayer
 62
  256
370
   -1
100
AcDbLine
 10
-26.95040829999999
 20
-1.500462200000001
 11
-29.20783459999998
 21
-14.30296299999999
  0
LINE
  5
F8
100
AcDbEntity
  8
0
  6
ByLayer
 62
  256
370
   -1
100
AcDbLine
 10
-13.16309979999998
 20
-3.931536600000001
 11
-15.42052609999999
 21
-16.73403739999999
  0
ARC
  5
F9
100
AcDbEntity
  8
0
  6
ByLayer
 62
  256
370
   -1
100
AcDbCircle
 10
-26.45800439999999
 20
-1.587286300000002
 40
0.5
100
AcDbArc
 50
80
 51
170
  0
ARC
  5
FA
100
AcDbEntity
  8
0
  6
ByLayer
 62
  256
370
   -1
100
AcDbCircle
 10
-13.65550369999998
 20
-3.844712599999994
 40
0.5
100
AcDbArc
 50
350
 51
80
  0
ARC
  5
FB
100
AcDbEntity
  8
0
  6
ByLayer
 62
  256
370
   -1
100
AcDbCircle
 10
-28.71543069999998
 20
-14.389787
 40
0.5
100
AcDbArc
 50
170
 51
260
  0
ARC
  5
FC
100
AcDbEntity
  8
0
  6
ByLayer
 62
  256
370
   -1
100
AcDbCircle
 10
-15.91292999999999
 20
-16.6472133
 40
0.5
100
AcDbArc
 50
260
 51
350
  0
LINE
  5
FD
100
AcDbEntity
  8
0
  6
ByLayer
 62
  256
370
   -1
100
AcDbLine
 10
-121.0011183
 20
10.7549596
 11
-108.1986175
 21
8.497533300000001
  0
LINE
  5
FE
100
AcDbEntity
  8
0
  6
ByLayer
 62
  256
370
   -1
100
AcDbLine
 10
-123.4321927
 20
-3.032348900000002
 11
-110.6296919
 21
-5.289775199999994
  0
LINE
  5
FF
100
AcDbEntity
  8
0
  6
ByLayer
 62
  256
370
   -1
100
AcDbLine
 10
-121.5803462
 20
10.3493798
 11
-123.8377725
 21
-2.453120999999996
  0
LINE
  5
100
100
AcDbEntity
  8
0
  6
ByLayer
 62
  256
370
   -1
100
AcDbLine
 10
-107.7930377
 20
7.918305400000001
 11
-110.050464
 21
-4.884195399999996
  0
ARC
  5
101
100
AcDbEntity
  8
0
  6
ByLayer
 62
  256
370
   -1
100
AcDbCircle
 10
-121.0879423
 20
10.2625557
 40
0.5
100
AcDbArc
 50
80
 51
170
  0
ARC
  5
102
100
AcDbEntity
  8
0
  6
ByLayer
 62
  256
370
   -1
100
AcDbCircle
 10
-108.2854416
 20
8.005129400000001
 40
0.5
100
AcDbArc
 50
350
 51
80
  0
ARC
  5
103
100
AcDbEntity
  8
0
  6
ByLayer
 62
  256
370
   -1
100
AcDbCircle
 10
-123.3453686
 20
-2.539945000000003
 40
0.5
100
AcDbArc
 50
170
 51
260
  0
ARC
  5
104
100
AcDbEntity
  8
0
  6
ByLayer
 62
  256
370
   -1
100
AcDbCircle
 10
-110.5428679
 20
-4.797371299999995
 40
0.5
100
AcDbArc
 50
260
 51
350
  0
LINE
  5
105
100
AcDbEntity
  8
0
  6
ByLayer
 62
  256
370
   -1
100
AcDbLine
 10
-44.57661839999999
 20
-22.0646187
 11
-31.77411759999998
 21
-24.322045
  0
LINE
  5
106
100
AcDbEntity
  8
0
  6
ByLayer
 62
  256
370
   -1
100
AcDbLine
 10
-47.00769279999999
 20
-35.85192719999999
 11
-34.20519199999998
 21
-38.1093535
  0
LINE
  5
107
100
AcDbEntity
  8
0
  6
ByLayer
 62
  256
370
   -1
100
AcDbLine
 10
-45.15584629999999
 20
-22.4701985
 11
-47.41327259999998
 21
-35.2726993
  0
LINE
  5
108
100
AcDbEntity
  8
0
  6
ByLayer
 62
  256
370
   -1
100
AcDbLine
 10
-31.36853779999998
 20
-24.9012729
 11
-33.62596409999999
 21
-37.7037737
  0
ARC
  5
109
100
AcDbEntity
  8
0
  6
ByLayer
 62
  256
370
   -1
100
AcDbCircle
 10
-44.66344239999999
 20
-22.5570226
 40
0.5
100
AcDbArc
 50
80
 51
170
  0
ARC
  5
10A
100
AcDbEntity
  8
0
  6
ByLayer
 62
  256
370
   -1
100
AcDbCircle
 10
-31.86094169999998
 20
-24.8144489
 40
0.5
100
AcDbArc
 50
350
 51
80
  0
ARC
  5
10B
100
AcDbEntity
  8
0
  6
ByLayer
 62
  256
370
   -1
100
AcDbCircle
 10
-46.92086869999999
 20
-35.35952329999999
 40
0.5
100
AcDbArc
 50
170
 51
260
  0
ARC
  5
10C
100
AcDbEntity
  8
0
  6
ByLayer
 62
  256
370
   -1
100
AcDbCircle
 10
-34.11836799999999
 20
-37.6169496
 40
0.5
100
AcDbArc
 50
260
 51
350
  0
LINE
  5
10D
100
AcDbEntity
  8
0
  6
ByLayer
 62
  256
370
   -1
100
AcDbLine
 10
42.81986050000002
 20
50.1651561
 11
55.62236130000004
 21
52.4225824
  0
LINE
  5
10E
100
AcDbEntity
  8
0
  6
ByLayer
 62
  256
370
   -1
100
AcDbLine
 10
45.25093490000002
 20
36.37784760000001
 11
58.05343570000004
 21
38.6352739
  0
LINE
  5
10F
100
AcDbEntity
  8
0
  6
ByLayer
 62
  256
370
   -1
100
AcDbLine
 10
42.41428070000002
 20
49.5859282
 11
44.67170700000001
 21
36.78342740000001
  0
LINE
  5
110
100
AcDbEntity
  8
0
  6
ByLayer
 62
  256
370
   -1
100
AcDbLine
 10
56.20158920000002
 20
52.0170026
 11
58.45901550000004
 21
39.21450180000001
  0
ARC
  5
111
100
AcDbEntity
  8
0
  6
ByLayer
 62
  256
370
   -1
100
AcDbCircle
 10
42.90668460000002
 20
49.67275220000001
 40
0.5
100
AcDbArc
 50
100
 51
190
  0
ARC
  5
112
100
AcDbEntity
  8
0
  6
ByLayer
 62
  256
370
   -1
100
AcDbCircle
 10
55.70918530000002
 20
51.9301785
 40
0.5
100
AcDbArc
 50
10
 51
100
  0
ARC
  5
113
100
AcDbEntity
  8
0
  6
ByLayer
 62
  256
370
   -1
100
AcDbCircle
 10
45.16411090000001
 20
36.87025150000001
 40
0.5
100
AcDbArc
 50
190
 51
280
  0
ARC
  5
114
100
AcDbEntity
  8
0
  6
ByLayer
 62
  256
370
   -1
100
AcDbCircle
 10
57.96661160000004
 20
39.1276778
 40
0.5
100
AcDbArc
 50
280
 51
10
  0
LINE
  5
115
100
AcDbEntity
  8
0
  6
ByLayer
 62
  256
370
   -1
100
AcDbLine
 10
24.88627230000002
 20
42.16701140000001
 11
37.68877310000003
 21
44.4244377
  0
LINE
  5
116
100
AcDbEntity
  8
0
  6
ByLayer
 62
  256
370
   -1
100
AcDbLine
 10
27.31734670000002
 20
28.3797029
 11
40.11984750000003
 21
30.6371292
  0
LINE
  5
117
100
AcDbEntity
  8
0
  6
ByLayer
 62
  256
370
   -1
100
AcDbLine
 10
24.48069250000002
 20
41.5877835
 11
26.73811880000004
 21
28.7852827
  0
LINE
  5
118
100
AcDbEntity
  8
0
  6
ByLayer
 62
  256
370
   -1
100
AcDbLine
 10
38.26800100000001
 20
44.0188579
 11
40.52542730000003
 21
31.2163571
  0
ARC
  5
119
100
AcDbEntity
  8
0
  6
ByLayer
 62
  256
370
   -1
100
AcDbCircle
 10
24.97309640000002
 20
41.67460750000001
 40
0.5
100
AcDbArc
 50
100
 51
190
  0
ARC
  5
11A
100
AcDbEntity
  8
0
  6
ByLayer
 62
  256
370
   -1
100
AcDbCircle
 10
37.77559710000001
 20
43.9320338
 40
0.5
100
AcDbArc
 50
10
 51
100
  0
ARC
  5
11B
100
AcDbEntity
  8
0
  6
ByLayer
 62
  256
370
   -1
100
AcDbCircle
 10
27.23052270000004
 20
28.8721068
 40
0.5
100
AcDbArc
 50
190
 51
280
  0
ARC
  5
11C
100
AcDbEntity
  8
0
  6
ByLayer
 62
  256
370
   -1
100
AcDbCircle
 10
40.03302340000003
 20
31.1295331
 40
0.5
100
AcDbArc
 50
280
 51
10
  0
LINE
  5
11D
100
AcDbEntity
  8
0
  6
ByLayer
 62
  256
370
   -1
100
AcDbLine
 10
62.40744770000002
 20
48.783007
 11
75.20994850000004
 21
51.0404333
  0
LINE
  5
11E
100
AcDbEntity
  8
0
  6
ByLayer
 62
  256
370
   -1
100
AcDbLine
 10
64.83852210000002
 20
34.9956985
 11
77.64102290000004
 21
37.25312480000001
  0
LINE
  5
11F
100
AcDbEntity
  8
0
  6
ByLayer
 62
  256
370
   -1
100
AcDbLine
 10
62.00186790000002
 20
48.20377910000001
 11
64.25929420000001
 21
35.4012783
  0
LINE
  5
120
100
AcDbEntity
  8
0
  6
ByLayer
 62
  256
370
   -1
100
AcDbLine
 10
75.78917640000002
 20
50.63485350000001
 11
78.04660270000004
 21
37.8323527
  0
ARC
  5
121
100
AcDbEntity
  8
0
  6
ByLayer
 62
  256
370
   -1
100
AcDbCircle
 10
62.49427180000002
 20
48.2906031
 40
0.5
100
AcDbArc
 50
100
 51
190
  0
ARC
  5
122
100
AcDbEntity
  8
0
  6
ByLayer
 62
  256
370
   -1
100
AcDbCircle
 10
75.29677250000002
 20
50.5480294
 40
0.5
100
AcDbArc
 50
10
 51
100
  0
ARC
  5
123
100
AcDbEntity
  8
0
  6
ByLayer
 62
  256
370
   -1
100
AcDbCircle
 10
64.75169810000001
 20
35.4881024
 40
0.5
100
AcDbArc
 50
190
 51
280
  0
ARC
  5
124
100
AcDbEntity
  8
0
  6
ByLayer
 62
  256
370
   -1
100
AcDbCircle
 10
77.55419880000004
 20
37.74552870000001
 40
0.5
100
AcDbArc
 50
280
 51
10
  0
LINE
  5
125
100
AcDbEntity
  8
0
  6
ByLayer
 62
  256
370
   -1
100
AcDbLine
 10
6.952684000000019
 20
34.16886670000001
 11
19.75518480000004
 21
36.426293
  0
LINE
  5
126
100
AcDbEntity
  8
0
  6
ByLayer
 62
  256
370
   -1
100
AcDbLine
 10
9.383758400000019
 20
20.3815582
 11
22.18625920000004
 21
22.63898450000001
  0
LINE
  5
127
100
AcDbEntity
  8
0
  6
ByLayer
 62
  256
370
   -1
100
AcDbLine
 10
6.547104200000021
 20
33.5896388
 11
8.804530500000013
 21
20.78713800000001
  0
LINE
  5
128
100
AcDbEntity
  8
0
  6
ByLayer
 62
  256
370
   -1
100
AcDbLine
 10
20.33441270000002
 20
36.0207132
 11
22.59183900000004
 21
23.21821240000001
  0
ARC
  5
129
100
AcDbEntity
  8
0
  6
ByLayer
 62
  256
370
   -1
100
AcDbCircle
 10
7.03950810000002
 20
33.67646280000001
 40
0.5
100
AcDbArc
 50
100
 51
190
  0
ARC
  5
12A
100
AcDbEntity
  8
0
  6
ByLayer
 62
  256
370
   -1
100
AcDbCircle
 10
19.84200880000002
 20
35.9338891
 40
0.5
100
AcDbArc
 50
10
 51
100
  0
ARC
  5
12B
100
AcDbEntity
  8
0
  6
ByLayer
 62
  256
370
   -1
100
AcDbCircle
 10
9.296934400000012
 20
20.8739621
 40
0.5
100
AcDbArc
 50
190
 51
280
  0
ARC
  5
12C
100
AcDbEntity
  8
0
  6
ByLayer
 62
  256
370
   -1
100
AcDbCircle
 10
22.09943510000004
 20
23.13138840000001
 40
0.5
100
AcDbArc
 50
280
 51
10
  0
LINE
  5
12D
100
AcDbEntity
  8
0
  6
ByLayer
 62
  256
370
   -1
100
AcDbLine
 10
81.99503480000003
 20
47.4008578
 11
94.79753560000002
 21
49.6582841
  0
LINE
  5
12E
100
AcDbEntity
  8
0
  6
ByLayer
 62
  256
370
   -1
100
AcDbLine
 10
84.42610920000003
 20
33.6135493
 11
97.22861000000002
 21
35.87097559999999
  0
LINE
  5
12F
100
AcDbEntity
  8
0
  6
ByLayer
 62
  256
370
   -1
100
AcDbLine
 10
81.58945500000003
 20
46.8216299
 11
83.84688130000002
 21
34.0191291
  0
LINE
  5
130
100
AcDbEntity
  8
0
  6
ByLayer
 62
  256
370
   -1
100
AcDbLine
 10
95.37676350000002
 20
49.2527043
 11
97.63418980000002
 21
36.4502035
  0
ARC
  5
131
100
AcDbEntity
  8
0
  6
ByLayer
 62
  256
370
   -1
100
AcDbCircle
 10
82.08185890000003
 20
46.9084539
 40
0.5
100
AcDbArc
 50
100
 51
190
  0
ARC
  5
132
100
AcDbEntity
  8
0
  6
ByLayer
 62
  256
370
   -1
100
AcDbCircle
 10
94.88435960000002
 20
49.1658802
 40
0.5
100
AcDbArc
 50
10
 51
100
  0
ARC
  5
133
100
AcDbEntity
  8
0
  6
ByLayer
 62
  256
370
   -1
100
AcDbCircle
 10
84.33928520000002
 20
34.1059532
 40
0.5
100
AcDbArc
 50
190
 51
280
  0
ARC
  5
134
100
AcDbEntity
  8
0
  6
ByLayer
 62
  256
370
   -1
100
AcDbCircle
 10
97.14178590000002
 20
36.36337950000001
 40
0.5
100
AcDbArc
 50
280
 51
10
  0
LINE
  5
135
100
AcDbEntity
  8
0
  6
ByLayer
 62
  256
370
   -1
100
AcDbLine
 10
101.5826219
 20
46.0187087
 11
114.3851227
 21
48.276135
  0
LINE
  5
136
100
AcDbEntity
  8
0
  6
ByLayer
 62
  256
370
   -1
100
AcDbLine
 10
104.0136963
 20
32.23140020000001
 11
116.8161971
 21
34.4888265
  0
LINE
  5
137
100
AcDbEntity
  8
0
  6
ByLayer
 62
  256
370
   -1
100
AcDbLine
 10
101.1770421
 20
45.4394808
 11
103.4344684
 21
32.63698000000001
  0
LINE
  5
138
100
AcDbEntity
  8
0
  6
ByLayer
 62
  256
370
   -1
100
AcDbLine
 10
114.9643506
 20
47.8705552
 11
117.2217769
 21
35.06805440000001
  0
ARC
  5
139
100
AcDbEntity
  8
0
  6
ByLayer
 62
  256
370
   -1
100
AcDbCircle
 10
101.669446
 20
45.52630480000001
 40
0.5
100
AcDbArc
 50
100
 51
190
  0
ARC
  5
13A
100
AcDbEntity
  8
0
  6
ByLayer
 62
  256
370
   -1
100
AcDbCircle
 10
114.4719467
 20
47.7837311
 40
0.5
100
AcDbArc
 50
10
 51
100
  0
ARC
  5
13B
100
AcDbEntity
  8
0
  6
ByLayer
 62
  256
370
   -1
100
AcDbCircle
 10
103.9268723
 20
32.72380410000001
 40
0.5
100
AcDbArc
 50
190
 51
280
  0
ARC
  5
13C
100
AcDbEntity
  8
0
  6
ByLayer
 62
  256
370
   -1
100
AcDbCircle
 10
116.729373
 20
34.9812304
 40
0.5
100
AcDbArc
 50
280
 51
10
  0
LINE
  5
13D
100
AcDbEntity
  8
0
  6
ByLayer
 62
  256
370
   -1
100
AcDbLine
 10
46.12785830000003
 20
31.4045684
 11
58.93035910000002
 21
33.66199469999999
  0
LINE
  5
13E
100
AcDbEntity
  8
0
  6
ByLayer
 62
  256
370
   -1
100
AcDbLine
 10
48.55893270000003
 20
17.6172599
 11
61.36143350000002
 21
19.8746862
  0
LINE
  5
13F
100
AcDbEntity
  8
0
  6
ByLayer
 62
  256
370
   -1
100
AcDbLine
 10
45.72227850000003
 20
30.8253405
 11
47.97970480000002
 21
18.02283970000001
  0
LINE
  5
140
100
AcDbEntity
  8
0
  6
ByLayer
 62
  256
370
   -1
100
AcDbLine
 10
59.50958700000002
 20
33.2564149
 11
61.76701330000002
 21
20.45391410000001
  0
ARC
  5
141
100
AcDbEntity
  8
0
  6
ByLayer
 62
  256
370
   -1
100
AcDbCircle
 10
46.21468240000003
 20
30.9121645
 40
0.5
100
AcDbArc
 50
100
 51
190
  0
ARC
  5
142
100
AcDbEntity
  8
0
  6
ByLayer
 62
  256
370
   -1
100
AcDbCircle
 10
59.01718310000003
 20
33.16959079999999
 40
0.5
100
AcDbArc
 50
10
 51
100
  0
ARC
  5
143
100
AcDbEntity
  8
0
  6
ByLayer
 62
  256
370
   -1
100
AcDbCircle
 10
48.47210870000002
 20
18.1096638
 40
0.5
100
AcDbArc
 50
190
 51
280
  0
ARC
  5
144
100
AcDbEntity
  8
0
  6
ByLayer
 62
  256
370
   -1
100
AcDbCircle
 10
61.27460940000002
 20
20.36709010000001
 40
0.5
100
AcDbArc
 50
280
 51
10
  0
LINE
  5
145
100
AcDbEntity
  8
0
  6
ByLayer
 62
  256
370
   -1
100
AcDbLine
 10
28.19427000000003
 20
23.4064237
 11
40.99677080000002
 21
25.66385000000001
  0
LINE
  5
146
100
AcDbEntity
  8
0
  6
ByLayer
 62
  256
370
   -1
100
AcDbLine
 10
30.62534440000003
 20
9.619115200000003
 11
43.42784520000002
 21
11.8765415
  0
LINE
  5
147
100
AcDbEntity
  8
0
  6
ByLayer
 62
  256
370
   -1
100
AcDbLine
 10
27.78869020000003
 20
22.82719580000001
 11
30.04611650000002
 21
10.024695
  0
LINE
  5
148
100
AcDbEntity
  8
0
  6
ByLayer
 62
  256
370
   -1
100
AcDbLine
 10
41.57599870000003
 20
25.25827020000001
 11
43.83342500000002
 21
12.4557694
  0
ARC
  5
149
100
AcDbEntity
  8
0
  6
ByLayer
 62
  256
370
   -1
100
AcDbCircle
 10
28.28109410000003
 20
22.91401980000001
 40
0.5
100
AcDbArc
 50
100
 51
190
  0
ARC
  5
14A
100
AcDbEntity
  8
0
  6
ByLayer
 62
  256
370
   -1
100
AcDbCircle
 10
41.08359480000003
 20
25.17144610000001
 40
0.5
100
AcDbArc
 50
10
 51
100
  0
ARC
  5
14B
100
AcDbEntity
  8
0
  6
ByLayer
 62
  256
370
   -1
100
AcDbCircle
 10
30.53852040000002
 20
10.1115191
 40
0.5
100
AcDbArc
 50
190
 51
280
  0
ARC
  5
14C
100
AcDbEntity
  8
0
  6
ByLayer
 62
  256
370
   -1
100
AcDbCircle
 10
43.34102110000002
 20
12.3689454
 40
0.5
100
AcDbArc
 50
280
 51
10
  0
LINE
  5
14D
100
AcDbEntity
  8
0
  6
ByLayer
 62
  256
370
   -1
100
AcDbLine
 10
65.71544540000004
 20
30.02241930000001
 11
78.51794620000003
 21
32.2798456
  0
LINE
  5
14E
100
AcDbEntity
  8
0
  6
ByLayer
 62
  256
370
   -1
100
AcDbLine
 10
68.14651980000004
 20
16.2351108
 11
80.94902060000003
 21
18.4925371
  0
LINE
  5
14F
100
AcDbEntity
  8
0
  6
ByLayer
 62
  256
370
   -1
100
AcDbLine
 10
65.30986560000004
 20
29.4431914
 11
67.56729190000003
 21
16.64069060000001
  0
LINE
  5
150
100
AcDbEntity
  8
0
  6
ByLayer
 62
  256
370
   -1
100
AcDbLine
 10
79.09717410000003
 20
31.8742658
 11
81.35460040000002
 21
19.07176500000001
  0
ARC
  5
151
100
AcDbEntity
  8
0
  6
ByLayer
 62
  256
370
   -1
100
AcDbCircle
 10
65.80226950000004
 20
29.53001540000001
 40
0.5
100
AcDbArc
 50
100
 51
190
  0
ARC
  5
152
100
AcDbEntity
  8
0
  6
ByLayer
 62
  256
370
   -1
100
AcDbCircle
 10
78.60477020000003
 20
31.7874417
 40
0.5
100
AcDbArc
 50
10
 51
100
  0
ARC
  5
153
100
AcDbEntity
  8
0
  6
ByLayer
 62
  256
370
   -1
100
AcDbCircle
 10
68.05969580000003
 20
16.7275147
 40
0.5
100
AcDbArc
 50
190
 51
280
  0
ARC
  5
154
100
AcDbEntity
  8
0
  6
ByLayer
 62
  256
370
   -1
100
AcDbCircle
 10
80.86219650000002
 20
18.98494100000001
 40
0.5
100
AcDbArc
 50
280
 51
10
  0
LINE
  5
155
100
AcDbEntity
  8
0
  6
ByLayer
 62
  256
370
   -1
100
AcDbLine
 10
10.26068180000003
 20
15.408279
 11
23.06318260000002
 21
17.66570530000001
  0
LINE
  5
156
100
AcDbEntity
  8
0
  6
ByLayer
 62
  256
370
   -1
100
AcDbLine
 10
12.69175620000003
 20
1.620970499999999
 11
25.49425700000002
 21
3.878396800000004
  0
LINE
  5
157
100
AcDbEntity
  8
0
  6
ByLayer
 62
  256
370
   -1
100
AcDbLine
 10
9.855102000000031
 20
14.8290511
 11
12.11252830000002
 21
2.026550299999997
  0
LINE
  5
158
100
AcDbEntity
  8
0
  6
ByLayer
 62
  256
370
   -1
100
AcDbLine
 10
23.64241050000003
 20
17.2601255
 11
25.89983680000002
 21
4.457624700000004
  0
ARC
  5
159
100
AcDbEntity
  8
0
  6
ByLayer
 62
  256
370
   -1
100
AcDbCircle
 10
10.34750590000003
 20
14.9158751
 40
0.5
100
AcDbArc
 50
100
 51
190
  0
ARC
  5
15A
100
AcDbEntity
  8
0
  6
ByLayer
 62
  256
370
   -1
100
AcDbCircle
 10
23.15000660000003
 20
17.1733014
 40
0.5
100
AcDbArc
 50
10
 51
100
  0
ARC
  5
15B
100
AcDbEntity
  8
0
  6
ByLayer
 62
  256
370
   -1
100
AcDbCircle
 10
12.60493220000002
 20
2.113374399999998
 40
0.5
100
AcDbArc
 50
190
 51
280
  0
ARC
  5
15C
100
AcDbEntity
  8
0
  6
ByLayer
 62
  256
370
   -1
100
AcDbCircle
 10
25.40743290000002
 20
4.370800700000004
 40
0.5
100
AcDbArc
 50
280
 51
10
  0
LINE
  5
15D
100
AcDbEntity
  8
0
  6
ByLayer
 62
  256
370
   -1
100
AcDbLine
 10
85.30303260000004
 20
28.6402701
 11
98.10553340000003
 21
30.8976964
  0
LINE
  5
15E
100
AcDbEntity
  8
0
  6
ByLayer
 62
  256
370
   -1
100
AcDbLine
 10
87.73410700000004
 20
14.8529616
 11
100.5366078
 21
17.11038790000001
  0
LINE
  5
15F
100
AcDbEntity
  8
0
  6
ByLayer
 62
  256
370
   -1
100
AcDbLine
 10
84.89745280000004
 20
28.0610422
 11
87.15487910000003
 21
15.25854140000001
  0
LINE
  5
160
100
AcDbEntity
  8
0
  6
ByLayer
 62
  256
370
   -1
100
AcDbLine
 10
98.68476130000003
 20
30.4921166
 11
100.9421876
 21
17.68961580000001
  0
ARC
  5
161
100
AcDbEntity
  8
0
  6
ByLayer
 62
  256
370
   -1
100
AcDbCircle
 10
85.38985670000004
 20
28.1478662
 40
0.5
100
AcDbArc
 50
100
 51
190
  0
ARC
  5
162
100
AcDbEntity
  8
0
  6
ByLayer
 62
  256
370
   -1
100
AcDbCircle
 10
98.19235740000003
 20
30.4052925
 40
0.5
100
AcDbArc
 50
10
 51
100
  0
ARC
  5
163
100
AcDbEntity
  8
0
  6
ByLayer
 62
  256
370
   -1
100
AcDbCircle
 10
87.64728300000003
 20
15.3453655
 40
0.5
100
AcDbArc
 50
190
 51
280
  0
ARC
  5
164
100
AcDbEntity
  8
0
  6
ByLayer
 62
  256
370
   -1
100
AcDbCircle
 10
100.4497837
 20
17.60279180000001
 40
0.5
100
AcDbArc
 50
280
 51
10
  0
LINE
  5
165
100
AcDbEntity
  8
0
  6
ByLayer
 62
  256
370
   -1
100
AcDbLine
 10
104.8906197
 20
27.258121
 11
117.6931205
 21
29.51554729999999
  0
LINE
  5
166
100
AcDbEntity
  8
0
  6
ByLayer
 62
  256
370
   -1
100
AcDbLine
 10
107.3216941
 20
13.4708125
 11
120.1241949
 21
15.7282388
  0
LINE
  5
167
100
AcDbEntity
  8
0
  6
ByLayer
 62
  256
370
   -1
100
AcDbLine
 10
104.4850399
 20
26.6788931
 11
106.7424662
 21
13.87639230000001
  0
LINE
  5
168
100
AcDbEntity
  8
0
  6
ByLayer
 62
  256
370
   -1
100
AcDbLine
 10
118.2723484
 20
29.1099675
 11
120.5297747
 21
16.30746670000001
  0
ARC
  5
169
100
AcDbEntity
  8
0
  6
ByLayer
 62
  256
370
   -1
100
AcDbCircle
 10
104.9774438
 20
26.7657171
 40
0.5
100
AcDbArc
 50
100
 51
190
  0
ARC
  5
16A
100
AcDbEntity
  8
0
  6
ByLayer
 62
  256
370
   -1
100
AcDbCircle
 10
117.7799445
 20
29.0231434
 40
0.5
100
AcDbArc
 50
10
 51
100
  0
ARC
  5
16B
100
AcDbEntity
  8
0
  6
ByLayer
 62
  256
370
   -1
100
AcDbCircle
 10
107.2348701
 20
13.9632164
 40
0.5
100
AcDbArc
 50
190
 51
280
  0
ARC
  5
16C
100
AcDbEntity
  8
0
  6
ByLayer
 62
  256
370
   -1
100
AcDbCircle
 10
120.0373708
 20
16.22064270000001
 40
0.5
100
AcDbArc
 50
280
 51
10
  0
LINE
  5
16D
100
AcDbEntity
  8
0
  6
ByLayer
 62
  256
370
   -1
100
AcDbLine
 10
49.43585610000004
 20
12.6439807
 11
62.23835690000003
 21
14.90140700000001
  0
LINE
  5
16E
100
AcDbEntity
  8
0
  6
ByLayer
 62
  256
370
   -1
100
AcDbLine
 10
51.86693050000004
 20
-1.143327799999994
 11
64.66943130000003
 21
1.114098499999997
  0
LINE
  5
16F
100
AcDbEntity
  8
0
  6
ByLayer
 62
  256
370
   -1
100
AcDbLine
 10
49.03027630000004
 20
12.0647528
 11
51.28770260000003
 21
-0.7377479999999963
  0
LINE
  5
170
100
AcDbEntity
  8
0
  6
ByLayer
 62
  256
370
   -1
100
AcDbLine
 10
62.81758480000003
 20
14.4958272
 11
65.07501110000003
 21
1.693326400000004
  0
ARC
  5
171
100
AcDbEntity
  8
0
  6
ByLayer
 62
  256
370
   -1
100
AcDbCircle
 10
49.52268020000004
 20
12.1515768
 40
0.5
100
AcDbArc
 50
100
 51
190
  0
ARC
  5
172
100
AcDbEntity
  8
0
  6
ByLayer
 62
  256
370
   -1
100
AcDbCircle
 10
62.32518090000003
 20
14.4090031
 40
0.5
100
AcDbArc
 50
10
 51
100
  0
ARC
  5
173
100
AcDbEntity
  8
0
  6
ByLayer
 62
  256
370
   -1
100
AcDbCircle
 10
51.78010650000003
 20
-0.6509238999999951
 40
0.5
100
AcDbArc
 50
190
 51
280
  0
ARC
  5
174
100
AcDbEntity
  8
0
  6
ByLayer
 62
  256
370
   -1
100
AcDbCircle
 10
64.58260720000003
 20
1.606502399999997
 40
0.5
100
AcDbArc
 50
280
 51
10
  0
LINE
  5
175
100
AcDbEntity
  8
0
  6
ByLayer
 62
  256
370
   -1
100
AcDbLine
 10
31.50226780000001
 20
4.645836000000003
 11
44.30476860000003
 21
6.903262300000002
  0
LINE
  5
176
100
AcDbEntity
  8
0
  6
ByLayer
 62
  256
370
   -1
100
AcDbLine
 10
33.93334220000001
 20
-9.141472499999992
 11
46.73584300000003
 21
-6.8840462
  0
LINE
  5
177
100
AcDbEntity
  8
0
  6
ByLayer
 62
  256
370
   -1
100
AcDbLine
 10
31.09668800000001
 20
4.066608100000003
 11
33.35411430000003
 21
-8.735892699999994
  0
LINE
  5
178
100
AcDbEntity
  8
0
  6
ByLayer
 62
  256
370
   -1
100
AcDbLine
 10
44.88399650000004
 20
6.497682500000003
 11
47.14142280000003
 21
-6.304818299999994
  0
ARC
  5
179
100
AcDbEntity
  8
0
  6
ByLayer
 62
  256
370
   -1
100
AcDbCircle
 10
31.58909190000001
 20
4.153432100000003
 40
0.5
100
AcDbArc
 50
100
 51
190
  0
ARC
  5
17A
100
AcDbEntity
  8
0
  6
ByLayer
 62
  256
370
   -1
100
AcDbCircle
 10
44.39159260000004
 20
6.410858400000002
 40
0.5
100
AcDbArc
 50
10
 51
100
  0
ARC
  5
17B
100
AcDbEntity
  8
0
  6
ByLayer
 62
  256
370
   -1
100
AcDbCircle
 10
33.84651820000003
 20
-8.649068599999993
 40
0.5
100
AcDbArc
 50
190
 51
280
  0
ARC
  5
17C
100
AcDbEntity
  8
0
  6
ByLayer
 62
  256
370
   -1
100
AcDbCircle
 10
46.64901890000003
 20
-6.391642300000001
 40
0.5
100
AcDbArc
 50
280
 51
10
  0
LINE
  5
17D
100
AcDbEntity
  8
0
  6
ByLayer
 62
  256
370
   -1
100
AcDbLine
 10
69.02344320000002
 20
11.2618316
 11
81.82594400000004
 21
13.5192579
  0
LINE
  5
17E
100
AcDbEntity
  8
0
  6
ByLayer
 62
  256
370
   -1
100
AcDbLine
 10
71.45451760000002
 20
-2.525476900000001
 11
84.25701840000004
 21
-0.2680505999999951
  0
LINE
  5
17F
100
AcDbEntity
  8
0
  6
ByLayer
 62
  256
370
   -1
100
AcDbLine
 10
68.61786340000002
 20
10.6826037
 11
70.87528970000004
 21
-2.119897100000003
  0
LINE
  5
180
100
AcDbEntity
  8
0
  6
ByLayer
 62
  256
370
   -1
100
AcDbLine
 10
82.40517190000001
 20
13.1136781
 11
84.66259820000003
 21
0.3111772999999971
  0
ARC
  5
181
100
AcDbEntity
  8
0
  6
ByLayer
 62
  256
370
   -1
100
AcDbCircle
 10
69.11026730000002
 20
10.7694277
 40
0.5
100
AcDbArc
 50
100
 51
190
  0
ARC
  5
182
100
AcDbEntity
  8
0
  6
ByLayer
 62
  256
370
   -1
100
AcDbCircle
 10
81.91276800000001
 20
13.026854
 40
0.5
100
AcDbArc
 50
10
 51
100
  0
ARC
  5
183
100
AcDbEntity
  8
0
  6
ByLayer
 62
  256
370
   -1
100
AcDbCircle
 10
71.36769360000004
 20
-2.033073000000002
 40
0.5
100
AcDbArc
 50
190
 51
280
  0
ARC
  5
184
100
AcDbEntity
  8
0
  6
ByLayer
 62
  256
370
   -1
100
AcDbCircle
 10
84.17019430000003
 20
0.2243533000000042
 40
0.5
100
AcDbArc
 50
280
 51
10
  0
LINE
  5
185
100
AcDbEntity
  8
0
  6
ByLayer
 62
  256
370
   -1
100
AcDbLine
 10
13.56867960000004
 20
-3.352308699999995
 11
26.37118040000003
 21
-1.094882400000003
  0
LINE
  5
186
100
AcDbEntity
  8
0
  6
ByLayer
 62
  256
370
   -1
100
AcDbLine
 10
15.99975400000004
 20
-17.1396172
 11
28.80225480000003
 21
-14.8821909
  0
LINE
  5
187
100
AcDbEntity
  8
0
  6
ByLayer
 62
  256
370
   -1
100
AcDbLine
 10
13.16309980000001
 20
-3.931536600000001
 11
15.42052610000003
 21
-16.73403739999999
  0
LINE
  5
188
100
AcDbEntity
  8
0
  6
ByLayer
 62
  256
370
   -1
100
AcDbLine
 10
26.95040830000003
 20
-1.500462200000001
 11
29.20783460000003
 21
-14.30296299999999
  0
ARC
  5
189
100
AcDbEntity
  8
0
  6
ByLayer
 62
  256
370
   -1
100
AcDbCircle
 10
13.65550370000004
 20
-3.844712599999994
 40
0.5
100
AcDbArc
 50
100
 51
190
  0
ARC
  5
18A
100
AcDbEntity
  8
0
  6
ByLayer
 62
  256
370
   -1
100
AcDbCircle
 10
26.45800440000004
 20
-1.587286300000002
 40
0.5
100
AcDbArc
 50
10
 51
100
  0
ARC
  5
18B
100
AcDbEntity
  8
0
  6
ByLayer
 62
  256
370
   -1
100
AcDbCircle
 10
15.91293000000003
 20
-16.6472133
 40
0.5
100
AcDbArc
 50
190
 51
280
  0
ARC
  5
18C
100
AcDbEntity
  8
0
  6
ByLayer
 62
  256
370
   -1
100
AcDbCircle
 10
28.71543070000003
 20
-14.389787
 40
0.5
100
AcDbArc
 50
280
 51
10
  0
LINE
  5
18D
100
AcDbEntity
  8
0
  6
ByLayer
 62
  256
370
   -1
100
AcDbLine
 10
88.61103040000002
 20
9.8796824
 11
101.4135312
 21
12.13710870000001
  0
LINE
  5
18E
100
AcDbEntity
  8
0
  6
ByLayer
 62
  256
370
   -1
100
AcDbLine
 10
91.04210480000002
 20
-3.907626100000002
 11
103.8446056
 21
-1.650199799999996
  0
LINE
  5
18F
100
AcDbEntity
  8
0
  6
ByLayer
 62
  256
370
   -1
100
AcDbLine
 10
88.20545060000002
 20
9.300454500000001
 11
90.46287690000001
 21
-3.502046300000003
  0
LINE
  5
190
100
AcDbEntity
  8
0
  6
ByLayer
 62
  256
370
   -1
100
AcDbLine
 10
101.9927591
 20
11.7315289
 11
104.2501854
 21
-1.070971900000004
  0
ARC
  5
191
100
AcDbEntity
  8
0
  6
ByLayer
 62
  256
370
   -1
100
AcDbCircle
 10
88.69785450000002
 20
9.387278500000001
 40
0.5
100
AcDbArc
 50
100
 51
190
  0
ARC
  5
192
100
AcDbEntity
  8
0
  6
ByLayer
 62
  256
370
   -1
100
AcDbCircle
 10
101.5003552
 20
11.6447048
 40
0.5
100
AcDbArc
 50
10
 51
100
  0
ARC
  5
193
100
AcDbEntity
  8
0
  6
ByLayer
 62
  256
370
   -1
100
AcDbCircle
 10
90.95528080000004
 20
-3.415222200000002
 40
0.5
100
AcDbArc
 50
190
 51
280
  0
ARC
  5
194
100
AcDbEntity
  8
0
  6
ByLayer
 62
  256
370
   -1
100
AcDbCircle
 10
103.7577815
 20
-1.157795899999996
 40
0.5
100
AcDbArc
 50
280
 51
10
  0
LINE
  5
195
100
AcDbEntity
  8
0
  6
ByLayer
 62
  256
370
   -1
100
AcDbLine
 10
108.1986175
 20
8.497533300000001
 11
121.0011183
 21
10.7549596
  0
LINE
  5
196
100
AcDbEntity
  8
0
  6
ByLayer
 62
  256
370
   -1
100
AcDbLine
 10
110.6296919
 20
-5.289775199999994
 11
123.4321927
 21
-3.032348900000002
  0
LINE
  5
197
100
AcDbEntity
  8
0
  6
ByLayer
 62
  256
370
   -1
100
AcDbLine
 10
107.7930377
 20
7.918305400000001
 11
110.050464
 21
-4.884195399999996
  0
LINE
  5
198
100
AcDbEntity
  8
0
  6
ByLayer
 62
  256
370
   -1
100
AcDbLine
 10
121.5803462
 20
10.3493798
 11
123.8377725
 21
-2.453120999999996
  0
ARC
  5
199
100
AcDbEntity
  8
0
  6
ByLayer
 62
  256
370
   -1
100
AcDbCircle
 10
108.2854416
 20
8.005129400000001
 40
0.5
100
AcDbArc
 50
100
 51
190
  0
ARC
  5
19A
100
AcDbEntity
  8
0
  6
ByLayer
 62
  256
370
   -1
100
AcDbCircle
 10
121.0879423
 20
10.2625557
 40
0.5
100
AcDbArc
 50
10
 51
100
  0
ARC
  5
19B
100
AcDbEntity
  8
0
  6
ByLayer
 62
  256
370
   -1
100
AcDbCircle
 10
110.5428679
 20
-4.797371299999995
 40
0.5
100
AcDbArc
 50
190
 51
280
  0
ARC
  5
19C
100
AcDbEntity
  8
0
  6
ByLayer
 62
  256
370
   -1
100
AcDbCircle
 10
123.3453686
 20
-2.539945000000003
 40
0.5
100
AcDbArc
 50
280
 51
10
  0
LINE
  5
19D
100
AcDbEntity
  8
0
  6
ByLayer
 62
  256
370
   -1
100
AcDbLine
 10
31.77411760000003
 20
-24.322045
 11
44.57661840000002
 21
-22.0646187
  0
LINE
  5
19E
100
AcDbEntity
  8
0
  6
ByLayer
 62
  256
370
   -1
100
AcDbLine
 10
34.20519200000003
 20
-38.1093535
 11
47.00769280000002
 21
-35.85192719999999
  0
LINE
  5
19F
100
AcDbEntity
  8
0
  6
ByLayer
 62
  256
370
   -1
100
AcDbLine
 10
31.36853780000003
 20
-24.9012729
 11
33.62596410000002
 21
-37.7037737
  0
LINE
  5
1A0
100
AcDbEntity
  8
0
  6
ByLayer
 62
  256
370
   -1
100
AcDbLine
 10
45.15584630000002
 20
-22.4701985
 11
47.41327260000001
 21
-35.2726993
  0
ARC
  5
1A1
100
AcDbEntity
  8
0
  6
ByLayer
 62
  256
370
   -1
100
AcDbCircle
 10
31.86094170000003
 20
-24.8144489
 40
0.5
100
AcDbArc
 50
100
 51
190
  0
ARC
  5
1A2
100
AcDbEntity
  8
0
  6
ByLayer
 62
  256
370
   -1
100
AcDbCircle
 10
44.66344240000002
 20
-22.5570226
 40
0.5
100
AcDbArc
 50
10
 51
100
  0
ARC
  5
1A3
100
AcDbEntity
  8
0
  6
ByLayer
 62
  256
370
   -1
100
AcDbCircle
 10
34.11836800000002
 20
-37.6169496
 40
0.5
100
AcDbArc
 50
190
 51
280
  0
ARC
  5
1A4
100
AcDbEntity
  8
0
  6
ByLayer
 62
  256
370
   -1
100
AcDbCircle
 10
46.92086870000001
 20
-35.35952329999999
 40
0.5
100
AcDbArc
 50
280
 51
10
  0
LINE
  5
1A5
100
AcDbEntity
  8
0
  6
ByLayer
 62
  256
370
   -1
100
AcDbLine
 10
-6.499999999999986
 20
-50
 11
6.500000000000014
 21
-50
  0
ARC
  5
1A6
100
AcDbEntity
  8
0
  6
ByLayer
 62
  256
370
   -1
100
AcDbCircle
 10
-78.67499999999998
 20
-35.34525962154748
 40
5
100
AcDbArc
 50
180
 51
260.0000000502695
  0
LINE
  5
1A7
100
AcDbEntity
  8
0
  6
ByLayer
 62
  256
370
   -1
100
AcDbLine
 10
-83.67499999999998
 20
-24.39237889118023
 11
-83.67499999999998
 21
-35.34525962154747
  0
ARC
  5
1A8
100
AcDbEntity
  8
0
  6
ByLayer
 62
  256
370
   -1
100
AcDbCircle
 10
-88.67499999999998
 20
-24.39237889118023
 40
5
100
AcDbArc
 50
0
 51
80.00000005026935
  0
LINE
  5
1A9
100
AcDbEntity
  8
0
  6
ByLayer
 62
  256
370
   -1
100
AcDbLine
 10
-130.5851170802199
 20
-11.92536146455726
 11
-87.80675911598551
 21
-19.46834012535743
  0
ARC
  5
1AA
100
AcDbEntity
  8
0
  6
ByLayer
 62
  256
370
   -1
100
AcDbCircle
 10
-129.7168761962054
 20
-7.001322698734455
 40
5
100
AcDbArc
 50
170.0000000502694
 51
260.0000000502694
  0
LINE
  5
1AB
100
AcDbEntity
  8
0
  6
ByLayer
 62
  256
370
   -1
100
AcDbLine
 10
-124.1345261678834
 20
53.45161024904773
 11
-134.6409149620282
 21
-6.133081814719986
  0
ARC
  5
1AC
100
AcDbEntity
  8
0
  6
ByLayer
 62
  256
370
   -1
100
AcDbCircle
 10
-119.2104874020606
 20
52.58336936503326
 40
5
100
AcDbArc
 50
94.03624346497202
 51
170.0000000502694
  0
ARC
  5
1AD
100
AcDbEntity
  8
0
  6
ByLayer
 62
  256
370
   -1
100
AcDbCircle
 10
119.2104874020606
 20
52.58336936503323
 40
5
100
AcDbArc
 50
9.999999949730634
 51
85.96375653502811
  0
LINE
  5
1AE
100
AcDbEntity
  8
0
  6
ByLayer
 62
  256
370
   -1
100
AcDbLine
 10
124.1345261678834
 20
53.4516102490477
 11
134.6409149620282
 21
-6.133081814719993
  0
ARC
  5
1AF
100
AcDbEntity
  8
0
  6
ByLayer
 62
  256
370
   -1
100
AcDbCircle
 10
129.7168761962054
 20
-7.001322698734469
 40
5
100
AcDbArc
 50
279.9999999497308
 51
9.999999949730762
  0
LINE
  5
1B0
100
AcDbEntity
  8
0
  6
ByLayer
 62
  256
370
   -1
100
AcDbLine
 10
87.80675911598557
 20
-19.46834012535741
 11
130.5851170802199
 21
-11.92536146455727
  0
ARC
  5
1B1
100
AcDbEntity
  8
0
  6
ByLayer
 62
  256
370
   -1
100
AcDbCircle
 10
88.67500000000003
 20
-24.39237889118021
 40
5
100
AcDbArc
 50
99.99999994973049
 51
180
  0
LINE
  5
1B2
100
AcDbEntity
  8
0
  6
ByLayer
 62
  256
370
   -1
100
AcDbLine
 10
83.67500000000003
 20
-24.39237889118021
 11
83.67500000000003
 21
-35.34525962154747
  0
ARC
  5
1B3
100
AcDbEntity
  8
0
  6
ByLayer
 62
  256
370
   -1
100
AcDbCircle
 10
78.675
 20
-35.34525962154747
 40
5
100
AcDbArc
 50
279.9999999497305
 51
0
  0
LINE
  5
1B4
100
AcDbEntity
  8
0
  6
ByLayer
 62
  256
370
   -1
100
AcDbLine
 10
-119.5624248352532
 20
57.57096798993459
 11
-51.43056001026609
 21
62.37852277299595
  0
ARC
  5
1B5
100
AcDbEntity
  8
0
  6
ByLayer
 62
  256
370
   -1
100
AcDbCircle
 10
-50.02281027749548
 20
42.42812827339058
 40
20
100
AcDbArc
 50
65.96375655561977
 51
94.03624346497213
  0
LINE
  5
1B6
100
AcDbEntity
  8
0
  6
ByLayer
 62
  256
370
   -1
100
AcDbLine
 10
119.5624248352532
 20
57.57096798993456
 11
51.43056001026606
 21
62.37852277299594
  0
ARC
  5
1B7
100
AcDbEntity
  8
0
  6
ByLayer
 62
  256
370
   -1
100
AcDbCircle
 10
50.02281027749542
 20
42.42812827339057
 40
20
100
AcDbArc
 50
85.9637565350278
 51
114.0362434443802
  0
LINE
  5
1B8
100
AcDbEntity
  8
0
  6
ByLayer
 62
  256
370
   -1
100
AcDbLine
 10
-79.54324088401444
 20
-40.26929838737028
 11
-32.97364082495488
 21
-48.4807753164561
  0
LINE
  5
1B9
100
AcDbEntity
  8
0
  6
ByLayer
 62
  256
370
   -1
100
AcDbLine
 10
-6.499999999999986
 20
-50
 11
-15.60882314466549
 21
-50
  0
ARC
  5
1BA
100
AcDbEntity
  8
0
  6
ByLayer
 62
  256
370
   -1
100
AcDbCircle
 10
-15.60882314466549
 20
50
 40
100
100
AcDbArc
 50
260.0000000502694
 51
270
  0
LINE
  5
1BB
100
AcDbEntity
  8
0
  6
ByLayer
 62
  256
370
   -1
100
AcDbLine
 10
79.54324088401445
 20
-40.26929838737028
 11
32.97364082495478
 21
-48.48077531645611
  0
LINE
  5
1BC
100
AcDbEntity
  8
0
  6
ByLayer
 62
  256
370
   -1
100
AcDbLine
 10
6.500000000000014
 20
-50
 11
15.60882314466541
 21
-50
  0
ARC
  5
1BD
100
AcDbEntity
  8
0
  6
ByLayer
 62
  256
370
   -1
100
AcDbCircle
 10
15.60882314466541
 20
50
 40
100
100
AcDbArc
 50
270
 51
279.9999999497306
  0
LINE
  5
1BE
100
AcDbEntity
  8
0
  6
ByLayer
 62
  256
370
   -1
100
AcDbLine
 10
-6.499999999999986
 20
-50
 11
6.500000000000014
 21
-50
  0
LINE
  5
1BF
100
AcDbEntity
  8
0
  6
ByLayer
 62
  256
370
   -1
100
AcDbLine
 10
-41.87652146210358
 20
60.69388800399641
 11
-28.52625340375248
 21
54.7398438815392
  0
ARC
  5
1C0
100
AcDbEntity
  8
0
  6
ByLayer
 62
  256
370
   -1
100
AcDbCircle
 10
-27.7116245222133
 20
56.56641985459976
 40
2
100
AcDbArc
 50
245.9637565556198
 51
335.9637565556197
  0
LINE
  5
1C1
100
AcDbEntity
  8
0
  6
ByLayer
 62
  256
370
   -1
100
AcDbLine
 10
1.224646799147353e-16
 20
2
 11
-3.673940397442059e-16
 21
-2
  0
LINE
  5
1C2
100
AcDbEntity
  8
0
  6
ByLayer
 62
  256
370
   -1
100
AcDbLine
 10
2.000000000000001
 20
-2.775557561562891e-17
 11
-2
 21
2.449293598294706e-16
  0
LINE
  5
1C3
100
AcDbEntity
  8
0
  6
ByLayer
 62
  256
370
   -1
100
AcDbLine
 10
41.87652146210355
 20
60.69388800399638
 11
22.90497054479509
 21
52.2328255939095
  0
ARC
  5
1C4
100
AcDbEntity
  8
0
  6
ByLayer
 62
  256
370
   -1
100
AcDbCircle
 10
20.86839834094712
 20
56.79926552656094
 40
5
100
AcDbArc
 50
245.9637565556197
 51
294.0362434443802
  0
LINE
  5
1C5
100
AcDbEntity
  8
0
  6
ByLayer
 62
  256
370
   -1
100
AcDbLine
 10
-25.88504854915271
 20
55.75179097306057
 11
-20.58996081914797
 21
67.62453479795437
  0
LINE
  5
1C6
100
AcDbEntity
  8
0
  6
ByLayer
 62
  256
370
   -1
100
AcDbLine
 10
-17.94875596454821
 20
68.63648188947576
 11
18.83182613709915
 21
52.23282559390948
  0
ARC
  5
1C7
100
AcDbEntity
  8
0
  6
ByLayer
 62
  256
370
   -1
100
AcDbCircle
 10
-18.7633848460874
 20
66.80990591641518
 40
2
100
AcDbArc
 50
65.96375655561974
 51
155.9637565556195
  0
CIRCLE
  5
1C8
100
AcDbEntity
  8
0
  6
ByLayer
 62
  256
370
   -1
100
AcDbCircle
 10
-64.77893862455242
 20
17.91333229801584
 40
1
  0
CIRCLE
  5
1C9
100
AcDbEntity
  8
0
  6
ByLayer
 62
  256
370
   -1
100
AcDbCircle
 10
-50
 20
-16
 40
1
  0
CIRCLE
  5
1CA
100
AcDbEntity
  8
0
  6
ByLayer
 62
  256
370
   -1
100
AcDbCircle
 10
-78.67499999999998
 20
-35.34525962154748
 40
1
  0
CIRCLE
  5
1CB
100
AcDbEntity
  8
0
  6
ByLayer
 62
  256
370
   -1
100
AcDbCircle
 10
-129.7168761962054
 20
-7.001322698734455
 40
1
  0
CIRCLE
  5
1CC
100
AcDbEntity
  8
0
  6
ByLayer
 62
  256
370
   -1
100
AcDbCircle
 10
-119.2104874020606
 20
52.58336936503326
 40
1
  0
CIRCLE
  5
1CD
100
AcDbEntity
  8
0
  6
ByLayer
 62
  256
370
   -1
100
AcDbCircle
 10
-47.41808761514599
 20
57.20024456904176
 40
1
  0
CIRCLE
  5
1CE
100
AcDbEntity
  8
0
  6
ByLayer
 62
  256
370
   -1
100
AcDbCircle
 10
0
 20
0
 40
1
  0
CIRCLE
  5
1CF
100
AcDbEntity
  8
0
  6
ByLayer
 62
  256
370
   -1
100
AcDbCircle
 10
64.77893862455242
 20
17.91333229801582
 40
1
  0
CIRCLE
  5
1D0
100
AcDbEntity
  8
0
  6
ByLayer
 62
  256
370
   -1
100
AcDbCircle
 10
50
 20
-16
 40
1
  0
CIRCLE
  5
1D1
100
AcDbEntity
  8
0
  6
ByLayer
 62
  256
370
   -1
100
AcDbCircle
 10
78.67499999999998
 20
-35.34525962154748
 40
1
  0
CIRCLE
  5
1D2
100
AcDbEntity
  8
0
  6
ByLayer
 62
  256
370
   -1
100
AcDbCircle
 10
129.7168761962054
 20
-7.001322698734455
 40
1
  0
CIRCLE
  5
1D3
100
AcDbEntity
  8
0
  6
ByLayer
 62
  256
370
   -1
100
AcDbCircle
 10
119.2104874020606
 20
52.58336936503326
 40
1
  0
CIRCLE
  5
1D4
100
AcDbEntity
  8
0
  6
ByLayer
 62
  256
370
   -1
100
AcDbCircle
 10
47.41808761514599
 20
57.20024456904172
 40
1
  0
CIRCLE
  5
1D5
100
AcDbEntity
  8
0
  6
ByLayer
 62
  256
370
   -1
100
AcDbCircle
 10
0
 20
-45
 40
1
  0
CIRCLE
  5
1D6
100
AcDbEntity
  8
0
  6
ByLayer
 62
  256
370
   -1
100
AcDbCircle
 10
0
 20
30
 40
1
  0
LINE
  5
1D7
100
AcDbEntity
  8
0
  6
ByLayer
 62
  256
370
   -1
100
AcDbLine
 10
-114.9643506
 20
47.8705552
 11
-103.4344684234939
 21
32.63698001116654
  0
LINE
  5
1D8
100
AcDbEntity
  8
0
  6
ByLayer
 62
  256
370
   -1
100
AcDbLine
 10
-117.2217768765061
 20
35.06805448883347
 11
-101.1770421
 21
45.4394808
  0
LINE
  5
1D9
100
AcDbEntity
  8
0
  6
ByLayer
 62
  256
370
   -1
100
AcDbLine
 10
-95.37676352349388
 20
49.25270431116653
 11
-83.84688134698777
 21
34.01912912233308
  0
LINE
  5
1DA
100
AcDbEntity
  8
0
  6
ByLayer
 62
  256
370
   -1
100
AcDbLine
 10
-97.63418979999997
 20
36.4502036
 11
-81.58945502349387
 21
46.82162991116653
  0
LINE
  5
1DB
100
AcDbEntity
  8
0
  6
ByLayer
 62
  256
370
   -1
100
AcDbLine
 10
-98.68476132065166
 20
30.49211662728554
 11
-87.15487914414555
 21
15.25854143845208
  0
LINE
  5
1DC
100
AcDbEntity
  8
0
  6
ByLayer
 62
  256
370
   -1
100
AcDbLine
 10
-100.9421875971578
 20
17.68961591611901
 11
-84.89745282065165
 21
28.06104222728554
  0
LINE
  5
1DD
100
AcDbEntity
  8
0
  6
ByLayer
 62
  256
370
   -1
100
AcDbLine
 10
-118.2723484206517
 20
29.10996752728553
 11
-106.7424662441456
 21
13.87639233845208
  0
LINE
  5
1DE
100
AcDbEntity
  8
0
  6
ByLayer
 62
  256
370
   -1
100
AcDbLine
 10
-120.5297746971578
 20
16.307466816119
 11
-104.4850399206517
 21
26.67889312728553
  0
LINE
  5
1DF
100
AcDbEntity
  8
0
  6
ByLayer
 62
  256
370
   -1
100
AcDbLine
 10
-121.5803461765061
 20
10.34937978883347
 11
-110.050464
 21
-4.884195399999991
  0
LINE
  5
1E0
100
AcDbEntity
  8
0
  6
ByLayer
 62
  256
370
   -1
100
AcDbLine
 10
-123.8377724530122
 20
-2.453120922333065
 11
-107.7930376765061
 21
7.918305388833465
  0
LINE
  5
1E1
100
AcDbEntity
  8
0
  6
ByLayer
 62
  256
370
   -1
100
AcDbLine
 10
-101.9927590765061
 20
11.73152888883346
 11
-90.4628769
 21
-3.502046299999991
  0
LINE
  5
1E2
100
AcDbEntity
  8
0
  6
ByLayer
 62
  256
370
   -1
100
AcDbLine
 10
-104.2501853530122
 20
-1.070971822333066
 11
-88.2054505765061
 21
9.300454488833465
  0
LINE
  5
1E3
100
AcDbEntity
  8
0
  6
ByLayer
 62
  256
370
   -1
100
AcDbLine
 10
-82.40517189999998
 20
13.1136781
 11
-70.87528972349388
 21
-2.119897088833456
  0
LINE
  5
1E4
100
AcDbEntity
  8
0
  6
ByLayer
 62
  256
370
   -1
100
AcDbLine
 10
-84.66259817650608
 20
0.3111773888334692
 11
-68.61786339999998
 21
10.6826037
  0
LINE
  5
1E5
100
AcDbEntity
  8
0
  6
ByLayer
 62
  256
370
   -1
100
AcDbLine
 10
-79.09717407650609
 20
31.87426578883347
 11
-67.56729189999999
 21
16.64069060000001
  0
LINE
  5
1E6
100
AcDbEntity
  8
0
  6
ByLayer
 62
  256
370
   -1
100
AcDbLine
 10
-81.35460035301219
 20
19.07176507766694
 11
-65.30986557650608
 21
29.44319138883347
  0
LINE
  5
1E7
100
AcDbEntity
  8
0
  6
ByLayer
 62
  256
370
   -1
100
AcDbLine
 10
-75.78917637650608
 20
50.63485348883346
 11
-64.25929419999997
 21
35.40127830000001
  0
LINE
  5
1E8
100
AcDbEntity
  8
0
  6
ByLayer
 62
  256
370
   -1
100
AcDbLine
 10
-78.04660265301217
 20
37.83235277766693
 11
-62.00186787650607
 21
48.20377908883346
  0
LINE
  5
1E9
100
AcDbEntity
  8
0
  6
ByLayer
 62
  256
370
   -1
100
AcDbLine
 10
-56.20158917650609
 20
52.01700258883346
 11
-44.67170699999998
 21
36.78342740000001
  0
LINE
  5
1EA
100
AcDbEntity
  8
0
  6
ByLayer
 62
  256
370
   -1
100
AcDbLine
 10
-58.45901545301219
 20
39.21450187766693
 11
-42.41428067650608
 21
49.58592818883346
  0
LINE
  5
1EB
100
AcDbEntity
  8
0
  6
ByLayer
 62
  256
370
   -1
100
AcDbLine
 10
-59.50958697650609
 20
33.25641488883345
 11
-47.97970479999998
 21
18.0228397
  0
LINE
  5
1EC
100
AcDbEntity
  8
0
  6
ByLayer
 62
  256
370
   -1
100
AcDbLine
 10
-61.76701325301218
 20
20.45391417766692
 11
-45.72227847650608
 21
30.82534048883345
  0
LINE
  5
1ED
100
AcDbEntity
  8
0
  6
ByLayer
 62
  256
370
   -1
100
AcDbLine
 10
-62.81758477650608
 20
14.49582718883346
 11
-51.28770259999997
 21
-0.737747999999991
  0
LINE
  5
1EE
100
AcDbEntity
  8
0
  6
ByLayer
 62
  256
370
   -1
100
AcDbLine
 10
-65.07501105301218
 20
1.693326477666934
 11
-49.03027627650607
 21
12.06475278883346
  0
LINE
  5
1EF
100
AcDbEntity
  8
0
  6
ByLayer
 62
  256
370
   -1
100
AcDbLine
 10
-44.88399647650611
 20
6.497682488833467
 11
-33.3541143
 21
-8.735892699999988
  0
LINE
  5
1F0
100
AcDbEntity
  8
0
  6
ByLayer
 62
  256
370
   -1
100
AcDbLine
 10
-47.1414227530122
 20
-6.304818222333063
 11
-31.0966879765061
 21
4.066608088833467
  0
LINE
  5
1F1
100
AcDbEntity
  8
0
  6
ByLayer
 62
  256
370
   -1
100
AcDbLine
 10
-41.5759986765061
 20
25.25827018883348
 11
-30.04611649999999
 21
10.02469500000002
  0
LINE
  5
1F2
100
AcDbEntity
  8
0
  6
ByLayer
 62
  256
370
   -1
100
AcDbLine
 10
-43.83342495301219
 20
12.45576947766695
 11
-27.78869017650609
 21
22.82719578883348
  0
LINE
  5
1F3
100
AcDbEntity
  8
0
  6
ByLayer
 62
  256
370
   -1
100
AcDbLine
 10
-38.26800097650608
 20
44.01885788883347
 11
-26.73811879999997
 21
28.78528270000001
  0
LINE
  5
1F4
100
AcDbEntity
  8
0
  6
ByLayer
 62
  256
370
   -1
100
AcDbLine
 10
-40.52542725301218
 20
31.21635717766694
 11
-24.48069247650607
 21
41.58778348883347
  0
LINE
  5
1F5
100
AcDbEntity
  8
0
  6
ByLayer
 62
  256
370
   -1
100
AcDbLine
 10
-20.33441267650609
 20
36.02071318883347
 11
-8.804530499999988
 21
20.78713800000001
  0
LINE
  5
1F6
100
AcDbEntity
  8
0
  6
ByLayer
 62
  256
370
   -1
100
AcDbLine
 10
-22.59183895301219
 20
23.21821247766694
 11
-6.547104176506085
 21
33.58963878883347
  0
LINE
  5
1F7
100
AcDbEntity
  8
0
  6
ByLayer
 62
  256
370
   -1
100
AcDbLine
 10
-23.64241047650608
 20
17.26012548883347
 11
-12.11252829999998
 21
2.026550300000011
  0
LINE
  5
1F8
100
AcDbEntity
  8
0
  6
ByLayer
 62
  256
370
   -1
100
AcDbLine
 10
-25.89983675301218
 20
4.457624777666936
 11
-9.855101976506074
 21
14.82905108883347
  0
LINE
  5
1F9
100
AcDbEntity
  8
0
  6
ByLayer
 62
  256
370
   -1
100
AcDbLine
 10
-26.95040827650609
 20
-1.500462211166537
 11
-15.42052609999999
 21
-16.73403739999999
  0
LINE
  5
1FA
100
AcDbEntity
  8
0
  6
ByLayer
 62
  256
370
   -1
100
AcDbLine
 10
-29.20783455301219
 20
-14.30296292233307
 11
-13.16309977650608
 21
-3.931536611166537
  0
LINE
  5
1FB
100
AcDbEntity
  8
0
  6
ByLayer
 62
  256
370
   -1
100
AcDbLine
 10
-45.15584627650609
 20
-22.47019851116653
 11
-33.62596409999998
 21
-37.70377369999999
  0
LINE
  5
1FC
100
AcDbEntity
  8
0
  6
ByLayer
 62
  256
370
   -1
100
AcDbLine
 10
-47.41327255301218
 20
-35.27269922233306
 11
-31.36853777650608
 21
-24.90127291116653
  0
LINE
  5
1FD
100
AcDbEntity
  8
0
  6
ByLayer
 62
  256
370
   -1
100
AcDbLine
 10
114.9643506
 20
47.8705552
 11
103.4344684234939
 21
32.63698001116654
  0
LINE
  5
1FE
100
AcDbEntity
  8
0
  6
ByLayer
 62
  256
370
   -1
100
AcDbLine
 10
117.2217768765061
 20
35.06805448883344
 11
101.1770421
 21
45.4394808
  0
LINE
  5
1FF
100
AcDbEntity
  8
0
  6
ByLayer
 62
  256
370
   -1
100
AcDbLine
 10
95.37676352349388
 20
49.25270431116652
 11
83.84688134698777
 21
34.01912912233309
  0
LINE
  5
200
100
AcDbEntity
  8
0
  6
ByLayer
 62
  256
370
   -1
100
AcDbLine
 10
97.63418979999997
 20
36.45020360000004
 11
81.58945502349387
 21
46.82162991116649
  0
LINE
  5
201
100
AcDbEntity
  8
0
  6
ByLayer
 62
  256
370
   -1
100
AcDbLine
 10
98.68476132065166
 20
30.49211662728554
 11
87.15487914414555
 21
15.25854143845207
  0
LINE
  5
202
100
AcDbEntity
  8
0
  6
ByLayer
 62
  256
370
   -1
100
AcDbLine
 10
100.9421875971578
 20
17.68961591611903
 11
84.89745282065165
 21
28.06104222728554
  0
LINE
  5
203
100
AcDbEntity
  8
0
  6
ByLayer
 62
  256
370
   -1
100
AcDbLine
 10
118.2723484206517
 20
29.10996752728553
 11
106.7424662441456
 21
13.87639233845208
  0
LINE
  5
204
100
AcDbEntity
  8
0
  6
ByLayer
 62
  256
370
   -1
100
AcDbLine
 10
120.5297746971578
 20
16.307466816119
 11
104.4850399206517
 21
26.67889312728553
  0
LINE
  5
205
100
AcDbEntity
  8
0
  6
ByLayer
 62
  256
370
   -1
100
AcDbLine
 10
121.5803461765061
 20
10.34937978883347
 11
110.050464
 21
-4.884195399999987
  0
LINE
  5
206
100
AcDbEntity
  8
0
  6
ByLayer
 62
  256
370
   -1
100
AcDbLine
 10
123.8377724530122
 20
-2.453120922333062
 11
107.7930376765061
 21
7.918305388833469
  0
LINE
  5
207
100
AcDbEntity
  8
0
  6
ByLayer
 62
  256
370
   -1
100
AcDbLine
 10
101.9927590765061
 20
11.73152888883348
 11
90.4628769
 21
-3.502046299999988
  0
LINE
  5
208
100
AcDbEntity
  8
0
  6
ByLayer
 62
  256
370
   -1
100
AcDbLine
 10
104.2501853530122
 20
-1.070971822333076
 11
88.2054505765061
 21
9.300454488833468
  0
LINE
  5
209
100
AcDbEntity
  8
0
  6
ByLayer
 62
  256
370
   -1
100
AcDbLine
 10
82.40517189999998
 20
13.11367810000002
 11
70.87528972349388
 21
-2.119897088833438
  0
LINE
  5
20A
100
AcDbEntity
  8
0
  6
ByLayer
 62
  256
370
   -1
100
AcDbLine
 10
84.66259817650608
 20
0.3111773888334728
 11
68.61786339999998
 21
10.68260370000002
  0
LINE
  5
20B
100
AcDbEntity
  8
0
  6
ByLayer
 62
  256
370
   -1
100
AcDbLine
 10
79.09717407650609
 20
31.87426578883347
 11
67.56729189999999
 21
16.64069060000002
  0
LINE
  5
20C
100
AcDbEntity
  8
0
  6
ByLayer
 62
  256
370
   -1
100
AcDbLine
 10
81.35460035301219
 20
19.07176507766694
 11
65.30986557650608
 21
29.44319138883347
  0
LINE
  5
20D
100
AcDbEntity
  8
0
  6
ByLayer
 62
  256
370
   -1
100
AcDbLine
 10
75.78917637650608
 20
50.63485348883345
 11
64.25929419999997
 21
35.40127829999999
  0
LINE
  5
20E
100
AcDbEntity
  8
0
  6
ByLayer
 62
  256
370
   -1
100
AcDbLine
 10
78.04660265301217
 20
37.83235277766692
 11
62.00186787650607
 21
48.20377908883348
  0
LINE
  5
20F
100
AcDbEntity
  8
0
  6
ByLayer
 62
  256
370
   -1
100
AcDbLine
 10
56.20158917650609
 20
52.01700258883346
 11
44.67170699999998
 21
36.78342740000001
  0
LINE
  5
210
100
AcDbEntity
  8
0
  6
ByLayer
 62
  256
370
   -1
100
AcDbLine
 10
58.45901545301219
 20
39.21450187766693
 11
42.41428067650608
 21
49.58592818883349
  0
LINE
  5
211
100
AcDbEntity
  8
0
  6
ByLayer
 62
  256
370
   -1
100
AcDbLine
 10
59.50958697650609
 20
33.25641488883347
 11
47.97970479999998
 21
18.02283969999998
  0
LINE
  5
212
100
AcDbEntity
  8
0
  6
ByLayer
 62
  256
370
   -1
100
AcDbLine
 10
61.76701325301218
 20
20.45391417766691
 11
45.72227847650608
 21
30.8253404888335
  0
LINE
  5
213
100
AcDbEntity
  8
0
  6
ByLayer
 62
  256
370
   -1
100
AcDbLine
 10
62.81758477650608
 20
14.49582718883347
 11
51.28770259999997
 21
-0.7377479999999874
  0
LINE
  5
214
100
AcDbEntity
  8
0
  6
ByLayer
 62
  256
370
   -1
100
AcDbLine
 10
65.07501105301218
 20
1.693326477666952
 11
49.03027627650607
 21
12.06475278883347
  0
LINE
  5
215
100
AcDbEntity
  8
0
  6
ByLayer
 62
  256
370
   -1
100
AcDbLine
 10
44.88399647650611
 20
6.497682488833471
 11
33.3541143
 21
-8.735892699999999
  0
LINE
  5
216
100
AcDbEntity
  8
0
  6
ByLayer
 62
  256
370
   -1
100
AcDbLine
 10
47.1414227530122
 20
-6.304818222333074
 11
31.0966879765061
 21
4.066608088833485
  0
LINE
  5
217
100
AcDbEntity
  8
0
  6
ByLayer
 62
  256
370
   -1
100
AcDbLine
 10
41.5759986765061
 20
25.25827018883348
 11
30.04611649999999
 21
10.02469500000002
  0
LINE
  5
218
100
AcDbEntity
  8
0
  6
ByLayer
 62
  256
370
   -1
100
AcDbLine
 10
43.83342495301219
 20
12.45576947766693
 11
27.78869017650609
 21
22.82719578883348
  0
LINE
  5
219
100
AcDbEntity
  8
0
  6
ByLayer
 62
  256
370
   -1
100
AcDbLine
 10
38.26800097650608
 20
44.01885788883347
 11
26.73811879999997
 21
28.78528269999998
  0
LINE
  5
21A
100
AcDbEntity
  8
0
  6
ByLayer
 62
  256
370
   -1
100
AcDbLine
 10
40.52542725301218
 20
31.21635717766694
 11
24.48069247650607
 21
41.58778348883349
  0
LINE
  5
21B
100
AcDbEntity
  8
0
  6
ByLayer
 62
  256
370
   -1
100
AcDbLine
 10
20.33441267650609
 20
36.02071318883347
 11
8.804530499999988
 21
20.78713800000001
  0
LINE
  5
21C
100
AcDbEntity
  8
0
  6
ByLayer
 62
  256
370
   -1
100
AcDbLine
 10
22.59183895301219
 20
23.21821247766694
 11
6.547104176506086
 21
33.58963878883347
  0
LINE
  5
21D
100
AcDbEntity
  8
0
  6
ByLayer
 62
  256
370
   -1
100
AcDbLine
 10
23.64241047650608
 20
17.26012548883345
 11
12.11252829999998
 21
2.026550300000011
  0
LINE
  5
21E
100
AcDbEntity
  8
0
  6
ByLayer
 62
  256
370
   -1
100
AcDbLine
 10
25.89983675301218
 20
4.457624777666936
 11
9.855101976506074
 21
14.82905108883345
  0
LINE
  5
21F
100
AcDbEntity
  8
0
  6
ByLayer
 62
  256
370
   -1
100
AcDbLine
 10
26.95040827650609
 20
-1.500462211166548
 11
15.42052609999999
 21
-16.73403739999999
  0
LINE
  5
220
100
AcDbEntity
  8
0
  6
ByLayer
 62
  256
370
   -1
100
AcDbLine
 10
29.20783455301219
 20
-14.30296292233306
 11
13.16309977650608
 21
-3.931536611166534
  0
LINE
  5
221
100
AcDbEntity
  8
0
  6
ByLayer
 62
  256
370
   -1
100
AcDbLine
 10
45.15584627650609
 20
-22.47019851116653
 11
33.62596409999998
 21
-37.70377369999999
  0
LINE
  5
222
100
AcDbEntity
  8
0
  6
ByLayer
 62
  256
370
   -1
100
AcDbLine
 10
47.41327255301218
 20
-35.27269922233306
 11
31.36853777650608
 21
-24.90127291116653
  0
LINE
  5
223
100
AcDbEntity
  8
0
  6
ByLayer
 62
  256
370
   -1
100
AcDbLine
 10
59.67500000000003
 20
-12.21249999999999
 11
73.67500000000003
 21
-25.21249999999999
  0
LINE
  5
224
100
AcDbEntity
  8
0
  6
ByLayer
 62
  256
370
   -1
100
AcDbLine
 10
73.67500000000003
 20
-25.21249999999999
 11
73.67500000000003
 21
-12.21249999999999
  0
LINE
  5
225
100
AcDbEntity
  8
0
  6
ByLayer
 62
  256
370
   -1
100
AcDbLine
 10
73.67500000000003
 20
-12.21249999999999
 11
59.67500000000003
 21
-25.21249999999999
  0
LINE
  5
226
100
AcDbEntity
  8
0
  6
ByLayer
 62
  256
370
   -1
100
AcDbLine
 10
-73.67499999999998
 20
-12.21249999999999
 11
-59.67499999999998
 21
-25.21249999999999
  0
LINE
  5
227
100
AcDbEntity
  8
0
  6
ByLayer
 62
  256
370
   -1
100
AcDbLine
 10
-59.67499999999998
 20
-12.21249999999999
 11
-73.67499999999998
 21
-25.21249999999999
  0
LINE
  5
228
100
AcDbEntity
  8
0
  6
ByLayer
 62
  256
370
   -1
100
AcDbLine
 10
-6.999999999999986
 20
-26.5
 11
7.000000000000014
 21
-39.5
  0
LINE
  5
229
100
AcDbEntity
  8
0
  6
ByLayer
 62
  256
370
   -1
100
AcDbLine
 10
7.000000000000014
 20
-26.5
 11
-6.999999999999986
 21
-39.5
  0
LINE
  5
22A
100
AcDbEntity
  8
0
  6
ByLayer
 62
  256
370
   -1
100
AcDbLine
 10
-117.1634934536058
 20
32.51921099367088
 11
-104.3609926536058
 21
30.26178469367089
  0
LINE
  5
22B
100
AcDbEntity
  8
0
  6
ByLayer
 62
  256
370
   -1
100
AcDbLine
 10
-120.4714912536058
 20
13.75862329367088
 11
-107.6689904536058
 21
11.50119699367088
  0
LINE
  5
22C
100
AcDbEntity
  8
0
  6
ByLayer
 62
  256
370
   -1
100
AcDbLine
 10
-97.57590635360577
 20
33.90136009367087
 11
-84.77340555360577
 21
31.64393379367088
  0
LINE
  5
22D
100
AcDbEntity
  8
0
  6
ByLayer
 62
  256
370
   -1
100
AcDbLine
 10
-100.8839041536058
 20
15.14077239367089
 11
-88.08140335360577
 21
12.88334609367088
  0
LINE
  5
22E
100
AcDbEntity
  8
0
  6
ByLayer
 62
  256
370
   -1
100
AcDbLine
 10
-104.1919019536058
 20
-3.619815306329118
 11
-91.38940115360576
 21
-5.877241606329124
  0
LINE
  5
22F
100
AcDbEntity
  8
0
  6
ByLayer
 62
  256
370
   -1
100
AcDbLine
 10
-123.7794890536058
 20
-5.001964406329124
 11
-110.9769882536058
 21
-7.259390706329116
  0
LINE
  5
230
100
AcDbEntity
  8
0
  6
ByLayer
 62
  256
370
   -1
100
AcDbLine
 10
-84.60431475360576
 20
-2.237666106329117
 11
-71.80181395360576
 21
-4.495092406329123
  0
LINE
  5
231
100
AcDbEntity
  8
0
  6
ByLayer
 62
  256
370
   -1
100
AcDbLine
 10
-81.29631695360577
 20
16.52292159367088
 11
-68.49381615360576
 21
14.26549529367088
  0
LINE
  5
232
100
AcDbEntity
  8
0
  6
ByLayer
 62
  256
370
   -1
100
AcDbLine
 10
-77.98831925360577
 20
35.28350929367089
 11
-65.18581845360576
 21
33.02608299367088
  0
LINE
  5
233
100
AcDbEntity
  8
0
  6
ByLayer
 62
  256
370
   -1
100
AcDbLine
 10
-58.40073205360577
 20
36.66565839367088
 11
-45.59823125360577
 21
34.40823209367089
  0
LINE
  5
234
100
AcDbEntity
  8
0
  6
ByLayer
 62
  256
370
   -1
100
AcDbLine
 10
-61.70872985360577
 20
17.90507069367088
 11
-48.90622905360578
 21
15.64764439367088
  0
LINE
  5
235
100
AcDbEntity
  8
0
  6
ByLayer
 62
  256
370
   -1
100
AcDbLine
 10
-65.01672765360577
 20
-0.8555170063291249
 11
-52.21422685360579
 21
-3.112943306329116
  0
LINE
  5
236
100
AcDbEntity
  8
0
  6
ByLayer
 62
  256
370
   -1
100
AcDbLine
 10
-73.17499999999998
 20
-27.71249999999999
 11
-60.17499999999998
 21
-27.71249999999999
  0
LINE
  5
237
100
AcDbEntity
  8
0
  6
ByLayer
 62
  256
370
   -1
100
AcDbLine
 10
-47.08313935360577
 20
-8.853661706329122
 11
-34.28063855360576
 21
-11.11108800632911
  0
LINE
  5
238
100
AcDbEntity
  8
0
  6
ByLayer
 62
  256
370
   -1
100
AcDbLine
 10
-43.77514155360578
 20
9.906925993670878
 11
-30.97264075360578
 21
7.649499693670881
  0
LINE
  5
239
100
AcDbEntity
  8
0
  6
ByLayer
 62
  256
370
   -1
100
AcDbLine
 10
-40.46714385360578
 20
28.66751369367088
 11
-27.66464305360578
 21
26.41008739367088
  0
LINE
  5
23A
100
AcDbEntity
  8
0
  6
ByLayer
 62
  256
370
   -1
100
AcDbLine
 10
-22.53355555360578
 20
20.66936899367089
 11
-9.731054753605779
 21
18.41194269367088
  0
LINE
  5
23B
100
AcDbEntity
  8
0
  6
ByLayer
 62
  256
370
   -1
100
AcDbLine
 10
-25.84155335360578
 20
1.908781293670882
 11
-13.03905255360578
 21
-0.3486450063291229
  0
LINE
  5
23C
100
AcDbEntity
  8
0
  6
ByLayer
 62
  256
370
   -1
100
AcDbLine
 10
-29.14955115360578
 20
-16.85180640632912
 11
-16.34705035360577
 21
-19.10923270632912
  0
LINE
  5
23D
100
AcDbEntity
  8
0
  6
ByLayer
 62
  256
370
   -1
100
AcDbLine
 10
-47.35498915360577
 20
-37.82154270632911
 11
-34.55248835360577
 21
-40.07896900632912
  0
LINE
  5
23E
100
AcDbEntity
  8
0
  6
ByLayer
 62
  256
370
   -1
100
AcDbLine
 10
-6.499999999999986
 20
-42
 11
6.500000000000014
 21
-42
  0
LINE
  5
23F
100
AcDbEntity
  8
0
  6
ByLayer
 62
  256
370
   -1
100
AcDbLine
 10
9.731054753605806
 20
18.41194269367088
 11
22.53355555360583
 21
20.66936899367089
  0
LINE
  5
240
100
AcDbEntity
  8
0
  6
ByLayer
 62
  256
370
   -1
100
AcDbLine
 10
13.03905255360582
 20
-0.3486450063291229
 11
25.84155335360581
 21
1.908781293670882
  0
LINE
  5
241
100
AcDbEntity
  8
0
  6
ByLayer
 62
  256
370
   -1
100
AcDbLine
 10
16.34705035360583
 20
-19.10923270632912
 11
29.14955115360582
 21
-16.85180640632912
  0
LINE
  5
242
100
AcDbEntity
  8
0
  6
ByLayer
 62
  256
370
   -1
100
AcDbLine
 10
34.55248835360582
 20
-40.07896900632912
 11
47.35498915360581
 21
-37.82154270632911
  0
LINE
  5
243
100
AcDbEntity
  8
0
  6
ByLayer
 62
  256
370
   -1
100
AcDbLine
 10
60.17500000000003
 20
-27.71249999999999
 11
73.17500000000003
 21
-27.71249999999999
  0
LINE
  5
244
100
AcDbEntity
  8
0
  6
ByLayer
 62
  256
370
   -1
100
AcDbLine
 10
34.2806385536058
 20
-11.11108800632911
 11
47.08313935360582
 21
-8.853661706329122
  0
LINE
  5
245
100
AcDbEntity
  8
0
  6
ByLayer
 62
  256
370
   -1
100
AcDbLine
 10
30.97264075360582
 20
7.649499693670881
 11
43.77514155360581
 21
9.906925993670878
  0
LINE
  5
246
100
AcDbEntity
  8
0
  6
ByLayer
 62
  256
370
   -1
100
AcDbLine
 10
27.66464305360581
 20
26.41008739367088
 11
40.46714385360581
 21
28.66751369367088
  0
LINE
  5
247
100
AcDbEntity
  8
0
  6
ByLayer
 62
  256
370
   -1
100
AcDbLine
 10
45.5982312536058
 20
34.40823209367089
 11
58.40073205360582
 21
36.66565839367088
  0
LINE
  5
248
100
AcDbEntity
  8
0
  6
ByLayer
 62
  256
370
   -1
100
AcDbLine
 10
65.1858184536058
 20
33.02608299367088
 11
77.98831925360582
 21
35.28350929367089
  0
LINE
  5
249
100
AcDbEntity
  8
0
  6
ByLayer
 62
  256
370
   -1
100
AcDbLine
 10
68.49381615360582
 20
14.26549529367088
 11
81.29631695360581
 21
16.52292159367088
  0
LINE
  5
24A
100
AcDbEntity
  8
0
  6
ByLayer
 62
  256
370
   -1
100
AcDbLine
 10
71.8018139536058
 20
-4.495092406329123
 11
84.60431475360582
 21
-2.237666106329117
  0
LINE
  5
24B
100
AcDbEntity
  8
0
  6
ByLayer
 62
  256
370
   -1
100
AcDbLine
 10
84.77340555360581
 20
31.64393379367088
 11
97.5759063536058
 21
33.90136009367087
  0
LINE
  5
24C
100
AcDbEntity
  8
0
  6
ByLayer
 62
  256
370
   -1
100
AcDbLine
 10
88.08140335360582
 20
12.88334609367088
 11
100.8839041536058
 21
15.14077239367089
  0
LINE
  5
24D
100
AcDbEntity
  8
0
  6
ByLayer
 62
  256
370
   -1
100
AcDbLine
 10
91.3894011536058
 20
-5.877241606329124
 11
104.1919019536058
 21
-3.619815306329118
  0
LINE
  5
24E
100
AcDbEntity
  8
0
  6
ByLayer
 62
  256
370
   -1
100
AcDbLine
 10
110.9769882536058
 20
-7.259390706329116
 11
123.7794890536058
 21
-5.001964406329124
  0
LINE
  5
24F
100
AcDbEntity
  8
0
  6
ByLayer
 62
  256
370
   -1
100
AcDbLine
 10
107.6689904536058
 20
11.50119699367088
 11
120.4714912536058
 21
13.75862329367088
  0
LINE
  5
250
100
AcDbEntity
  8
0
  6
ByLayer
 62
  256
370
   -1
100
AcDbLine
 10
104.3609926536058
 20
30.26178469367089
 11
117.1634934536058
 21
32.51921099367088
  0
LINE
  5
251
100
AcDbEntity
  8
0
  6
ByLayer
 62
  256
370
   -1
100
AcDbLine
 10
48.90622905360581
 20
15.64764439367088
 11
61.7087298536058
 21
17.90507069367088
  0
LINE
  5
252
100
AcDbEntity
  8
0
  6
ByLayer
 62
  256
370
   -1
100
AcDbLine
 10
52.21422685360582
 20
-3.112943306329116
 11
65.01672765360581
 21
-0.8555170063291251
  0
ENDSEC
  0
SECTION
  2
OBJECTS
  0
DICTIONARY
  5
C
330
0
100
AcDbDictionary
281
    1
  3
ACAD_GROUP
350
D
  0
DICTIONARY
  5
D
330
C
100
AcDbDictionary
281
    1
  0
PLOTSETTINGS
  5
253
100
AcDbPlotSettings
  6
1x1
 40
0
 41
0
 42
0
 43
0
  0
ENDSEC
  0
EOF
