999
dxfrw 0.6.3
  0
SECTION
  2
HEADER
  9
$ACADVER
  1
AC1021
  9
$DWGCODEPAGE
  3
ANSI_1252
  9
$INSBASE
 10
0
 20
0
 30
0
  9
$EXTMIN
 10
-4.440892098500626e-16
 20
5.828670879282072e-16
 30
0
  9
$EXTMAX
 10
330.7250960454019
 20
117.2323500847027
 30
0
  9
$LIMMIN
 10
0
 20
0
  9
$LIMMAX
 10
420
 20
297
  9
$ORTHOMODE
 70
    0
  9
$REGENMODE
 70
    1
  9
$FILLMODE
 70
    1
  9
$QTEXTMODE
 70
    0
  9
$MIRRTEXT
 70
    0
  9
$LTSCALE
 40
1
  9
$ATTMODE
 70
    0
  9
$TEXTSIZE
 40
2.5
  9
$TRACEWID
 40
15.68
  9
$TEXTSTYLE
  7
STANDARD
  9
$CLAYER
  8
noname4
  9
$CELTYPE
  6
BYLAYER
  9
$CECOLOR
 62
  256
  9
$CELTSCALE
 40
1
  9
$DISPSILH
 70
    0
  9
$DIMSCALE
 40
2.5
  9
$DIMASZ
 40
2.5
  9
$DIMEXO
 40
0.625
  9
$DIMDLI
 40
3.75
  9
$DIMRND
 40
0
  9
$DIMDLE
 40
0
  9
$DIMEXE
 40
1.25
  9
$DIMTP
 40
0
  9
$DIMTM
 40
0
  9
$DIMTXT
 40
2.5
  9
$DIMCEN
 40
2.5
  9
$DIMTSZ
 40
0
  9
$DIMTOL
 70
    0
  9
$DIMLIM
 70
    0
  9
$DIMTIH
 70
    0
  9
$DIMTOH
 70
    0
  9
$DIMSE1
 70
    0
  9
$DIMSE2
 70
    0
  9
$DIMTAD
 70
    1
  9
$DIMZIN
 70
    1
  9
$DIMBLK
  1

  9
$DIMASO
 70
    1
  9
$DIMSHO
 70
    1
  9
$DIMPOST
  1

  9
$DIMAPOST
  1

  9
$DIMALT
 70
    0
  9
$DIMALTD
 70
    3
  9
$DIMALTF
 40
0.03937
  9
$DIMLFAC
 40
1
  9
$DIMTOFL
 70
    1
  9
$DIMTVP
 40
0
  9
$DIMTIX
 70
    0
  9
$DIMSOXD
 70
    0
  9
$DIMSAH
 70
    0
  9
$DIMBLK1
  1

  9
$DIMBLK2
  1

  9
$DIMSTYLE
  2
STANDARD
  9
$DIMCLRD
 70
    0
  9
$DIMCLRE
 70
    0
  9
$DIMCLRT
 70
    0
  9
$DIMTFAC
 40
1
  9
$DIMGAP
 40
0.625
  9
$DIMJUST
 70
    0
  9
$DIMSD1
 70
    0
  9
$DIMSD2
 70
    0
  9
$DIMTOLJ
 70
    0
  9
$DIMTZIN
 70
    8
  9
$DIMALTZ
 70
    0
  9
$DIMALTTZ
 70
    0
  9
$DIMUPT
 70
    0
  9
$DIMDEC
 70
    4
  9
$DIMTDEC
 70
    2
  9
$DIMALTU
 70
    2
  9
$DIMALTTD
 70
    3
  9
$DIMTXSTY
  7
STANDARD
  9
$DIMAUNIT
 70
    0
  9
$DIMADEC
 70
    2
  9
$DIMALTRND
 40
0
  9
$DIMAZIN
 70
    0
  9
$DIMDSEP
 70
   44
  9
$DIMATFIT
 70
    3
  9
$DIMFRAC
 70
    0
  9
$DIMLDRBLK
  1
STANDARD
  9
$DIMLUNIT
 70
    2
  9
$DIMLWD
 70
   -2
  9
$DIMLWE
 70
   -2
  9
$DIMTMOVE
 70
    0
  9
$DIMFXL
 40
1
  9
$DIMFXLON
 70
    0
  9
$DIMJOGANG
 40
0.7854
  9
$DIMTFILL
 70
    0
  9
$DIMTFILLCLR
 70
    0
  9
$DIMARCSYM
 70
    0
  9
$DIMLTYPE
  6

  9
$DIMLTEX1
  6

  9
$DIMLTEX2
  6

  9
$LUNITS
 70
    2
  9
$LUPREC
 70
    4
  9
$SKETCHINC
 40
1
  9
$FILLETRAD
 40
0
  9
$AUNITS
 70
    0
  9
$AUPREC
 70
    2
  9
$MENU
  1
.
  9
$ELEVATION
 40
0
  9
$PELEVATION
 40
0
  9
$THICKNESS
 40
0
  9
$LIMCHECK
 70
    0
  9
$CHAMFERA
 40
0
  9
$CHAMFERB
 40
0
  9
$CHAMFERC
 40
0
  9
$CHAMFERD
 40
0
  9
$SKPOLY
 70
    0
  9
$USRTIMER
 70
    1
  9
$ANGBASE
 50
0
  9
$ANGDIR
 70
    0
  9
$PDMODE
 70
   34
  9
$PDSIZE
 40
0
  9
$PLINEWID
 40
0
  9
$SPLFRAME
 70
    0
  9
$SPLINETYPE
 70
    2
  9
$SPLINESEGS
 70
    8
  9
$HANDSEED
  5
20000
  9
$SURFTAB1
 70
    6
  9
$SURFTAB2
 70
    6
  9
$SURFTYPE
 70
    6
  9
$SURFU
 70
    6
  9
$SURFV
 70
    6
  9
$UCSBASE
  2

  9
$UCSNAME
  2

  9
$UCSORG
 10
0
 20
0
 30
0
  9
$UCSXDIR
 10
1
 20
0
 30
0
  9
$UCSYDIR
 10
0
 20
1
 30
0
  9
$UCSORTHOREF
  2

  9
$UCSORTHOVIEW
 70
    0
  9
$UCSORGTOP
 10
0
 20
0
 30
0
  9
$UCSORGBOTTOM
 10
0
 20
0
 30
0
  9
$UCSORGLEFT
 10
0
 20
0
 30
0
  9
$UCSORGRIGHT
 10
0
 20
0
 30
0
  9
$UCSORGFRONT
 10
0
 20
0
 30
0
  9
$UCSORGBACK
 10
0
 20
0
 30
0
  9
$PUCSBASE
  2

  9
$PUCSNAME
  2

  9
$PUCSORG
 10
0
 20
0
 30
0
  9
$PUCSXDIR
 10
1
 20
0
 30
0
  9
$PUCSYDIR
 10
0
 20
1
 30
0
  9
$PUCSORTHOREF
  2

  9
$PUCSORTHOVIEW
 70
    0
  9
$PUCSORGTOP
 10
0
 20
0
 30
0
  9
$PUCSORGBOTTOM
 10
0
 20
0
 30
0
  9
$PUCSORGLEFT
 10
0
 20
0
 30
0
  9
$PUCSORGRIGHT
 10
0
 20
0
 30
0
  9
$PUCSORGFRONT
 10
0
 20
0
 30
0
  9
$PUCSORGBACK
 10
0
 20
0
 30
0
  9
$USERI1
 70
    0
  9
$USERI2
 70
    0
  9
$USERI3
 70
    0
  9
$USERI4
 70
    0
  9
$USERI5
 70
    0
  9
$USERR1
 40
0
  9
$USERR2
 40
0
  9
$USERR3
 40
0
  9
$USERR4
 40
0
  9
$USERR5
 40
0
  9
$WORLDVIEW
 70
    1
  9
$SHADEDGE
 70
    3
  9
$SHADEDIF
 70
   70
  9
$TILEMODE
 70
    1
  9
$MAXACTVP
 70
   64
  9
$PINSBASE
 10
0
 20
0
 30
0
  9
$PLIMCHECK
 70
    0
  9
$PEXTMIN
 10
0
 20
0
 30
0
  9
$PEXTMAX
 10
0
 20
0
 30
0
  9
$GRIDMODE
 70
    1
  9
$SNAPSTYLE
 70
    0
  9
$PLIMMIN
 10
0
 20
0
  9
$PLIMMAX
 10
297
 20
210
  9
$UNITMODE
 70
    0
  9
$VISRETAIN
 70
    1
  9
$PLINEGEN
 70
    0
  9
$PSLTSCALE
 70
    1
  9
$TREEDEPTH
 70
 3020
  9
$CMLSTYLE
  2
Standard
  9
$CMLJUST
 70
    0
  9
$CMLSCALE
 40
20
  9
$PROXYGRAPHICS
 70
    1
  9
$MEASUREMENT
 70
    1
  9
$CELWEIGHT
370
   -1
  9
$ENDCAPS
280
    0
  9
$JOINSTYLE
280
    0
  9
$LWDISPLAY
290
    0
  9
$INSUNITS
 70
    0
  9
$HYPERLINKBASE
  1

  9
$STYLESHEET
  1

  9
$XEDIT
290
    1
  9
$CEPSNTYPE
380
    0
  9
$PSTYLEMODE
290
    1
  9
$EXTNAMES
290
    1
  9
$PSVPSCALE
 40
0
  9
$OLESTARTUP
290
    0
  9
$SORTENTS
280
  127
  9
$INDEXCTL
280
    0
  9
$HIDETEXT
280
    1
  9
$XCLIPFRAME
290
    0
  9
$HALOGAP
280
    0
  9
$OBSCOLOR
 70
  257
  9
$OBSLTYPE
280
    0
  9
$INTERSECTIONDISPLAY
280
    0
  9
$INTERSECTIONCOLOR
 70
  257
  9
$DIMASSOC
280
    1
  9
$PROJECTNAME
  1

  9
$CAMERADISPLAY
290
    0
  9
$LENSLENGTH
 40
50
  9
$CAMERAHEIGHT
 40
0
  9
$STEPSPERSEC
 40
2
  9
$STEPSIZE
 40
50
  9
$3DDWFPREC
 40
2
  9
$PSOLWIDTH
 40
5
  9
$PSOLHEIGHT
 40
80
  9
$LOFTANG1
 40
1.570796326794897
  9
$LOFTANG2
 40
1.570796326794897
  9
$LOFTMAG1
 40
0
  9
$LOFTMAG2
 40
0
  9
$LOFTPARAM
 70
    7
  9
$LOFTNORMALS
280
    1
  9
$LATITUDE
 40
1
  9
$LONGITUDE
 40
1
  9
$NORTHDIRECTION
 40
0
  9
$TIMEZONE
 70
-8000
  9
$LIGHTGLYPHDISPLAY
280
    1
  9
$TILEMODELIGHTSYNCH
280
    1
  9
$SOLIDHIST
280
    1
  9
$SHOWHIST
280
    1
  9
$DWFFRAME
280
    2
  9
$DGNFRAME
280
    0
  9
$REALWORLDSCALE
290
    1
  9
$INTERFERECOLOR
 62
    1
  9
$CSHADOW
280
    0
  9
$SHADOWPLANELOCATION
 40
0
  0
ENDSEC
  0
SECTION
  2
CLASSES
  0
ENDSEC
  0
SECTION
  2
TABLES
  0
TABLE
  2
VPORT
  5
8
330
0
100
AcDbSymbolTable
 70
    1
  0
VPORT
  5
31
330
2
100
AcDbSymbolTableRecord
100
AcDbViewportTableRecord
  2
*ACTIVE
 70
    0
 10
0
 20
0
 11
1
 21
1
 12
266.3877151829643
 22
101.8595635432431
 13
0
 23
0
 14
10
 24
10
 15
10
 25
10
 16
0
 26
0
 36
1
 17
0
 27
0
 37
0
 40
299.4782086026385
 41
1.62962962962963
 42
50
 43
0
 44
0
 50
0
 51
0
 71
    0
 72
  100
 73
    1
 74
    3
 75
    0
 76
    1
 77
    0
 78
    0
281
    0
 65
    1
110
0
120
0
130
0
111
1
121
0
131
0
112
0
122
1
132
0
 79
    0
146
0
348
10020
 60
    7
 61
    5
292
1
282
    1
141
0
142
0
 63
  250
421
3358443
  0
ENDTAB
  0
TABLE
  2
LTYPE
  5
5
330
0
100
AcDbSymbolTable
 70
    4
  0
LTYPE
  5
14
330
5
100
AcDbSymbolTableRecord
100
AcDbLinetypeTableRecord
  2
ByBlock
 70
    0
  3

 72
   65
 73
    0
 40
0
  0
LTYPE
  5
15
330
5
100
AcDbSymbolTableRecord
100
AcDbLinetypeTableRecord
  2
ByLayer
 70
    0
  3

 72
   65
 73
    0
 40
0
  0
LTYPE
  5
16
330
5
100
AcDbSymbolTableRecord
100
AcDbLinetypeTableRecord
  2
Continuous
 70
    0
  3
Solid line
 72
   65
 73
    0
 40
0
  0
LTYPE
  5
32
330
5
100
AcDbSymbolTableRecord
100
AcDbLinetypeTableRecord
  2
DOT
 70
    0
  3
Dot . . . . . . . . . . . . . . . . . . . . . .
 72
   65
 73
    2
 40
6.35
 49
0
 74
    0
 49
-6.35
 74
    0
  0
LTYPE
  5
33
330
5
100
AcDbSymbolTableRecord
100
AcDbLinetypeTableRecord
  2
DOTTINY
 70
    0
  3
Dot (.15x) .....................................
 72
   65
 73
    2
 40
0.9525
 49
0
 74
    0
 49
-0.9525
 74
    0
  0
LTYPE
  5
34
330
5
100
AcDbSymbolTableRecord
100
AcDbLinetypeTableRecord
  2
DOT2
 70
    0
  3
Dot (.5x) .....................................
 72
   65
 73
    2
 40
3.175
 49
0
 74
    0
 49
-3.175
 74
    0
  0
LTYPE
  5
35
330
5
100
AcDbSymbolTableRecord
100
AcDbLinetypeTableRecord
  2
DOTX2
 70
    0
  3
Dot (2x) .  .  .  .  .  .  .  .  .  .  .  .  .
 72
   65
 73
    2
 40
12.7
 49
0
 74
    0
 49
-12.7
 74
    0
  0
LTYPE
  5
36
330
5
100
AcDbSymbolTableRecord
100
AcDbLinetypeTableRecord
  2
DASHED
 70
    0
  3
Dashed _ _ _ _ _ _ _ _ _ _ _ _ _ _ _ _ _
 72
   65
 73
    2
 40
19.05
 49
12.7
 74
    0
 49
-6.35
 74
    0
  0
LTYPE
  5
37
330
5
100
AcDbSymbolTableRecord
100
AcDbLinetypeTableRecord
  2
DASHEDTINY
 70
    0
  3
Dashed (.15x) _ _ _ _ _ _ _ _ _ _ _ _ _ _ _ _ _
 72
   65
 73
    2
 40
2.8575
 49
1.905
 74
    0
 49
-0.9525
 74
    0
  0
LTYPE
  5
38
330
5
100
AcDbSymbolTableRecord
100
AcDbLinetypeTableRecord
  2
DASHED2
 70
    0
  3
Dashed (.5x) _ _ _ _ _ _ _ _ _ _ _ _ _ _ _ _ _
 72
   65
 73
    2
 40
9.524999999999999
 49
6.35
 74
    0
 49
-3.175
 74
    0
  0
LTYPE
  5
39
330
5
100
AcDbSymbolTableRecord
100
AcDbLinetypeTableRecord
  2
DASHEDX2
 70
    0
  3
Dashed (2x) ____  ____  ____  ____  ____  ___
 72
   65
 73
    2
 40
38.09999999999999
 49
25.4
 74
    0
 49
-12.7
 74
    0
  0
LTYPE
  5
3A
330
5
100
AcDbSymbolTableRecord
100
AcDbLinetypeTableRecord
  2
DASHDOT
 70
    0
  3
Dash dot __ . __ . __ . __ . __ . __ . __ . __
 72
   65
 73
    4
 40
25.4
 49
12.7
 74
    0
 49
-6.35
 74
    0
 49
0
 74
    0
 49
-6.35
 74
    0
  0
LTYPE
  5
3B
330
5
100
AcDbSymbolTableRecord
100
AcDbLinetypeTableRecord
  2
DASHDOTTINY
 70
    0
  3
Dash dot (.15x) _._._._._._._._._._._._._._._.
 72
   65
 73
    4
 40
3.81
 49
1.905
 74
    0
 49
-0.9525
 74
    0
 49
0
 74
    0
 49
-0.9525
 74
    0
  0
LTYPE
  5
3C
330
5
100
AcDbSymbolTableRecord
100
AcDbLinetypeTableRecord
  2
DASHDOT2
 70
    0
  3
Dash dot (.5x) _._._._._._._._._._._._._._._.
 72
   65
 73
    4
 40
12.7
 49
6.35
 74
    0
 49
-3.175
 74
    0
 49
0
 74
    0
 49
-3.175
 74
    0
  0
LTYPE
  5
3D
330
5
100
AcDbSymbolTableRecord
100
AcDbLinetypeTableRecord
  2
DASHDOTX2
 70
    0
  3
Dash dot (2x) ____  .  ____  .  ____  .  ___
 72
   65
 73
    4
 40
50.8
 49
25.4
 74
    0
 49
-12.7
 74
    0
 49
0
 74
    0
 49
-12.7
 74
    0
  0
LTYPE
  5
3E
330
5
100
AcDbSymbolTableRecord
100
AcDbLinetypeTableRecord
  2
DIVIDE
 70
    0
  3
Divide ____ . . ____ . . ____ . . ____ . . ____
 72
   65
 73
    6
 40
31.75
 49
12.7
 74
    0
 49
-6.35
 74
    0
 49
0
 74
    0
 49
-6.35
 74
    0
 49
0
 74
    0
 49
-6.35
 74
    0
  0
LTYPE
  5
3F
330
5
100
AcDbSymbolTableRecord
100
AcDbLinetypeTableRecord
  2
DIVIDETINY
 70
    0
  3
Divide (.15x) __..__..__..__..__..__..__..__.._
 72
   65
 73
    6
 40
4.7625
 49
1.905
 74
    0
 49
-0.9525
 74
    0
 49
0
 74
    0
 49
-0.9525
 74
    0
 49
0
 74
    0
 49
-0.9525
 74
    0
  0
LTYPE
  5
40
330
5
100
AcDbSymbolTableRecord
100
AcDbLinetypeTableRecord
  2
DIVIDE2
 70
    0
  3
Divide (.5x) __..__..__..__..__..__..__..__.._
 72
   65
 73
    6
 40
15.875
 49
6.35
 74
    0
 49
-3.175
 74
    0
 49
0
 74
    0
 49
-3.175
 74
    0
 49
0
 74
    0
 49
-3.175
 74
    0
  0
LTYPE
  5
41
330
5
100
AcDbSymbolTableRecord
100
AcDbLinetypeTableRecord
  2
DIVIDEX2
 70
    0
  3
Divide (2x) ________  .  .  ________  .  .  _
 72
   65
 73
    6
 40
63.5
 49
25.4
 74
    0
 49
-12.7
 74
    0
 49
0
 74
    0
 49
-12.7
 74
    0
 49
0
 74
    0
 49
-12.7
 74
    0
  0
LTYPE
  5
42
330
5
100
AcDbSymbolTableRecord
100
AcDbLinetypeTableRecord
  2
BORDER
 70
    0
  3
Border __ __ . __ __ . __ __ . __ __ . __ __ .
 72
   65
 73
    6
 40
44.45
 49
12.7
 74
    0
 49
-6.35
 74
    0
 49
12.7
 74
    0
 49
-6.35
 74
    0
 49
0
 74
    0
 49
-6.35
 74
    0
  0
LTYPE
  5
43
330
5
100
AcDbSymbolTableRecord
100
AcDbLinetypeTableRecord
  2
BORDERTINY
 70
    0
  3
Border (.15x) __.__.__.__.__.__.__.__.__.__.__.
 72
   65
 73
    6
 40
6.6675
 49
1.905
 74
    0
 49
-0.9525
 74
    0
 49
1.905
 74
    0
 49
-0.9525
 74
    0
 49
0
 74
    0
 49
-0.9525
 74
    0
  0
LTYPE
  5
44
330
5
100
AcDbSymbolTableRecord
100
AcDbLinetypeTableRecord
  2
BORDER2
 70
    0
  3
Border (.5x) __.__.__.__.__.__.__.__.__.__.__.
 72
   65
 73
    6
 40
22.225
 49
6.35
 74
    0
 49
-3.175
 74
    0
 49
6.35
 74
    0
 49
-3.175
 74
    0
 49
0
 74
    0
 49
-3.175
 74
    0
  0
LTYPE
  5
45
330
5
100
AcDbSymbolTableRecord
100
AcDbLinetypeTableRecord
  2
BORDERX2
 70
    0
  3
Border (2x) ____  ____  .  ____  ____  .  ___
 72
   65
 73
    6
 40
88.89999999999999
 49
25.4
 74
    0
 49
-12.7
 74
    0
 49
25.4
 74
    0
 49
-12.7
 74
    0
 49
0
 74
    0
 49
-12.7
 74
    0
  0
LTYPE
  5
46
330
5
100
AcDbSymbolTableRecord
100
AcDbLinetypeTableRecord
  2
CENTER
 70
    0
  3
Center ____ _ ____ _ ____ _ ____ _ ____ _ ____
 72
   65
 73
    4
 40
50.8
 49
31.75
 74
    0
 49
-6.35
 74
    0
 49
6.35
 74
    0
 49
-6.35
 74
    0
  0
LTYPE
  5
47
330
5
100
AcDbSymbolTableRecord
100
AcDbLinetypeTableRecord
  2
CENTERTINY
 70
    0
  3
Center (.15x) ___ _ ___ _ ___ _ ___ _ ___ _ ___
 72
   65
 73
    4
 40
7.619999999999999
 49
4.7625
 74
    0
 49
-0.9525
 74
    0
 49
0.9525
 74
    0
 49
-0.9525
 74
    0
  0
LTYPE
  5
48
330
5
100
AcDbSymbolTableRecord
100
AcDbLinetypeTableRecord
  2
CENTER2
 70
    0
  3
Center (.5x) ___ _ ___ _ ___ _ ___ _ ___ _ ___
 72
   65
 73
    4
 40
28.575
 49
19.05
 74
    0
 49
-3.175
 74
    0
 49
3.175
 74
    0
 49
-3.175
 74
    0
  0
LTYPE
  5
49
330
5
100
AcDbSymbolTableRecord
100
AcDbLinetypeTableRecord
  2
CENTERX2
 70
    0
  3
Center (2x) ________  __  ________  __  _____
 72
   65
 73
    4
 40
101.6
 49
63.5
 74
    0
 49
-12.7
 74
    0
 49
12.7
 74
    0
 49
-12.7
 74
    0
  0
ENDTAB
  0
TABLE
  2
LAYER
  5
2
330
0
100
AcDbSymbolTable
 70
    1
  0
LAYER
  5
10
330
2
100
AcDbSymbolTableRecord
100
AcDbLayerTableRecord
  2
0
 70
    5
 62
    7
  6
CONTINUOUS
370
    0
390
F
  0
LAYER
  5
4A
330
2
100
AcDbSymbolTableRecord
100
AcDbLayerTableRecord
  2
noname1
 70
    4
 62
    2
  6
CONTINUOUS
370
   -3
390
F
  0
LAYER
  5
4B
330
2
100
AcDbSymbolTableRecord
100
AcDbLayerTableRecord
  2
noname2
 70
    4
 62
    4
  6
CONTINUOUS
370
   -3
390
F
  0
LAYER
  5
4C
330
2
100
AcDbSymbolTableRecord
100
AcDbLayerTableRecord
  2
noname3
 70
    4
 62
    3
  6
CONTINUOUS
370
   -3
390
F
  0
LAYER
  5
4D
330
2
100
AcDbSymbolTableRecord
100
AcDbLayerTableRecord
  2
noname4
 70
    0
 62
   16
420
8388608
  6
CONTINUOUS
370
   -3
390
F
  0
ENDTAB
  0
TABLE
  2
STYLE
  5
3
330
0
100
AcDbSymbolTable
 70
    3
  0
STYLE
  5
4E
330
2
100
AcDbSymbolTableRecord
100
AcDbTextStyleTableRecord
  2
Standard
 70
    0
 40
0
 41
1
 50
0
 71
    0
 42
1
  3
txt
  4

  0
ENDTAB
  0
TABLE
  2
VIEW
  5
6
330
0
100
AcDbSymbolTable
 70
    0
  0
ENDTAB
  0
TABLE
  2
UCS
  5
7
330
0
100
AcDbSymbolTable
 70
    0
  0
ENDTAB
  0
TABLE
  2
APPID
  5
9
330
0
100
AcDbSymbolTable
 70
    1
  0
APPID
  5
12
330
9
100
AcDbSymbolTableRecord
100
AcDbRegAppTableRecord
  2
ACAD
 70
    0
  0
APPID
  5
4F
330
9
100
AcDbSymbolTableRecord
100
AcDbRegAppTableRecord
  2
LibreCad
 70
    0
  0
ENDTAB
  0
TABLE
  2
DIMSTYLE
  5
A
330
0
100
AcDbSymbolTable
 70
    1
100
AcDbDimStyleTable
 71
    1
  0
DIMSTYLE
105
50
330
A
100
AcDbSymbolTableRecord
100
AcDbDimStyleTableRecord
  2
Standard
 70
    0
 40
2.5
 41
2.5
 42
0.625
 43
0.38
 44
1.25
 45
0
 46
0
 47
0
 48
0
 49
1
140
2.5
141
0.09
142
0
143
25.4
144
1
145
0
146
1
147
0.625
148
0
 71
    0
 72
    0
 73
    0
 74
    1
 75
    0
 76
    0
 77
    0
 78
    1
 79
    0
170
    0
171
    2
172
    0
173
    0
174
    0
175
    0
176
    0
177
    0
178
    0
179
    2
271
    4
272
    4
273
    2
274
    2
275
    0
276
    0
277
    2
278
   44
279
    0
280
    0
281
    0
282
    0
283
    1
284
    0
285
    0
286
    0
288
    0
289
    3
340
STANDARD
341

371
   -2
372
   -2
  0
ENDTAB
  0
TABLE
  2
BLOCK_RECORD
  5
1
330
0
100
AcDbSymbolTable
 70
    2
  0
BLOCK_RECORD
  5
1F
330
1
100
AcDbSymbolTableRecord
100
AcDbBlockTableRecord
  2
*Model_Space
 70
    0
280
    1
281
    0
  0
BLOCK_RECORD
  5
1E
330
1
100
AcDbSymbolTableRecord
100
AcDbBlockTableRecord
  2
*Paper_Space
 70
    0
280
    1
281
    0
  0
ENDTAB
  0
ENDSEC
  0
SECTION
  2
BLOCKS
  0
BLOCK
  5
20
330
1F
100
AcDbEntity
  8
0
100
AcDbBlockBegin
  2
*Model_Space
 70
    0
 10
0
 20
0
 30
0
  3
*Model_Space
  1

  0
ENDBLK
  5
21
330
1F
100
AcDbEntity
  8
0
100
AcDbBlockEnd
  0
BLOCK
  5
1C
330
1B
100
AcDbEntity
  8
0
100
AcDbBlockBegin
  2
*Paper_Space
 70
    0
 10
0
 20
0
 30
0
  3
*Paper_Space
  1

  0
ENDBLK
  5
1D
330
1F
100
AcDbEntity
  8
0
100
AcDbBlockEnd
  0
ENDSEC
  0
SECTION
  2
ENTITIES
  0
LWPOLYLINE
  5
51
100
AcDbEntity
  8
noname1
  6
ByLayer
 62
  256
370
   -1
100
AcDbPolyline
 90
    4
 70
    1
 43
0
 10
22.9075
 20
114.580943521907
 10
3.857500000000015
 20
114.580943521907
 10
3.857500000000015
 20
95.53094352190701
 10
22.9075
 20
95.53094352190701
  0
LWPOLYLINE
  5
52
100
AcDbEntity
  8
noname1
  6
ByLayer
 62
  256
370
   -1
100
AcDbPolyline
 90
    4
 70
    1
 43
0
 10
42.70666387467546
 20
113.8010861010919
 10
23.67201064774525
 20
114.5655967488372
 10
22.9075
 20
95.53094352190701
 10
41.94215322693019
 20
94.76643287416172
  0
LWPOLYLINE
  5
53
100
AcDbEntity
  8
noname1
  6
ByLayer
 62
  256
370
   -1
100
AcDbPolyline
 90
    4
 70
    1
 43
0
 10
62.45858036998609
 20
112.2272810002885
 10
43.46994273539458
 20
113.7550705087532
 10
41.94215322692982
 20
94.76643287416175
 10
60.93079086152132
 20
93.23864336569699
  0
LWPOLYLINE
  5
54
100
AcDbEntity
  8
noname1
  6
ByLayer
 62
  256
370
   -1
100
AcDbPolyline
 90
    4
 70
    1
 43
0
 10
82.13142500507692
 20
109.862063949653
 10
63.21939764132098
 20
112.150670729453
 10
60.93079086152095
 20
93.23864336569704
 10
79.84281822527687
 20
90.95003658589701
  0
LWPOLYLINE
  5
55
100
AcDbEntity
  8
noname1
  6
ByLayer
 62
  256
370
   -1
100
AcDbPolyline
 90
    4
 70
    1
 43
0
 10
101.6935007004461
 20
106.7092458100081
 10
82.8885548508057
 20
109.7549824355375
 10
79.84281822527625
 20
90.9500365858971
 10
98.64776407491665
 20
87.90429996036764
  0
LWPOLYLINE
  5
56
100
AcDbEntity
  8
noname1
  6
ByLayer
 62
  256
370
   -1
100
AcDbPolyline
 90
    4
 70
    1
 43
0
 10
121.1132888485905
 20
102.773906432747
 10
102.4457232255636
 20
106.5718655833946
 10
98.64776407491601
 20
87.90429996036775
 10
117.3153296979428
 20
84.10634080972014
  0
LWPOLYLINE
  5
57
100
AcDbEntity
  8
noname1
  6
ByLayer
 62
  256
370
   -1
100
AcDbPolyline
 90
    4
 70
    1
 43
0
 10
140.3595000970926
 20
98.06238647512694
 10
121.859392064814
 20
102.6064488419989
 10
117.315329697942
 20
84.10634080972034
 10
135.8154377302206
 20
79.56227844284837
  0
LWPOLYLINE
  5
58
100
AcDbEntity
  8
noname1
  6
ByLayer
 62
  256
370
   -1
100
AcDbPolyline
 90
    4
 70
    1
 43
0
 10
29.57500000000001
 20
95.03094352190701
 10
0.9999999999999996
 20
95.03094352190701
 10
0.9999999999999996
 20
75.98094352190699
 10
29.57500000000001
 20
75.98094352190699
  0
LWPOLYLINE
  5
59
100
AcDbEntity
  8
noname1
  6
ByLayer
 62
  256
370
   -1
100
AcDbPolyline
 90
    4
 70
    1
 43
0
 10
49.7524425880756
 20
93.83243675370454
 10
30.73797467813903
 20
94.99541143184356
 10
29.57500000000001
 20
75.98094352190699
 10
48.58946790993656
 20
74.81796884376797
  0
LWPOLYLINE
  5
5A
100
AcDbEntity
  8
noname1
  6
ByLayer
 62
  256
370
   -1
100
AcDbPolyline
 90
    4
 70
    1
 43
0
 10
69.46706787445973
 20
91.8453238856213
 10
50.51459037127132
 20
93.77044634695642
 10
48.58946790993619
 20
74.817968843768
 10
67.54194541312461
 20
72.89284638243288
  0
LWPOLYLINE
  5
5B
100
AcDbEntity
  8
noname1
  6
ByLayer
 62
  256
370
   -1
100
AcDbPolyline
 90
    4
 70
    1
 43
0
 10
89.08606456103561
 20
89.06862859352242
 10
70.22611388153518
 20
91.75279706193334
 10
67.54194541312424
 20
72.89284638243294
 10
86.40189609262464
 20
70.20867791402196
  0
LWPOLYLINE
  5
5C
100
AcDbEntity
  8
noname1
  6
ByLayer
 62
  256
370
   -1
100
AcDbPolyline
 90
    4
 70
    1
 43
0
 10
108.5778223286422
 20
85.50682471599393
 10
89.84078580964719
 20
88.94571443301706
 10
86.40189609262401
 20
70.20867791402208
 10
105.138932611619
 20
66.76978819699889
  0
LWPOLYLINE
  5
5D
100
AcDbEntity
  8
noname1
  6
ByLayer
 62
  256
370
   -1
100
AcDbPolyline
 90
    4
 70
    1
 43
0
 10
127.9109358667085
 20
81.16565106624606
 10
109.3270028045399
 20
85.3537212591676
 10
105.1389326116184
 20
66.76978819699903
 10
123.7228656737869
 20
62.58171800407749
  0
LWPOLYLINE
  5
5E
100
AcDbEntity
  8
noname1
  6
ByLayer
 62
  256
370
   -1
100
AcDbPolyline
 90
    4
 70
    1
 43
0
 10
51.84327322937214
 20
74.07016412220383
 10
32.84202631453766
 20
75.43219043674148
 10
31.47999999999999
 20
56.43094352190701
 10
50.48124691483446
 20
55.06891720736934
  0
LWPOLYLINE
  5
5F
100
AcDbEntity
  8
noname1
  6
ByLayer
 62
  256
370
   -1
100
AcDbPolyline
 90
    4
 70
    1
 43
0
 10
71.53600893337395
 20
71.87671290884822
 10
52.60473007336461
 20
74.00019606737871
 10
50.48124691483409
 20
55.06891720736937
 10
69.41252577484346
 20
52.94543404883888
  0
LWPOLYLINE
  5
60
100
AcDbEntity
  8
noname1
  6
ByLayer
 62
  256
370
   -1
100
AcDbPolyline
 90
    4
 70
    1
 43
0
 10
91.12485294425804
 20
68.89472396683482
 10
72.29404440055262
 20
71.77624259254435
 10
69.41252577484309
 20
52.94543404883893
 10
88.24333431854848
 20
50.0639154231294
  0
LWPOLYLINE
  5
61
100
AcDbEntity
  8
noname1
  6
ByLayer
 62
  256
370
   -1
100
AcDbPolyline
 90
    4
 70
    1
 43
0
 10
110.578243525149
 20
65.12900190588434
 10
91.87824568047105
 20
68.76391326780748
 10
88.24333431854787
 20
50.06391542312949
 10
106.9433321632259
 20
46.42900406120631
  0
LWPOLYLINE
  5
62
100
AcDbEntity
  8
noname1
  6
ByLayer
 62
  256
370
   -1
100
AcDbPolyline
 90
    4
 70
    1
 43
0
 10
129.8648371830622
 20
60.58561409417661
 10
111.3257796566586
 20
64.96806158760998
 10
106.9433321632252
 20
46.42900406120646
 10
125.4823896896287
 20
42.04655656777305
  0
LWPOLYLINE
  5
63
100
AcDbEntity
  8
noname1
  6
ByLayer
 62
  256
370
   -1
100
AcDbPolyline
 90
    4
 70
    1
 43
0
 10
54.94507027820362
 20
54.23412902857692
 10
35.96469238576684
 20
55.86132141434373
 10
34.33749999999999
 20
36.880943521907
 10
53.31787789243674
 20
35.25375113614012
  0
LWPOLYLINE
  5
64
100
AcDbEntity
  8
noname1
  6
ByLayer
 62
  256
370
   -1
100
AcDbPolyline
 90
    4
 70
    1
 43
0
 10
74.60526105187718
 20
51.76593809678099
 10
55.70547599183639
 20
54.15353619618097
 10
53.31787789243637
 20
35.25375113614018
 10
72.21766295247718
 20
32.8661530367402
  0
LWPOLYLINE
  5
65
100
AcDbEntity
  8
noname1
  6
ByLayer
 62
  256
370
   -1
100
AcDbPolyline
 90
    4
 70
    1
 43
0
 10
94.15056055340699
 20
48.51073685437859
 10
75.36181984412273
 20
51.6548937460245
 10
72.21766295247681
 20
32.86615303674023
 10
91.00640366176106
 20
29.72199614509432
  0
LWPOLYLINE
  5
66
100
AcDbEntity
  8
noname1
  6
ByLayer
 62
  256
370
   -1
100
AcDbPolyline
 90
    4
 70
    1
 43
0
 10
113.5494772052566
 20
44.47377011341845
 10
94.90205344934655
 20
48.36941990100453
 10
91.00640366176043
 20
29.72199614509444
 10
109.6538274176705
 20
25.82634635750833
  0
LWPOLYLINE
  5
67
100
AcDbEntity
  8
noname1
  6
ByLayer
 62
  256
370
   -1
100
AcDbPolyline
 90
    4
 70
    1
 43
0
 10
132.7707552833681
 20
39.66154227415919
 10
114.2946933921936
 20
44.30240824868289
 10
109.6538274176699
 20
25.8263463575085
 10
128.1298893088443
 20
21.18548038298476
  0
LINE
  5
68
100
AcDbEntity
  8
noname1
  6
ByLayer
 62
  256
370
   -1
100
AcDbLine
 10
39.02077614242137
 20
35.88177845855228
 11
62.70064762311199
 21
33.37202888778302
  0
LINE
  5
69
100
AcDbEntity
  8
noname1
  6
ByLayer
 62
  256
370
   -1
100
AcDbLine
 10
37.01297648580598
 20
16.93788127399984
 11
39.02077614242137
 21
35.88177845855228
  0
LINE
  5
6A
100
AcDbEntity
  8
noname1
  6
ByLayer
 62
  256
370
   -1
100
AcDbLine
 10
108.3415007496391
 20
5.921232360778363
 11
111.8621132163227
 21
24.6430855772586
  0
LINE
  5
6B
100
AcDbEntity
  8
noname1
  6
ByLayer
 62
  256
370
   -1
100
AcDbLine
 10
69.73794347924259
 20
32.56446362729656
 11
111.8621132163227
 21
24.6430855772586
  0
LINE
  5
6C
100
AcDbEntity
  8
noname1
  6
ByLayer
 62
  256
370
   -1
100
AcDbLine
 10
66.21733101255899
 20
13.84261041081629
 11
69.73794347924259
 21
32.56446362729656
  0
LINE
  5
6D
100
AcDbEntity
  8
noname1
  6
ByLayer
 62
  256
370
   -1
100
AcDbLine
 10
66.21733101255899
 20
13.84261041081629
 11
108.3415007496391
 21
5.921232360778363
  0
LINE
  5
6E
100
AcDbEntity
  8
noname1
  6
ByLayer
 62
  256
370
   -1
100
AcDbLine
 10
37.01297648580598
 20
16.93788127399984
 11
60.69284796649657
 21
14.42813170323052
  0
LINE
  5
6F
100
AcDbEntity
  8
noname1
  6
ByLayer
 62
  256
370
   -1
100
AcDbLine
 10
60.69284796649657
 20
14.42813170323052
 11
62.70064762311199
 21
33.37202888778302
  0
LWPOLYLINE
  5
70
100
AcDbEntity
  8
noname1
  6
ByLayer
 62
  256
370
   -1
100
AcDbPolyline
 90
    4
 70
    1
 43
0
 10
161.3907678241443
 20
20.05000000000001
 10
118.5282678241443
 20
20.05000000000001
 10
118.5282678241443
 20
1.000000000000001
 10
161.3907678241443
 20
1.000000000000001
  0
LWPOLYLINE
  5
71
100
AcDbEntity
  8
noname1
  6
ByLayer
 62
  256
370
   -1
100
AcDbPolyline
 90
    4
 70
    1
 43
0
 10
249.4083361253246
 20
115.4524926638876
 10
268.4429893522548
 20
116.2170033116329
 10
269.2075
 20
97.18235008470269
 10
250.1728467730698
 20
96.41783943695742
  0
LWPOLYLINE
  5
72
100
AcDbEntity
  8
noname1
  6
ByLayer
 62
  256
370
   -1
100
AcDbPolyline
 90
    4
 70
    1
 43
0
 10
229.6564196300139
 20
113.8786875630842
 10
248.6450572646055
 20
115.4064770715489
 10
250.1728467730702
 20
96.41783943695745
 10
231.1842091384787
 20
94.89004992849269
  0
LWPOLYLINE
  5
73
100
AcDbEntity
  8
noname1
  6
ByLayer
 62
  256
370
   -1
100
AcDbPolyline
 90
    4
 70
    1
 43
0
 10
209.9835749949231
 20
111.5134705124486
 10
228.895602358679
 20
113.8020772922487
 10
231.184209138479
 20
94.89004992849273
 10
212.2721817747232
 20
92.6014431486927
  0
LWPOLYLINE
  5
74
100
AcDbEntity
  8
noname1
  6
ByLayer
 62
  256
370
   -1
100
AcDbPolyline
 90
    4
 70
    1
 43
0
 10
190.4214992995539
 20
108.3606523728038
 10
209.2264451491943
 20
111.4063889983332
 10
212.2721817747238
 20
92.60144314869278
 10
193.4672359250833
 20
89.55570652316332
  0
LWPOLYLINE
  5
75
100
AcDbEntity
  8
noname1
  6
ByLayer
 62
  256
370
   -1
100
AcDbPolyline
 90
    4
 70
    1
 43
0
 10
171.0017111514096
 20
104.4253129955427
 10
189.6692767744364
 20
108.2232721461902
 10
193.467235925084
 20
89.55570652316345
 10
174.7996703020572
 20
85.75774737251584
  0
LWPOLYLINE
  5
76
100
AcDbEntity
  8
noname1
  6
ByLayer
 62
  256
370
   -1
100
AcDbPolyline
 90
    4
 70
    1
 43
0
 10
151.7554999029074
 20
99.71379303792264
 10
170.255607935186
 20
104.2578554047946
 10
174.799670302058
 20
85.75774737251604
 10
156.2995622697794
 20
81.21368500564407
  0
LWPOLYLINE
  5
77
100
AcDbEntity
  8
noname1
  6
ByLayer
 62
  256
370
   -1
100
AcDbPolyline
 90
    4
 70
    1
 43
0
 10
242.3625574119244
 20
95.48384331650024
 10
261.377025321861
 20
96.64681799463925
 10
262.5400000000001
 20
77.63235008470269
 10
243.5255320900635
 20
76.46937540656367
  0
LWPOLYLINE
  5
78
100
AcDbEntity
  8
noname1
  6
ByLayer
 62
  256
370
   -1
100
AcDbPolyline
 90
    4
 70
    1
 43
0
 10
222.6479321255403
 20
93.49673044841698
 10
241.6004096287287
 20
95.4218529097521
 10
243.5255320900638
 20
76.4693754065637
 10
224.5730545868754
 20
74.54425294522858
  0
LWPOLYLINE
  5
79
100
AcDbEntity
  8
noname1
  6
ByLayer
 62
  256
370
   -1
100
AcDbPolyline
 90
    4
 70
    1
 43
0
 10
203.0289354389644
 20
90.7200351563181
 10
221.8888861184648
 20
93.40420362472904
 10
224.5730545868758
 20
74.54425294522862
 10
205.7131039073754
 20
71.86008447681766
  0
LWPOLYLINE
  5
7A
100
AcDbEntity
  8
noname1
  6
ByLayer
 62
  256
370
   -1
100
AcDbPolyline
 90
    4
 70
    1
 43
0
 10
183.5371776713578
 20
87.15823127878961
 10
202.2742141903528
 20
90.59712099581274
 10
205.713103907376
 20
71.86008447681775
 10
186.976067388381
 20
68.42119475979456
  0
LWPOLYLINE
  5
7B
100
AcDbEntity
  8
noname1
  6
ByLayer
 62
  256
370
   -1
100
AcDbPolyline
 90
    4
 70
    1
 43
0
 10
164.2040641332915
 20
82.81705762904176
 10
182.7879971954601
 20
87.00512782196328
 10
186.9760673883816
 20
68.42119475979473
 10
168.3921343262131
 20
64.23312456687319
  0
LWPOLYLINE
  5
7C
100
AcDbEntity
  8
noname1
  6
ByLayer
 62
  256
370
   -1
100
AcDbPolyline
 90
    4
 70
    1
 43
0
 10
145.0607445262033
 20
77.70350874847696
 10
163.4616315170101
 20
82.63401155767997
 10
168.3921343262131
 20
64.23312456687324
 10
149.9912473354064
 20
59.30262175767021
  0
LWPOLYLINE
  5
7D
100
AcDbEntity
  8
noname1
  6
ByLayer
 62
  256
370
   -1
100
AcDbPolyline
 90
    4
 70
    1
 43
0
 10
307.3075
 20
116.2323500847027
 10
269.2075
 20
116.2323500847027
 10
269.2075
 20
97.18235008470269
 10
307.3075
 20
97.18235008470269
  0
LWPOLYLINE
  5
7E
100
AcDbEntity
  8
noname1
  6
ByLayer
 62
  256
370
   -1
100
AcDbPolyline
 90
    4
 70
    1
 43
0
 10
281.59
 20
96.68235008470269
 10
262.5400000000001
 20
96.68235008470269
 10
262.5400000000001
 20
77.63235008470269
 10
281.59
 20
77.63235008470269
  0
LWPOLYLINE
  5
7F
100
AcDbEntity
  8
noname1
  6
ByLayer
 62
  256
370
   -1
100
AcDbPolyline
 90
    4
 70
    1
 43
0
 10
314.9275
 20
77.13235008470269
 10
272.0649999999999
 20
77.13235008470269
 10
272.0649999999999
 20
58.08235008470268
 10
314.9275
 20
58.08235008470268
  0
LWPOLYLINE
  5
80
100
AcDbEntity
  8
noname1
  6
ByLayer
 62
  256
370
   -1
100
AcDbPolyline
 90
    4
 70
    1
 43
0
 10
232.4848392783306
 20
74.70963251064275
 10
251.4707814972141
 20
76.270561100045
 10
253.0317100866164
 20
57.28461888116141
 10
234.0457678677328
 20
55.72369029175914
  0
LWPOLYLINE
  5
81
100
AcDbEntity
  8
noname1
  6
ByLayer
 62
  256
370
   -1
100
AcDbPolyline
 90
    4
 70
    1
 43
0
 10
212.8161526870979
 20
72.31008348865831
 10
231.7241568758651
 20
74.63169448052635
 10
234.0457678677332
 20
55.72369029175923
 10
215.137763678966
 20
53.40207929989117
  0
LWPOLYLINE
  5
82
100
AcDbEntity
  8
noname1
  6
ByLayer
 62
  256
370
   -1
100
AcDbPolyline
 90
    4
 70
    1
 43
0
 10
193.2596094893977
 20
69.12312790542182
 10
212.0592108869473
 20
72.20168069744085
 10
215.1377636789664
 20
53.40207929989117
 10
196.3381622814167
 20
50.32352650787215
  0
LWPOLYLINE
  5
83
100
AcDbEntity
  8
noname1
  6
ByLayer
 62
  256
370
   -1
100
AcDbPolyline
 90
    4
 70
    1
 43
0
 10
173.8467193787192
 20
65.15390061490916
 10
192.5076278835867
 20
68.98443501273971
 10
196.3381622814173
 20
50.32352650787226
 10
177.6772537765498
 20
46.4929921100416
  0
LWPOLYLINE
  5
84
100
AcDbEntity
  8
noname1
  6
ByLayer
 62
  256
370
   -1
100
AcDbPolyline
 90
    4
 70
    1
 43
0
 10
154.608760593294
 20
60.40879687491446
 10
173.1009095673586
 20
64.98514108410626
 10
177.6772537765505
 20
46.49299211004177
 10
159.185104802486
 20
41.91664790084991
  0
LWPOLYLINE
  5
85
100
AcDbEntity
  8
noname1
  6
ByLayer
 62
  256
370
   -1
100
AcDbPolyline
 90
    4
 70
    1
 43
0
 10
252.2339788830755
 20
76.31790879454469
 10
271.2672687964588
 20
77.11563999808591
 10
272.0649999999999
 20
58.08235008470268
 10
253.0317100866168
 20
57.28461888116141
  0
LWPOLYLINE
  5
86
100
AcDbEntity
  8
noname1
  6
ByLayer
 62
  256
370
   -1
100
AcDbPolyline
 90
    4
 70
    1
 43
0
 10
229.4553921716515
 20
54.7442459278339
 10
248.4239476720678
 20
56.50390561869085
 10
250.1836073629247
 20
37.53535011827458
 10
231.2150518625085
 20
35.7756904274176
  0
LWPOLYLINE
  5
87
100
AcDbEntity
  8
noname1
  6
ByLayer
 62
  256
370
   -1
100
AcDbPolyline
 90
    4
 70
    1
 43
0
 10
209.8129115863188
 20
52.13886223481131
 10
228.6955676281106
 20
54.6583464692095
 10
231.2150518625088
 20
35.77569042741766
 10
212.3323958207169
 20
33.25620619301949
  0
LWPOLYLINE
  5
88
100
AcDbEntity
  8
noname1
  6
ByLayer
 62
  256
370
   -1
100
AcDbPolyline
 90
    4
 70
    1
 43
0
 10
190.2908137971461
 20
48.74728949594521
 10
209.0571464603945
 20
52.02253885626794
 10
212.3323958207173
 20
33.25620619301952
 10
193.5660631574689
 20
29.98095683269676
  0
LWPOLYLINE
  5
89
100
AcDbEntity
  8
noname1
  6
ByLayer
 62
  256
370
   -1
100
AcDbPolyline
 90
    4
 70
    1
 43
0
 10
170.9205529988442
 20
44.57499224637186
 10
189.5403257849943
 20
48.60072961884697
 10
193.5660631574695
 20
29.98095683269688
 10
174.9462903713194
 20
25.95521946022171
  0
LWPOLYLINE
  5
8A
100
AcDbEntity
  8
noname1
  6
ByLayer
 62
  256
370
   -1
100
AcDbPolyline
 90
    4
 70
    1
 43
0
 10
151.7333387448799
 20
39.62869293218773
 10
170.1765512940829
 20
44.39843200942479
 10
174.94629037132
 20
25.95521946022188
 10
156.5030778221171
 20
21.18548038298476
  0
LWPOLYLINE
  5
8B
100
AcDbEntity
  8
noname1
  6
ByLayer
 62
  256
370
   -1
100
AcDbPolyline
 90
    4
 70
    1
 43
0
 10
249.186607396497
 20
56.55924275534926
 10
268.2105000335716
 20
57.55624272177729
 10
269.2074999999996
 20
38.53235008470267
 10
250.1836073629251
 20
37.53535011827461
  0
LINE
  5
8C
100
AcDbEntity
  8
noname1
  6
ByLayer
 62
  256
370
   -1
100
AcDbLine
 10
165.8498740987458
 20
23.08627610141428
 11
217.2122782068296
 21
33.40289036347718
  0
LWPOLYLINE
  5
8D
100
AcDbEntity
  8
noname1
  6
ByLayer
 62
  256
370
   -1
100
AcDbPolyline
 90
    4
 70
    1
 43
0
 10
217.2128469488691
 20
33.39623130246238
 10
165.8498740987469
 20
23.08627610141448
 10
169.5989487173097
 20
4.4088314286428
 10
220.9619215674319
 20
14.71878662969067
  0
LWPOLYLINE
  5
8E
100
AcDbEntity
  8
noname1
  6
ByLayer
 62
  256
370
   -1
100
AcDbPolyline
 90
    4
 70
    1
 43
0
 10
242.4836917660647
 20
36.32320894937425
 10
218.8219185621747
 20
33.64820519280272
 10
220.9619215674319
 20
14.71878662969067
 10
244.623694771322
 20
17.39379038626225
  0
LWPOLYLINE
  5
8F
100
AcDbEntity
  8
noname1
  6
ByLayer
 62
  256
370
   -1
100
AcDbPolyline
 90
    4
 70
    1
 43
0
 10
262.2451383491406
 20
37.77244898376949
 10
243.2450872614777
 20
36.39384147392516
 10
244.623694771322
 20
17.39379038626225
 10
263.623745858985
 20
18.77239789610658
  0
CIRCLE
  5
90
100
AcDbEntity
  8
noname3
  6
ByLayer
 62
  256
370
   -1
100
AcDbCircle
 10
139.9595178241443
 20
29.58193747941672
 40
1.5
  0
LWPOLYLINE
  5
91
100
AcDbEntity
  8
noname1
  6
ByLayer
 62
  256
370
   -1
100
AcDbPolyline
 90
    4
 70
    1
 43
0
 10
288.2574999999996
 20
57.58235008470265
 10
269.2074999999996
 20
57.58235008470265
 10
269.2074999999996
 20
38.53235008470267
 10
288.2574999999996
 20
38.53235008470267
  0
LWPOLYLINE
  5
92
100
AcDbEntity
  8
noname1
  6
ByLayer
 62
  256
370
   -1
100
AcDbPolyline
 90
    4
 70
    1
 43
0
 10
310.675096045402
 20
54.21475403930871
 10
291.6250960454019
 20
54.21475403930871
 10
291.6250960454019
 20
35.16475403930873
 10
310.675096045402
 20
35.16475403930873
  0
LWPOLYLINE
  5
93
100
AcDbEntity
  8
noname1
  6
ByLayer
 62
  256
370
   -1
100
AcDbPolyline
 90
    4
 70
    1
 43
0
 10
310.675096045402
 20
35.16475403930034
 10
291.6250960454019
 20
35.16475403930034
 10
291.6250960454019
 20
16.11475403930036
 10
310.675096045402
 20
16.11475403930036
  0
LWPOLYLINE
  5
94
100
AcDbEntity
  8
noname1
  6
ByLayer
 62
  256
370
   -1
100
AcDbPolyline
 90
    4
 70
    1
 43
0
 10
291.6250960454019
 20
35.16475403930034
 10
272.5750960454019
 20
35.16475403930034
 10
272.5750960454019
 20
16.11475403930036
 10
291.6250960454019
 20
16.11475403930036
  0
LWPOLYLINE
  5
95
100
AcDbEntity
  8
noname1
  6
ByLayer
 62
  256
370
   -1
100
AcDbPolyline
 90
    4
 70
    1
 43
0
 10
329.7250960454019
 20
35.16475403930034
 10
310.675096045402
 20
35.16475403930034
 10
310.675096045402
 20
16.11475403930036
 10
329.7250960454019
 20
16.11475403930036
  0
CIRCLE
  5
96
100
AcDbEntity
  8
noname3
  6
ByLayer
 62
  256
370
   -1
100
AcDbCircle
 10
267.7251302764104
 20
26.28314796737534
 40
1.5
  0
LWPOLYLINE
  5
97
100
AcDbEntity
  8
noname1
  6
ByLayer
 62
  256
370
   -1
100
AcDbPolyline
 90
    4
 70
    1
 43
0
 10
34.33749999999989
 20
55.930943521907
 10
0.9999999999999143
 20
55.930943521907
 10
0.9999999999999143
 20
36.880943521907
 10
34.33749999999989
 20
36.880943521907
  0
LWPOLYLINE
  5
98
100
AcDbEntity
  8
noname1
  6
ByLayer
 62
  256
370
   -1
100
AcDbPolyline
 90
    4
 70
    1
 43
0
 10
24.81249999999994
 20
36.380943521907
 10
0.9999999999999143
 20
36.380943521907
 10
0.9999999999999143
 20
17.33094352190699
 10
24.81249999999994
 20
17.33094352190699
  0
CIRCLE
  5
99
100
AcDbEntity
  8
noname3
  6
ByLayer
 62
  256
370
   -1
100
AcDbCircle
 10
223.6104933562078
 20
84.02049169682277
 40
1.5
  0
ARC
  5
9A
100
AcDbEntity
  8
noname3
  6
ByLayer
 62
  256
370
   -1
100
AcDbCircle
 10
325.7250960454019
 20
5.000000000000001
 40
5
100
AcDbArc
 50
270
 51
0
  0
LINE
  5
9B
100
AcDbEntity
  8
noname3
  6
ByLayer
 62
  256
370
   -1
100
AcDbLine
 10
330.7250960454019
 20
5.000000000000001
 11
330.7250960454019
 21
112.2323500847027
  0
ARC
  5
9C
100
AcDbEntity
  8
noname3
  6
ByLayer
 62
  256
370
   -1
100
AcDbCircle
 10
325.7250960454019
 20
112.2323500847027
 40
5
100
AcDbArc
 50
0
 51
90
  0
LWPOLYLINE
  5
9D
100
AcDbEntity
  8
noname1
  6
ByLayer
 62
  256
370
   -1
100
AcDbPolyline
 90
    4
 70
    1
 43
0
 10
31.48000000000018
 20
75.48094352190699
 10
2.905000000000189
 20
75.48094352190699
 10
2.905000000000189
 20
56.430943521907
 10
31.48000000000018
 20
56.430943521907
  0
LINE
  5
9E
100
AcDbEntity
  8
noname3
  6
ByLayer
 62
  256
370
   -1
100
AcDbLine
 10
325.7250960454019
 20
117.2323500847027
 11
4.999999999999989
 21
117.2323500847027
  0
ARC
  5
9F
100
AcDbEntity
  8
noname3
  6
ByLayer
 62
  256
370
   -1
100
AcDbCircle
 10
5
 20
112.2323500847027
 40
5
100
AcDbArc
 50
90.00000000000013
 51
180
  0
LINE
  5
A0
100
AcDbEntity
  8
noname3
  6
ByLayer
 62
  256
370
   -1
100
AcDbLine
 10
-4.440892098500626e-16
 20
112.2323500847027
 11
-4.440892098500626e-16
 21
5.000000000000001
  0
LINE
  5
A1
100
AcDbEntity
  8
noname3
  6
ByLayer
 62
  256
370
   -1
100
AcDbLine
 10
5
 20
5.828670879282072e-16
 11
325.7250960454019
 21
5.828670879282072e-16
  0
ARC
  5
A2
100
AcDbEntity
  8
noname3
  6
ByLayer
 62
  256
370
   -1
100
AcDbCircle
 10
5
 20
5.000000000000001
 40
5
100
AcDbArc
 50
180
 51
270
  0
CIRCLE
  5
A3
100
AcDbEntity
  8
noname3
  6
ByLayer
 62
  256
370
   -1
100
AcDbCircle
 10
10
 20
10
 40
1.5
  0
LWPOLYLINE
  5
A4
100
AcDbEntity
  8
noname1
  6
ByLayer
 62
  256
370
   -1
100
AcDbPolyline
 90
    4
 70
    1
 43
0
 10
305.4025
 20
96.6823500847027
 10
281.59
 20
96.6823500847027
 10
281.59
 20
77.63235008470269
 10
305.4025
 20
77.63235008470269
  0
LWPOLYLINE
  5
A5
100
AcDbEntity
  8
noname2
  6
ByLayer
 62
  256
370
   -1
100
AcDbPolyline
 90
    4
 70
    1
 43
0
 10
308.3075
 20
81.23235008470267
 10
328.3075
 20
81.23235008470267
 10
328.3075
 20
116.2323500847027
 10
308.3075
 20
116.2323500847027
  0
CIRCLE
  5
A6
100
AcDbEntity
  8
noname3
  6
ByLayer
 62
  256
370
   -1
100
AcDbCircle
 10
320.7250960454019
 20
10
 40
1.5
  0
CIRCLE
  5
A7
100
AcDbEntity
  8
noname3
  6
ByLayer
 62
  256
370
   -1
100
AcDbCircle
 10
320.7250960454019
 20
67.60735008470269
 40
1.5
  0
CIRCLE
  5
A8
100
AcDbEntity
  8
noname3
  6
ByLayer
 62
  256
370
   -1
100
AcDbCircle
 10
145.8546878217869
 20
107.2323500847027
 40
1.5
  0
CIRCLE
  5
A9
100
AcDbEntity
  8
noname3
  6
ByLayer
 62
  256
370
   -1
100
AcDbCircle
 10
269.2075
 20
107.2323500847027
 40
1.5
  0
CIRCLE
  5
AA
100
AcDbEntity
  8
noname3
  6
ByLayer
 62
  256
370
   -1
100
AcDbCircle
 10
22.9075
 20
107.2323500847027
 40
1.5
  0
LINE
  5
AB
100
AcDbEntity
  8
noname4
  6
ByLayer
 62
  256
370
   -1
100
AcDbLine
 10
60.93079086152095
 20
93.23864336569704
 11
82.13142500507692
 21
109.862063949653
  0
LINE
  5
AC
100
AcDbEntity
  8
noname4
  6
ByLayer
 62
  256
370
   -1
100
AcDbLine
 10
79.84281822527625
 20
90.9500365858971
 11
101.6935007004461
 21
106.7092458100081
  0
LINE
  5
AD
100
AcDbEntity
  8
noname4
  6
ByLayer
 62
  256
370
   -1
100
AcDbLine
 10
98.64776407491601
 20
87.90429996036775
 11
121.1132888485905
 21
102.773906432747
  0
LINE
  5
AE
100
AcDbEntity
  8
noname4
  6
ByLayer
 62
  256
370
   -1
100
AcDbLine
 10
117.315329697942
 20
84.10634080972034
 11
140.3595000970926
 21
98.06238647512694
  0
LINE
  5
AF
100
AcDbEntity
  8
noname4
  6
ByLayer
 62
  256
370
   -1
100
AcDbLine
 10
3.857500000000015
 20
95.53094352190701
 11
22.9075
 21
114.580943521907
  0
LINE
  5
B0
100
AcDbEntity
  8
noname4
  6
ByLayer
 62
  256
370
   -1
100
AcDbLine
 10
22.9075
 20
95.53094352190701
 11
42.70666387467546
 21
113.8010861010919
  0
LINE
  5
B1
100
AcDbEntity
  8
noname4
  6
ByLayer
 62
  256
370
   -1
100
AcDbLine
 10
41.94215322692982
 20
94.76643287416175
 11
62.45858036998609
 21
112.2272810002885
  0
LINE
  5
B2
100
AcDbEntity
  8
noname4
  6
ByLayer
 62
  256
370
   -1
100
AcDbLine
 10
0.9999999999999996
 20
75.98094352190699
 11
29.57500000000001
 21
95.03094352190701
  0
LINE
  5
B3
100
AcDbEntity
  8
noname4
  6
ByLayer
 62
  256
370
   -1
100
AcDbLine
 10
29.57500000000001
 20
75.98094352190699
 11
49.7524425880756
 21
93.83243675370454
  0
LINE
  5
B4
100
AcDbEntity
  8
noname4
  6
ByLayer
 62
  256
370
   -1
100
AcDbLine
 10
48.58946790993619
 20
74.817968843768
 11
69.46706787445973
 21
91.8453238856213
  0
LINE
  5
B5
100
AcDbEntity
  8
noname4
  6
ByLayer
 62
  256
370
   -1
100
AcDbLine
 10
67.54194541312424
 20
72.89284638243294
 11
89.08606456103561
 21
89.06862859352242
  0
LINE
  5
B6
100
AcDbEntity
  8
noname4
  6
ByLayer
 62
  256
370
   -1
100
AcDbLine
 10
86.40189609262464
 20
70.20867791402196
 11
108.5778223286422
 21
85.50682471599393
  0
LINE
  5
B7
100
AcDbEntity
  8
noname4
  6
ByLayer
 62
  256
370
   -1
100
AcDbLine
 10
105.138932611619
 20
66.76978819699889
 11
127.9109358667085
 21
81.16565106624606
  0
LINE
  5
B8
100
AcDbEntity
  8
noname4
  6
ByLayer
 62
  256
370
   -1
100
AcDbLine
 10
129.8648371830622
 20
60.58561409417661
 11
106.9433321632259
 21
46.42900406120631
  0
LINE
  5
B9
100
AcDbEntity
  8
noname4
  6
ByLayer
 62
  256
370
   -1
100
AcDbLine
 10
110.578243525149
 20
65.12900190588434
 11
88.24333431854787
 21
50.06391542312949
  0
LINE
  5
BA
100
AcDbEntity
  8
noname4
  6
ByLayer
 62
  256
370
   -1
100
AcDbLine
 10
91.12485294425804
 20
68.89472396683482
 11
69.41252577484309
 21
52.94543404883893
  0
LINE
  5
BB
100
AcDbEntity
  8
noname4
  6
ByLayer
 62
  256
370
   -1
100
AcDbLine
 10
71.53600893337395
 20
71.87671290884822
 11
50.48124691483409
 21
55.06891720736937
  0
LINE
  5
BC
100
AcDbEntity
  8
noname4
  6
ByLayer
 62
  256
370
   -1
100
AcDbLine
 10
51.84327322937214
 20
74.07016412220383
 11
31.48000000000018
 21
56.430943521907
  0
LINE
  5
BD
100
AcDbEntity
  8
noname4
  6
ByLayer
 62
  256
370
   -1
100
AcDbLine
 10
31.48000000000018
 20
75.48094352190699
 11
2.905000000000189
 21
56.430943521907
  0
LINE
  5
BE
100
AcDbEntity
  8
noname4
  6
ByLayer
 62
  256
370
   -1
100
AcDbLine
 10
0.9999999999999143
 20
36.880943521907
 11
34.33749999999989
 21
55.930943521907
  0
LINE
  5
BF
100
AcDbEntity
  8
noname4
  6
ByLayer
 62
  256
370
   -1
100
AcDbLine
 10
34.33749999999989
 20
36.880943521907
 11
54.94507027820362
 21
54.23412902857692
  0
LINE
  5
C0
100
AcDbEntity
  8
noname4
  6
ByLayer
 62
  256
370
   -1
100
AcDbLine
 10
53.31787789243637
 20
35.25375113614018
 11
74.60526105187718
 21
51.76593809678099
  0
LINE
  5
C1
100
AcDbEntity
  8
noname4
  6
ByLayer
 62
  256
370
   -1
100
AcDbLine
 10
72.21766295247718
 20
32.8661530367402
 11
94.15056055340699
 21
48.51073685437859
  0
LINE
  5
C2
100
AcDbEntity
  8
noname4
  6
ByLayer
 62
  256
370
   -1
100
AcDbLine
 10
91.00640366176106
 20
29.72199614509432
 11
113.5494772052566
 21
44.47377011341845
  0
LINE
  5
C3
100
AcDbEntity
  8
noname4
  6
ByLayer
 62
  256
370
   -1
100
AcDbLine
 10
109.6538274176699
 20
25.8263463575085
 11
132.7707552833681
 21
39.66154227415919
  0
LINE
  5
C4
100
AcDbEntity
  8
noname4
  6
ByLayer
 62
  256
370
   -1
100
AcDbLine
 10
118.5282678241443
 20
1.000000000000001
 11
161.3907678241443
 21
20.05000000000001
  0
LINE
  5
C5
100
AcDbEntity
  8
noname4
  6
ByLayer
 62
  256
370
   -1
100
AcDbLine
 10
169.5989487173097
 20
4.4088314286428
 11
217.2128469488691
 21
33.39623130246238
  0
LINE
  5
C6
100
AcDbEntity
  8
noname4
  6
ByLayer
 62
  256
370
   -1
100
AcDbLine
 10
220.9619215674319
 20
14.71878662969067
 11
242.4836917660647
 21
36.32320894937425
  0
LINE
  5
C7
100
AcDbEntity
  8
noname4
  6
ByLayer
 62
  256
370
   -1
100
AcDbLine
 10
244.623694771322
 20
17.39379038626225
 11
262.2451383491406
 21
37.77244898376949
  0
LINE
  5
C8
100
AcDbEntity
  8
noname4
  6
ByLayer
 62
  256
370
   -1
100
AcDbLine
 10
272.5750960454019
 20
16.11475403930036
 11
291.6250960454019
 21
35.16475403930034
  0
LINE
  5
C9
100
AcDbEntity
  8
noname4
  6
ByLayer
 62
  256
370
   -1
100
AcDbLine
 10
291.6250960454019
 20
16.11475403930036
 11
310.675096045402
 21
35.16475403930034
  0
LINE
  5
CA
100
AcDbEntity
  8
noname4
  6
ByLayer
 62
  256
370
   -1
100
AcDbLine
 10
310.675096045402
 20
16.11475403930036
 11
329.7250960454019
 21
35.16475403930034
  0
LINE
  5
CB
100
AcDbEntity
  8
noname4
  6
ByLayer
 62
  256
370
   -1
100
AcDbLine
 10
0.9999999999999143
 20
17.33094352190699
 11
24.81249999999994
 21
36.380943521907
  0
LINE
  5
CC
100
AcDbEntity
  8
noname4
  6
ByLayer
 62
  256
370
   -1
100
AcDbLine
 10
37.01297648580598
 20
16.93788127399984
 11
62.70064762311199
 21
33.37202888778302
  0
LINE
  5
CD
100
AcDbEntity
  8
noname4
  6
ByLayer
 62
  256
370
   -1
100
AcDbLine
 10
66.21733101255899
 20
13.84261041081629
 11
111.8621132163227
 21
24.6430855772586
  0
LINE
  5
CE
100
AcDbEntity
  8
noname4
  6
ByLayer
 62
  256
370
   -1
100
AcDbLine
 10
156.5030778221171
 20
21.18548038298476
 11
170.1765512940829
 21
44.39843200942479
  0
LINE
  5
CF
100
AcDbEntity
  8
noname4
  6
ByLayer
 62
  256
370
   -1
100
AcDbLine
 10
174.9462903713194
 20
25.95521946022171
 11
189.5403257849943
 21
48.60072961884697
  0
LINE
  5
D0
100
AcDbEntity
  8
noname4
  6
ByLayer
 62
  256
370
   -1
100
AcDbLine
 10
193.5660631574689
 20
29.98095683269676
 11
209.0571464603945
 21
52.02253885626794
  0
LINE
  5
D1
100
AcDbEntity
  8
noname4
  6
ByLayer
 62
  256
370
   -1
100
AcDbLine
 10
212.3323958207169
 20
33.25620619301949
 11
228.6955676281106
 21
54.6583464692095
  0
LINE
  5
D2
100
AcDbEntity
  8
noname4
  6
ByLayer
 62
  256
370
   -1
100
AcDbLine
 10
231.2150518625085
 20
35.7756904274176
 11
248.4239476720678
 21
56.50390561869085
  0
LINE
  5
D3
100
AcDbEntity
  8
noname4
  6
ByLayer
 62
  256
370
   -1
100
AcDbLine
 10
250.1836073629247
 20
37.53535011827458
 11
268.2105000335716
 21
57.55624272177729
  0
LINE
  5
D4
100
AcDbEntity
  8
noname4
  6
ByLayer
 62
  256
370
   -1
100
AcDbLine
 10
269.2074999999996
 20
38.53235008470267
 11
288.2574999999996
 21
57.58235008470265
  0
LINE
  5
D5
100
AcDbEntity
  8
noname4
  6
ByLayer
 62
  256
370
   -1
100
AcDbLine
 10
159.185104802486
 20
41.91664790084991
 11
173.1009095673586
 21
64.98514108410626
  0
LINE
  5
D6
100
AcDbEntity
  8
noname4
  6
ByLayer
 62
  256
370
   -1
100
AcDbLine
 10
177.6772537765498
 20
46.4929921100416
 11
192.5076278835867
 21
68.98443501273971
  0
LINE
  5
D7
100
AcDbEntity
  8
noname4
  6
ByLayer
 62
  256
370
   -1
100
AcDbLine
 10
196.3381622814167
 20
50.32352650787215
 11
212.0592108869473
 21
72.20168069744085
  0
LINE
  5
D8
100
AcDbEntity
  8
noname4
  6
ByLayer
 62
  256
370
   -1
100
AcDbLine
 10
215.137763678966
 20
53.40207929989117
 11
231.7241568758651
 21
74.63169448052635
  0
LINE
  5
D9
100
AcDbEntity
  8
noname4
  6
ByLayer
 62
  256
370
   -1
100
AcDbLine
 10
234.0457678677332
 20
55.72369029175923
 11
251.4707814972141
 21
76.270561100045
  0
LINE
  5
DA
100
AcDbEntity
  8
noname4
  6
ByLayer
 62
  256
370
   -1
100
AcDbLine
 10
253.0317100866164
 20
57.28461888116141
 11
271.2672687964588
 21
77.11563999808591
  0
LINE
  5
DB
100
AcDbEntity
  8
noname4
  6
ByLayer
 62
  256
370
   -1
100
AcDbLine
 10
272.0649999999999
 20
58.08235008470268
 11
314.9275
 21
77.13235008470269
  0
LINE
  5
DC
100
AcDbEntity
  8
noname4
  6
ByLayer
 62
  256
370
   -1
100
AcDbLine
 10
149.9912473354064
 20
59.30262175767021
 11
163.4616315170101
 21
82.63401155767997
  0
LINE
  5
DD
100
AcDbEntity
  8
noname4
  6
ByLayer
 62
  256
370
   -1
100
AcDbLine
 10
168.3921343262131
 20
64.23312456687324
 11
182.7879971954601
 21
87.00512782196328
  0
LINE
  5
DE
100
AcDbEntity
  8
noname4
  6
ByLayer
 62
  256
370
   -1
100
AcDbLine
 10
186.976067388381
 20
68.42119475979456
 11
202.2742141903528
 21
90.59712099581274
  0
LINE
  5
DF
100
AcDbEntity
  8
noname4
  6
ByLayer
 62
  256
370
   -1
100
AcDbLine
 10
205.7131039073754
 20
71.86008447681766
 11
221.8888861184648
 21
93.40420362472904
  0
LINE
  5
E0
100
AcDbEntity
  8
noname4
  6
ByLayer
 62
  256
370
   -1
100
AcDbLine
 10
224.5730545868754
 20
74.54425294522858
 11
241.6004096287287
 21
95.4218529097521
  0
LINE
  5
E1
100
AcDbEntity
  8
noname4
  6
ByLayer
 62
  256
370
   -1
100
AcDbLine
 10
243.5255320900635
 20
76.46937540656367
 11
261.377025321861
 21
96.64681799463925
  0
LINE
  5
E2
100
AcDbEntity
  8
noname4
  6
ByLayer
 62
  256
370
   -1
100
AcDbLine
 10
262.5400000000001
 20
77.63235008470269
 11
281.59
 21
96.68235008470269
  0
LINE
  5
E3
100
AcDbEntity
  8
noname4
  6
ByLayer
 62
  256
370
   -1
100
AcDbLine
 10
281.59
 20
77.63235008470269
 11
305.4025
 21
96.6823500847027
  0
LINE
  5
E4
100
AcDbEntity
  8
noname4
  6
ByLayer
 62
  256
370
   -1
100
AcDbLine
 10
156.2995622697794
 20
81.21368500564407
 11
170.255607935186
 21
104.2578554047946
  0
LINE
  5
E5
100
AcDbEntity
  8
noname4
  6
ByLayer
 62
  256
370
   -1
100
AcDbLine
 10
174.7996703020572
 20
85.75774737251584
 11
189.6692767744364
 21
108.2232721461902
  0
LINE
  5
E6
100
AcDbEntity
  8
noname4
  6
ByLayer
 62
  256
370
   -1
100
AcDbLine
 10
193.4672359250833
 20
89.55570652316332
 11
209.2264451491943
 21
111.4063889983332
  0
LINE
  5
E7
100
AcDbEntity
  8
noname4
  6
ByLayer
 62
  256
370
   -1
100
AcDbLine
 10
212.2721817747238
 20
92.60144314869278
 11
228.895602358679
 21
113.8020772922487
  0
LINE
  5
E8
100
AcDbEntity
  8
noname4
  6
ByLayer
 62
  256
370
   -1
100
AcDbLine
 10
231.1842091384787
 20
94.89004992849269
 11
248.6450572646055
 21
115.4064770715489
  0
LINE
  5
E9
100
AcDbEntity
  8
noname4
  6
ByLayer
 62
  256
370
   -1
100
AcDbLine
 10
250.1728467730698
 20
96.41783943695742
 11
268.4429893522548
 21
116.2170033116329
  0
LINE
  5
EA
100
AcDbEntity
  8
noname4
  6
ByLayer
 62
  256
370
   -1
100
AcDbLine
 10
269.2075
 20
97.18235008470269
 11
307.3075
 21
116.2323500847027
  0
LINE
  5
EB
100
AcDbEntity
  8
noname4
  6
ByLayer
 62
  256
370
   -1
100
AcDbLine
 10
291.6250960454019
 20
35.16475403930873
 11
310.675096045402
 21
54.21475403930871
  0
ENDSEC
  0
SECTION
  2
OBJECTS
  0
DICTIONARY
  5
C
330
0
100
AcDbDictionary
281
    1
  3
ACAD_GROUP
350
D
  0
DICTIONARY
  5
D
330
C
100
AcDbDictionary
281
    1
  0
PLOTSETTINGS
  5
EC
100
AcDbPlotSettings
  6
1x1
 40
0
 41
0
 42
0
 43
0
  0
ENDSEC
  0
EOF
